Perun-Bold.ufo
<glyph name="exclam" format="2">
  <advance width="230.0"/>
  <unicode hex="0021"/>
  <outline>
    <contour>
      <point x="190" y="722" type="line"/>
      <point x="40" y="722" type="line"/>
      <point x="66" y="191" type="line"/>
      <point x="164" y="191" type="line"/>
    </contour>
    <contour>
      <point x="185" y="0" type="line"/>
      <point x="185" y="115" type="line"/>
      <point x="55" y="115" type="line"/>
      <point x="55" y="0" type="line"/>
    </contour>
  </outline>
</glyph>
<glyph name="numbersign" format="2">
  <advance width="716.0"/>
  <unicode hex="0023"/>
  <outline>
    <contour>
      <point x="88" y="0" type="line"/>
      <point x="301" y="722" type="line"/>
      <point x="401" y="722" type="line"/>
      <point x="188" y="0" type="line"/>
    </contour>
    <contour>
      <point x="310" y="0" type="line"/>
      <point x="523" y="722" type="line"/>
      <point x="623" y="722" type="line"/>
      <point x="410" y="0" type="line"/>
    </contour>
    <contour>
      <point x="127" y="539" type="line"/>
      <point x="692" y="539" type="line"/>
      <point x="665" y="459" type="line"/>
      <point x="100" y="459" type="line"/>
    </contour>
    <contour>
      <point x="41" y="284" type="line"/>
      <point x="606" y="284" type="line"/>
      <point x="579" y="204" type="line"/>
      <point x="14" y="204" type="line"/>
    </contour>
  </outline>
</glyph>
<glyph name="percent" format="2">
  <advance width="990.0"/>
  <unicode hex="0025"/>
  <outline>
    <contour>
      <point x="238" y="-14" type="line"/>
      <point x="663" y="736" type="line"/>
      <point x="763" y="736" type="line"/>
      <point x="336" y="-14" type="line"/>
    </contour>
    <contour>
      <point x="560" y="195" type="qcurve" smooth="yes"/>
      <point x="560" y="254"/>
      <point x="610" y="347"/>
      <point x="700" y="401"/>
      <point x="760" y="401" type="qcurve" smooth="yes"/>
      <point x="820" y="401"/>
      <point x="909" y="347"/>
      <point x="958" y="255"/>
      <point x="958" y="196" type="qcurve" smooth="yes"/>
      <point x="958" y="138"/>
      <point x="908" y="46"/>
      <point x="818" y="-7"/>
      <point x="758" y="-7" type="qcurve" smooth="yes"/>
      <point x="698" y="-7"/>
      <point x="609" y="45"/>
      <point x="560" y="137"/>
    </contour>
    <contour>
      <point x="663" y="197" type="qcurve" smooth="yes"/>
      <point x="663" y="141"/>
      <point x="706" y="60"/>
      <point x="758" y="60" type="qcurve" smooth="yes"/>
      <point x="810" y="60"/>
      <point x="852" y="141"/>
      <point x="852" y="197" type="qcurve" smooth="yes"/>
      <point x="852" y="253"/>
      <point x="810" y="334"/>
      <point x="758" y="334" type="qcurve" smooth="yes"/>
      <point x="706" y="334"/>
      <point x="663" y="253"/>
    </contour>
    <contour>
      <point x="35" y="523" type="qcurve" smooth="yes"/>
      <point x="35" y="582"/>
      <point x="85" y="675"/>
      <point x="175" y="729"/>
      <point x="235" y="729" type="qcurve" smooth="yes"/>
      <point x="295" y="729"/>
      <point x="384" y="675"/>
      <point x="433" y="583"/>
      <point x="433" y="524" type="qcurve" smooth="yes"/>
      <point x="433" y="466"/>
      <point x="383" y="374"/>
      <point x="293" y="321"/>
      <point x="233" y="321" type="qcurve" smooth="yes"/>
      <point x="173" y="321"/>
      <point x="84" y="373"/>
      <point x="35" y="465"/>
    </contour>
    <contour>
      <point x="138" y="525" type="qcurve" smooth="yes"/>
      <point x="138" y="469"/>
      <point x="181" y="388"/>
      <point x="233" y="388" type="qcurve" smooth="yes"/>
      <point x="285" y="388"/>
      <point x="327" y="469"/>
      <point x="327" y="525" type="qcurve" smooth="yes"/>
      <point x="327" y="581"/>
      <point x="285" y="662"/>
      <point x="233" y="662" type="qcurve" smooth="yes"/>
      <point x="181" y="662"/>
      <point x="138" y="581"/>
    </contour>
  </outline>
</glyph>
<glyph name="ampersand" format="2">
  <advance width="747.0"/>
  <unicode hex="0026"/>
  <outline>
    <contour>
      <point x="577" y="0" type="line"/>
      <point x="171" y="421" type="line" smooth="yes"/>
      <point x="142" y="451"/>
      <point x="106" y="527"/>
      <point x="106" y="558" type="qcurve" smooth="yes"/>
      <point x="106" y="611"/>
      <point x="160" y="691"/>
      <point x="257" y="735"/>
      <point x="322" y="735" type="qcurve" smooth="yes"/>
      <point x="381" y="735"/>
      <point x="470" y="695"/>
      <point x="519" y="622"/>
      <point x="519" y="574" type="qcurve" smooth="yes"/>
      <point x="519" y="518"/>
      <point x="448" y="439"/>
      <point x="385" y="398" type="qcurve" smooth="yes"/>
      <point x="348" y="375" type="line"/>
      <point x="270" y="456" type="line"/>
      <point x="350" y="505" type="line" smooth="yes"/>
      <point x="370" y="518"/>
      <point x="395" y="554"/>
      <point x="395" y="572" type="qcurve" smooth="yes"/>
      <point x="395" y="600"/>
      <point x="354" y="635"/>
      <point x="321" y="635" type="qcurve" smooth="yes"/>
      <point x="284" y="635"/>
      <point x="239" y="594"/>
      <point x="239" y="560" type="qcurve" smooth="yes"/>
      <point x="239" y="544"/>
      <point x="300" y="461"/>
      <point x="349" y="410" type="qcurve" smooth="yes"/>
      <point x="745" y="0" type="line"/>
    </contour>
    <contour>
      <point x="51" y="204" type="qcurve" smooth="yes"/>
      <point x="51" y="261"/>
      <point x="111" y="363"/>
      <point x="162" y="395" type="qcurve" smooth="yes"/>
      <point x="210" y="425" type="line"/>
      <point x="287" y="344" type="line"/>
      <point x="257" y="326" type="line" smooth="yes"/>
      <point x="228" y="308"/>
      <point x="191" y="236"/>
      <point x="191" y="199" type="qcurve" smooth="yes"/>
      <point x="191" y="165"/>
      <point x="225" y="114"/>
      <point x="287" y="85"/>
      <point x="328" y="85" type="qcurve" smooth="yes"/>
      <point x="357" y="85"/>
      <point x="415" y="100"/>
      <point x="465" y="127"/>
      <point x="481" y="144" type="qcurve"/>
      <point x="558" y="62" type="line"/>
      <point x="529" y="36"/>
      <point x="460" y="2"/>
      <point x="378" y="-15"/>
      <point x="330" y="-15" type="qcurve" smooth="yes"/>
      <point x="247" y="-15"/>
      <point x="121" y="40"/>
      <point x="51" y="138"/>
    </contour>
    <contour>
      <point x="605" y="112" type="qcurve"/>
      <point x="517" y="205" type="line"/>
      <point x="535" y="234"/>
      <point x="554" y="304"/>
      <point x="554" y="336" type="qcurve" smooth="yes"/>
      <point x="554" y="360"/>
      <point x="551" y="379" type="qcurve"/>
      <point x="552" y="381" type="line"/>
      <point x="690" y="381" type="line"/>
      <point x="690" y="319"/>
      <point x="671" y="217"/>
      <point x="633" y="139"/>
    </contour>
  </outline>
</glyph>
<glyph name="quotesingle" format="2">
  <advance width="230.0"/>
  <unicode hex="0027"/>
  <outline>
    <contour>
      <point x="66" y="432" type="line"/>
      <point x="40" y="722" type="line"/>
      <point x="190" y="722" type="line"/>
      <point x="164" y="432" type="line"/>
    </contour>
  </outline>
</glyph>
<glyph name="parenleft" format="2">
  <advance width="310.0"/>
  <unicode hex="0028"/>
  <outline>
    <contour>
      <point x="140" y="-132" type="line"/>
      <point x="46" y="74.62141779788838"/>
      <point x="46" y="303.30920060331823" type="qcurve" smooth="yes"/>
      <point x="46" y="533"/>
      <point x="140" y="737" type="qcurve"/>
      <point x="250" y="737" type="line"/>
      <point x="209" y="622"/>
      <point x="168" y="404"/>
      <point x="168" y="303" type="qcurve" smooth="yes"/>
      <point x="168" y="236.55988857938718"/>
      <point x="186" y="95.74651810584959"/>
      <point x="223" y="-53"/>
      <point x="250" y="-132" type="qcurve"/>
    </contour>
  </outline>
</glyph>
<glyph name="parenright" format="2">
  <advance width="385.0"/>
  <unicode hex="0029"/>
  <outline>
    <contour>
      <point x="91" y="-133" type="line"/>
      <point x="173" y="100.92828685258964"/>
      <point x="173" y="304.7370517928287" type="qcurve" smooth="yes"/>
      <point x="173" y="406.1394422310757"/>
      <point x="132" y="623"/>
      <point x="91" y="736" type="qcurve"/>
      <point x="201" y="736" type="line"/>
      <point x="295" y="532"/>
      <point x="295" y="301.9622356495468" type="qcurve" smooth="yes"/>
      <point x="295" y="73.93353474320242"/>
      <point x="201" y="-133" type="qcurve"/>
    </contour>
  </outline>
</glyph>
<glyph name="plus" format="2">
  <advance width="720.0"/>
  <unicode hex="002B"/>
  <outline>
    <contour>
      <point x="60" y="244" type="line"/>
      <point x="60" y="364" type="line"/>
      <point x="300" y="364" type="line"/>
      <point x="300" y="604" type="line"/>
      <point x="420" y="604" type="line"/>
      <point x="420" y="364" type="line"/>
      <point x="660" y="364" type="line"/>
      <point x="660" y="244" type="line"/>
      <point x="420" y="244" type="line"/>
      <point x="420" y="4" type="line"/>
      <point x="300" y="4" type="line"/>
      <point x="300" y="244" type="line"/>
    </contour>
  </outline>
</glyph>
<glyph name="comma" format="2">
  <advance width="310.0"/>
  <unicode hex="002C"/>
  <outline>
    <contour>
      <point x="48" y="-129" type="line"/>
      <point x="127" y="123" type="line"/>
      <point x="263" y="123" type="line"/>
      <point x="143" y="-129" type="line"/>
    </contour>
  </outline>
</glyph>
<glyph name="zero" format="2">
  <advance width="573.0"/>
  <unicode hex="0030"/>
  <outline>
    <contour>
      <point x="35" y="361" type="qcurve" smooth="yes"/>
      <point x="35" y="455"/>
      <point x="66" y="595"/>
      <point x="129" y="689"/>
      <point x="222" y="736"/>
      <point x="283" y="736" type="qcurve" smooth="yes"/>
      <point x="363" y="736"/>
      <point x="464" y="668"/>
      <point x="519" y="556"/>
      <point x="541" y="424"/>
      <point x="541" y="361" type="qcurve" smooth="yes"/>
      <point x="541" y="296"/>
      <point x="519" y="164"/>
      <point x="464" y="53"/>
      <point x="363" y="-14"/>
      <point x="284" y="-14" type="qcurve" smooth="yes"/>
      <point x="235" y="-14"/>
      <point x="155" y="16"/>
      <point x="95" y="76"/>
      <point x="55" y="166"/>
      <point x="35" y="286"/>
    </contour>
    <contour>
      <point x="181" y="361" type="qcurve" smooth="yes"/>
      <point x="181" y="338"/>
      <point x="185" y="269"/>
      <point x="197" y="193"/>
      <point x="221" y="127"/>
      <point x="259" y="86"/>
      <point x="288" y="86" type="qcurve" smooth="yes"/>
      <point x="317" y="86"/>
      <point x="356" y="127"/>
      <point x="379" y="193"/>
      <point x="391" y="269"/>
      <point x="395" y="338"/>
      <point x="395" y="361" type="qcurve" smooth="yes"/>
      <point x="395" y="384"/>
      <point x="393" y="453"/>
      <point x="383" y="528"/>
      <point x="361" y="594"/>
      <point x="322" y="636"/>
      <point x="291" y="636" type="qcurve" smooth="yes"/>
      <point x="260" y="636"/>
      <point x="220" y="595"/>
      <point x="196" y="529"/>
      <point x="184" y="453"/>
      <point x="181" y="384"/>
    </contour>
  </outline>
</glyph>
<glyph name="one" format="2">
  <advance width="573.0"/>
  <unicode hex="0031"/>
  <outline>
    <contour>
      <point x="271" y="0" type="line"/>
      <point x="271" y="579" type="line"/>
      <point x="233" y="548"/>
      <point x="147" y="503"/>
      <point x="100" y="487" type="qcurve"/>
      <point x="100" y="610" type="line"/>
      <point x="133" y="623"/>
      <point x="197" y="656"/>
      <point x="256" y="697"/>
      <point x="281" y="722" type="qcurve"/>
      <point x="406" y="722" type="line"/>
      <point x="406" y="0" type="line"/>
    </contour>
  </outline>
</glyph>
<glyph name="two" format="2">
  <advance width="573.0"/>
  <unicode hex="0032"/>
  <outline>
    <contour>
      <point x="31" y="0" type="line"/>
      <point x="31" y="128" type="line"/>
      <point x="105" y="172"/>
      <point x="224" y="259"/>
      <point x="313" y="343"/>
      <point x="372" y="423"/>
      <point x="401" y="499"/>
      <point x="401" y="533" type="qcurve" smooth="yes"/>
      <point x="401" y="558"/>
      <point x="375" y="600"/>
      <point x="330" y="626"/>
      <point x="302" y="626" type="qcurve" smooth="yes"/>
      <point x="260" y="626"/>
      <point x="203" y="568"/>
      <point x="203" y="523" type="qcurve"/>
      <point x="58" y="523" type="line"/>
      <point x="58" y="584"/>
      <point x="123" y="680"/>
      <point x="236" y="735"/>
      <point x="308" y="735" type="qcurve" smooth="yes"/>
      <point x="377" y="735"/>
      <point x="482" y="683"/>
      <point x="540" y="590"/>
      <point x="540" y="527" type="qcurve" smooth="yes"/>
      <point x="540" y="476"/>
      <point x="501" y="382"/>
      <point x="432" y="296"/>
      <point x="340" y="216"/>
      <point x="232" y="142"/>
      <point x="174" y="107" type="qcurve"/>
      <point x="174" y="114" type="line"/>
      <point x="541" y="114" type="line"/>
      <point x="541" y="0" type="line"/>
    </contour>
  </outline>
</glyph>
<glyph name="three" format="2">
  <advance width="573.0"/>
  <unicode hex="0033"/>
  <outline>
    <contour>
      <point x="46" y="203" type="qcurve"/>
      <point x="189" y="203" type="line"/>
      <point x="189" y="169"/>
      <point x="211" y="121"/>
      <point x="253" y="96"/>
      <point x="283" y="96" type="qcurve" smooth="yes"/>
      <point x="330" y="96"/>
      <point x="384" y="160"/>
      <point x="384" y="216" type="qcurve" smooth="yes"/>
      <point x="384" y="254"/>
      <point x="355" y="300"/>
      <point x="291" y="321"/>
      <point x="237" y="321" type="qcurve" smooth="yes"/>
      <point x="219" y="321" type="line"/>
      <point x="219" y="431" type="line"/>
      <point x="236" y="431" type="line" smooth="yes"/>
      <point x="279" y="431"/>
      <point x="337" y="456"/>
      <point x="368" y="503"/>
      <point x="368" y="538" type="qcurve" smooth="yes"/>
      <point x="368" y="580"/>
      <point x="323" y="626"/>
      <point x="282" y="626" type="qcurve" smooth="yes"/>
      <point x="252" y="626"/>
      <point x="210" y="603"/>
      <point x="187" y="561"/>
      <point x="187" y="532" type="qcurve"/>
      <point x="47" y="532" type="line"/>
      <point x="47" y="595"/>
      <point x="107" y="687"/>
      <point x="218" y="736"/>
      <point x="295" y="736" type="qcurve" smooth="yes"/>
      <point x="358" y="736"/>
      <point x="454" y="688"/>
      <point x="508" y="603"/>
      <point x="508" y="547" type="qcurve" smooth="yes"/>
      <point x="508" y="491"/>
      <point x="451" y="412"/>
      <point x="398" y="396" type="qcurve"/>
      <point x="398" y="400" type="line"/>
      <point x="441" y="389"/>
      <point x="498" y="340"/>
      <point x="527" y="265"/>
      <point x="527" y="215" type="qcurve" smooth="yes"/>
      <point x="527" y="145"/>
      <point x="470" y="42"/>
      <point x="366" y="-14"/>
      <point x="294" y="-14" type="qcurve" smooth="yes"/>
      <point x="211" y="-14"/>
      <point x="100" y="34"/>
      <point x="46" y="130"/>
    </contour>
  </outline>
</glyph>
<glyph name="four" format="2">
  <advance width="573.0"/>
  <unicode hex="0034"/>
  <outline>
    <contour>
      <point x="22" y="158" type="line"/>
      <point x="22" y="288" type="line"/>
      <point x="287" y="722" type="line"/>
      <point x="462" y="722" type="line"/>
      <point x="462" y="0" type="line"/>
      <point x="327" y="0" type="line"/>
      <point x="327" y="602" type="line"/>
      <point x="333" y="600" type="line"/>
      <point x="139" y="263" type="line"/>
      <point x="133" y="274" type="line"/>
      <point x="342" y="274" type="line"/>
      <point x="342" y="158" type="line"/>
    </contour>
    <contour>
      <point x="447" y="158" type="line"/>
      <point x="447" y="274" type="line"/>
      <point x="552" y="274" type="line"/>
      <point x="552" y="158" type="line"/>
    </contour>
  </outline>
</glyph>
<glyph name="five" format="2">
  <advance width="573.0"/>
  <unicode hex="0035"/>
  <outline>
    <contour>
      <point x="39" y="184" type="qcurve"/>
      <point x="175" y="184" type="line"/>
      <point x="175" y="141"/>
      <point x="228" y="96"/>
      <point x="272" y="96" type="qcurve" smooth="yes"/>
      <point x="316" y="96"/>
      <point x="371" y="137"/>
      <point x="396" y="206"/>
      <point x="396" y="247" type="qcurve" smooth="yes"/>
      <point x="396" y="308"/>
      <point x="343" y="389"/>
      <point x="289" y="389" type="qcurve" smooth="yes"/>
      <point x="250" y="389"/>
      <point x="193" y="346"/>
      <point x="178" y="312" type="qcurve"/>
      <point x="49" y="312" type="line"/>
      <point x="49" y="722" type="line"/>
      <point x="475" y="722" type="line"/>
      <point x="475" y="606" type="line"/>
      <point x="176" y="606" type="line"/>
      <point x="189" y="618" type="line"/>
      <point x="189" y="428" type="line"/>
      <point x="183" y="433" type="line"/>
      <point x="205" y="459"/>
      <point x="280" y="491"/>
      <point x="327" y="491" type="qcurve" smooth="yes"/>
      <point x="393" y="491"/>
      <point x="486" y="429"/>
      <point x="536" y="324"/>
      <point x="536" y="259" type="qcurve" smooth="yes"/>
      <point x="536" y="202"/>
      <point x="498" y="103"/>
      <point x="426" y="28"/>
      <point x="324" y="-14"/>
      <point x="261" y="-14" type="qcurve" smooth="yes"/>
      <point x="198" y="-14"/>
      <point x="101" y="30"/>
      <point x="43" y="119"/>
    </contour>
  </outline>
</glyph>
<glyph name="six" format="2">
  <advance width="573.0"/>
  <unicode hex="0036"/>
  <outline>
    <contour>
      <point x="195" y="227" type="qcurve" smooth="yes"/>
      <point x="195" y="172"/>
      <point x="241" y="93"/>
      <point x="295" y="93" type="qcurve" smooth="yes"/>
      <point x="349" y="93"/>
      <point x="394" y="171"/>
      <point x="394" y="226" type="qcurve" smooth="yes"/>
      <point x="394" y="282"/>
      <point x="349" y="360"/>
      <point x="295" y="360" type="qcurve" smooth="yes"/>
      <point x="241" y="360"/>
      <point x="195" y="282"/>
    </contour>
    <contour>
      <point x="33" y="333" type="qcurve" smooth="yes"/>
      <point x="33" y="412"/>
      <point x="64" y="557"/>
      <point x="131" y="670"/>
      <point x="238" y="735"/>
      <point x="314" y="735" type="qcurve" smooth="yes"/>
      <point x="380" y="735"/>
      <point x="475" y="685"/>
      <point x="527" y="598"/>
      <point x="527" y="542" type="qcurve"/>
      <point x="387" y="542" type="line"/>
      <point x="387" y="577"/>
      <point x="340" y="624"/>
      <point x="305" y="624" type="qcurve" smooth="yes"/>
      <point x="265" y="624"/>
      <point x="213" y="569"/>
      <point x="184" y="488"/>
      <point x="173" y="404"/>
      <point x="173" y="374" type="qcurve"/>
      <point x="201" y="418"/>
      <point x="289" y="461"/>
      <point x="338" y="461" type="qcurve" smooth="yes"/>
      <point x="401" y="461"/>
      <point x="491" y="399"/>
      <point x="540" y="296"/>
      <point x="540" y="234" type="qcurve" smooth="yes"/>
      <point x="540" y="163"/>
      <point x="477" y="50"/>
      <point x="362" y="-15"/>
      <point x="285" y="-15" type="qcurve" smooth="yes"/>
      <point x="211" y="-15"/>
      <point x="113" y="44"/>
      <point x="57" y="144"/>
      <point x="33" y="268"/>
    </contour>
  </outline>
</glyph>
<glyph name="seven" format="2">
  <advance width="573.0"/>
  <unicode hex="0037"/>
  <outline>
    <contour>
      <point x="118" y="0" type="line"/>
      <point x="400" y="618" type="line"/>
      <point x="407" y="607" type="line"/>
      <point x="45" y="607" type="line"/>
      <point x="45" y="722" type="line"/>
      <point x="529" y="722" type="line"/>
      <point x="529" y="582" type="line"/>
      <point x="284" y="0" type="line"/>
    </contour>
  </outline>
</glyph>
<glyph name="eight" format="2">
  <advance width="573.0"/>
  <unicode hex="0038"/>
  <outline>
    <contour>
      <point x="183" y="211" type="qcurve" smooth="yes"/>
      <point x="183" y="158"/>
      <point x="239" y="95"/>
      <point x="287" y="95" type="qcurve" smooth="yes"/>
      <point x="335" y="95"/>
      <point x="393" y="159"/>
      <point x="393" y="211" type="qcurve" smooth="yes"/>
      <point x="393" y="247"/>
      <point x="367" y="299"/>
      <point x="320" y="327"/>
      <point x="287" y="327" type="qcurve" smooth="yes"/>
      <point x="239" y="327"/>
      <point x="183" y="264"/>
    </contour>
    <contour>
      <point x="287" y="439" type="qcurve" smooth="yes"/>
      <point x="315" y="439"/>
      <point x="356" y="461"/>
      <point x="378" y="503"/>
      <point x="378" y="531" type="qcurve" smooth="yes"/>
      <point x="378" y="573"/>
      <point x="328" y="624"/>
      <point x="287" y="624" type="qcurve" smooth="yes"/>
      <point x="245" y="624"/>
      <point x="195" y="573"/>
      <point x="195" y="531" type="qcurve" smooth="yes"/>
      <point x="195" y="489"/>
      <point x="245" y="439"/>
    </contour>
    <contour>
      <point x="540" y="194" type="qcurve" smooth="yes"/>
      <point x="540" y="130"/>
      <point x="479" y="36"/>
      <point x="367" y="-14"/>
      <point x="288" y="-14" type="qcurve" smooth="yes"/>
      <point x="170" y="-14"/>
      <point x="36" y="98"/>
      <point x="36" y="197" type="qcurve" smooth="yes"/>
      <point x="36" y="268"/>
      <point x="110" y="364"/>
      <point x="184" y="388" type="qcurve"/>
      <point x="118" y="407"/>
      <point x="48" y="490"/>
      <point x="48" y="550" type="qcurve" smooth="yes"/>
      <point x="48" y="607"/>
      <point x="107" y="690"/>
      <point x="216" y="736"/>
      <point x="289" y="736" type="qcurve" smooth="yes"/>
      <point x="362" y="736"/>
      <point x="467" y="691"/>
      <point x="525" y="609"/>
      <point x="525" y="553" type="qcurve" smooth="yes"/>
      <point x="525" y="490"/>
      <point x="450" y="404"/>
      <point x="382" y="388" type="qcurve"/>
      <point x="459" y="369"/>
      <point x="540" y="269"/>
    </contour>
  </outline>
</glyph>
<glyph name="nine" format="2">
  <advance width="573.0"/>
  <unicode hex="0039"/>
  <outline>
    <contour>
      <point x="278" y="357" type="qcurve" smooth="yes"/>
      <point x="305" y="357"/>
      <point x="342" y="378"/>
      <point x="366" y="415"/>
      <point x="377" y="463"/>
      <point x="377" y="491" type="qcurve" smooth="yes"/>
      <point x="377" y="547"/>
      <point x="331" y="624"/>
      <point x="278" y="624" type="qcurve" smooth="yes"/>
      <point x="225" y="624"/>
      <point x="179" y="547"/>
      <point x="179" y="491" type="qcurve" smooth="yes"/>
      <point x="179" y="436"/>
      <point x="225" y="357"/>
    </contour>
    <contour>
      <point x="187" y="180" type="line"/>
      <point x="187" y="144"/>
      <point x="234" y="93"/>
      <point x="275" y="93" type="qcurve" smooth="yes"/>
      <point x="307" y="93"/>
      <point x="352" y="125"/>
      <point x="380" y="179"/>
      <point x="395" y="244"/>
      <point x="400" y="313"/>
      <point x="400" y="343" type="qcurve"/>
      <point x="384" y="318"/>
      <point x="332" y="279"/>
      <point x="269" y="257"/>
      <point x="233" y="257" type="qcurve" smooth="yes"/>
      <point x="171" y="257"/>
      <point x="82" y="321"/>
      <point x="34" y="425"/>
      <point x="34" y="485" type="qcurve" smooth="yes"/>
      <point x="34" y="556"/>
      <point x="98" y="670"/>
      <point x="214" y="736"/>
      <point x="291" y="736" type="qcurve" smooth="yes"/>
      <point x="365" y="736"/>
      <point x="461" y="677"/>
      <point x="517" y="578"/>
      <point x="540" y="456"/>
      <point x="540" y="393" type="qcurve" smooth="yes"/>
      <point x="540" y="312"/>
      <point x="512" y="165"/>
      <point x="448" y="52"/>
      <point x="344" y="-14"/>
      <point x="268" y="-14" type="qcurve" smooth="yes"/>
      <point x="202" y="-14"/>
      <point x="102" y="36"/>
      <point x="47" y="124"/>
      <point x="47" y="180" type="qcurve"/>
    </contour>
  </outline>
</glyph>
<glyph name="colon" format="2">
  <advance width="216.0"/>
  <unicode hex="003A"/>
  <outline>
    <contour>
      <point x="40" y="0" type="line"/>
      <point x="40" y="142" type="line"/>
      <point x="176" y="142" type="line"/>
      <point x="176" y="0" type="line"/>
    </contour>
    <contour>
      <point x="40" y="368" type="line"/>
      <point x="40" y="510" type="line"/>
      <point x="176" y="510" type="line"/>
      <point x="176" y="368" type="line"/>
    </contour>
  </outline>
</glyph>
<glyph name="semicolon" format="2">
  <advance width="310.0"/>
  <unicode hex="003B"/>
  <outline>
    <contour>
      <point x="10" y="-129" type="line"/>
      <point x="89" y="123" type="line"/>
      <point x="225" y="123" type="line"/>
      <point x="105" y="-129" type="line"/>
    </contour>
    <contour>
      <point x="88" y="368" type="line"/>
      <point x="88" y="510" type="line"/>
      <point x="224" y="510" type="line"/>
      <point x="224" y="368" type="line"/>
    </contour>
  </outline>
</glyph>
<glyph name="less" format="2">
  <advance width="720.0"/>
  <unicode hex="003C"/>
  <outline>
    <contour>
      <point x="30" y="209" type="line"/>
      <point x="30" y="391" type="line"/>
      <point x="690" y="621" type="line"/>
      <point x="690" y="499" type="line"/>
      <point x="143" y="296" type="line"/>
      <point x="143" y="304" type="line"/>
      <point x="690" y="101" type="line"/>
      <point x="690" y="-21" type="line"/>
    </contour>
  </outline>
</glyph>
<glyph name="equal" format="2">
  <advance width="1000.0"/>
  <unicode hex="003D"/>
  <outline>
    <contour>
      <point x="200" y="360" type="line"/>
      <point x="200" y="482" type="line"/>
      <point x="800" y="482" type="line"/>
      <point x="800" y="360" type="line"/>
    </contour>
    <contour>
      <point x="200" y="118" type="line"/>
      <point x="200" y="240" type="line"/>
      <point x="800" y="240" type="line"/>
      <point x="800" y="118" type="line"/>
    </contour>
  </outline>
</glyph>
<glyph name="greater" format="2">
  <advance width="720.0"/>
  <unicode hex="003E"/>
  <outline>
    <contour>
      <point x="690" y="209" type="line"/>
      <point x="30" y="-21" type="line"/>
      <point x="30" y="101" type="line"/>
      <point x="577" y="304" type="line"/>
      <point x="577" y="296" type="line"/>
      <point x="30" y="499" type="line"/>
      <point x="30" y="621" type="line"/>
      <point x="690" y="391" type="line"/>
    </contour>
  </outline>
</glyph>
<glyph name="question" format="2">
  <advance width="539.0"/>
  <unicode hex="003F"/>
  <outline>
    <contour>
      <point x="163" y="0" type="line"/>
      <point x="163" y="142" type="line"/>
      <point x="299" y="142" type="line"/>
      <point x="299" y="0" type="line"/>
    </contour>
    <contour>
      <point x="341" y="548" type="qcurve" smooth="yes"/>
      <point x="341" y="588"/>
      <point x="289" y="632"/>
      <point x="247" y="632" type="qcurve" smooth="yes"/>
      <point x="217" y="632"/>
      <point x="171" y="609"/>
      <point x="134" y="564"/>
      <point x="116" y="532" type="qcurve"/>
      <point x="23" y="593" type="line"/>
      <point x="60" y="663"/>
      <point x="194" y="734"/>
      <point x="270" y="734" type="qcurve" smooth="yes"/>
      <point x="328" y="734"/>
      <point x="424" y="695"/>
      <point x="482" y="617"/>
      <point x="482" y="560" type="qcurve" smooth="yes"/>
      <point x="482" y="506"/>
      <point x="456" y="443"/>
      <point x="414" y="406"/>
      <point x="368" y="380"/>
      <point x="326" y="351"/>
      <point x="300" y="303"/>
      <point x="300" y="261" type="qcurve" smooth="yes"/>
      <point x="300" y="211" type="line"/>
      <point x="164" y="211" type="line"/>
      <point x="164" y="276" type="line" smooth="yes"/>
      <point x="164" y="316"/>
      <point x="190" y="366"/>
      <point x="230" y="398"/>
      <point x="275" y="425"/>
      <point x="315" y="457"/>
      <point x="341" y="508"/>
    </contour>
  </outline>
</glyph>
<glyph name="at" format="2">
  <advance width="1039.0"/>
  <unicode hex="0040"/>
  <outline>
    <contour>
      <point x="512" y="115" type="qcurve" smooth="yes"/>
      <point x="539" y="115"/>
      <point x="577" y="141"/>
      <point x="602" y="184"/>
      <point x="614" y="239"/>
      <point x="614" y="268" type="qcurve" smooth="yes"/>
      <point x="614" y="299"/>
      <point x="598" y="361"/>
      <point x="558" y="402"/>
      <point x="522" y="402" type="qcurve" smooth="yes"/>
      <point x="483" y="402"/>
      <point x="436" y="354"/>
      <point x="415" y="285"/>
      <point x="415" y="252" type="qcurve" smooth="yes"/>
      <point x="415" y="219"/>
      <point x="436" y="156"/>
      <point x="479" y="115"/>
    </contour>
    <contour>
      <point x="763" y="-196" type="line"/>
      <point x="730" y="-202"/>
      <point x="651" y="-209"/>
      <point x="578" y="-213"/>
      <point x="553" y="-213" type="qcurve" smooth="yes"/>
      <point x="441" y="-213"/>
      <point x="254" y="-148"/>
      <point x="117" y="-26"/>
      <point x="42" y="146"/>
      <point x="42" y="253" type="qcurve" smooth="yes"/>
      <point x="42" y="363"/>
      <point x="119" y="540"/>
      <point x="257" y="667"/>
      <point x="438" y="734"/>
      <point x="541" y="734" type="qcurve" smooth="yes"/>
      <point x="637" y="734"/>
      <point x="804" y="675"/>
      <point x="929" y="563"/>
      <point x="1000" y="402"/>
      <point x="1000" y="300" type="qcurve" smooth="yes"/>
      <point x="1000" y="250"/>
      <point x="979" y="147"/>
      <point x="931" y="59"/>
      <point x="847" y="6"/>
      <point x="784" y="6" type="qcurve" smooth="yes"/>
      <point x="734" y="6"/>
      <point x="662" y="45"/>
      <point x="639" y="87" type="qcurve"/>
      <point x="623" y="66"/>
      <point x="575" y="31"/>
      <point x="520" y="10"/>
      <point x="493" y="10" type="qcurve" smooth="yes"/>
      <point x="427" y="10"/>
      <point x="329" y="80"/>
      <point x="275" y="195"/>
      <point x="275" y="262" type="qcurve" smooth="yes"/>
      <point x="275" y="307"/>
      <point x="300" y="394"/>
      <point x="351" y="465"/>
      <point x="426" y="507"/>
      <point x="475" y="507" type="qcurve" smooth="yes"/>
      <point x="507" y="507"/>
      <point x="559" y="490"/>
      <point x="602" y="460"/>
      <point x="618" y="440" type="qcurve"/>
      <point x="618" y="491" type="line"/>
      <point x="754" y="491" type="line"/>
      <point x="754" y="186" type="line" smooth="yes"/>
      <point x="754" y="171"/>
      <point x="762" y="133"/>
      <point x="781" y="105"/>
      <point x="796" y="105" type="qcurve" smooth="yes"/>
      <point x="815" y="105"/>
      <point x="841" y="145"/>
      <point x="857" y="202"/>
      <point x="864" y="256"/>
      <point x="864" y="270" type="qcurve" smooth="yes"/>
      <point x="864" y="374"/>
      <point x="790" y="530"/>
      <point x="645" y="618"/>
      <point x="537" y="618" type="qcurve" smooth="yes"/>
      <point x="459" y="618"/>
      <point x="329" y="560"/>
      <point x="234" y="457"/>
      <point x="182" y="322"/>
      <point x="182" y="245" type="qcurve" smooth="yes"/>
      <point x="182" y="139"/>
      <point x="278" y="-13"/>
      <point x="447" y="-94"/>
      <point x="554" y="-94" type="qcurve" smooth="yes"/>
      <point x="590" y="-94"/>
      <point x="660" y="-88"/>
      <point x="730" y="-74"/>
      <point x="763" y="-63" type="qcurve"/>
    </contour>
  </outline>
</glyph>
<glyph name="A" format="2">
  <advance width="710.0"/>
  <unicode hex="0041"/>
  <outline>
    <contour>
      <point x="10" y="0" type="line"/>
      <point x="281" y="722" type="line"/>
      <point x="430" y="722" type="line"/>
      <point x="700" y="0" type="line"/>
      <point x="555" y="0" type="line"/>
      <point x="350" y="578" type="line"/>
      <point x="360" y="578" type="line"/>
      <point x="155" y="0" type="line"/>
    </contour>
    <contour>
      <point x="488" y="269" type="line"/>
      <point x="530" y="154" type="line"/>
      <point x="185" y="154" type="line"/>
      <point x="227" y="269" type="line"/>
    </contour>
  </outline>
</glyph>
<glyph name="B" format="2">
  <advance width="663.0"/>
  <unicode hex="0042"/>
  <outline>
    <contour>
      <point x="195" y="0" type="line"/>
      <point x="195" y="115" type="line"/>
      <point x="315" y="115" type="line" smooth="yes"/>
      <point x="388" y="115"/>
      <point x="459" y="162"/>
      <point x="459" y="209" type="qcurve" smooth="yes"/>
      <point x="459" y="241"/>
      <point x="429" y="287"/>
      <point x="374" y="313"/>
      <point x="336" y="313" type="qcurve" smooth="yes"/>
      <point x="195" y="313" type="line"/>
      <point x="195" y="427" type="line"/>
      <point x="305" y="427" type="line" smooth="yes"/>
      <point x="360" y="427"/>
      <point x="425" y="475"/>
      <point x="425" y="515" type="qcurve" smooth="yes"/>
      <point x="425" y="558"/>
      <point x="367" y="607"/>
      <point x="316" y="607" type="qcurve" smooth="yes"/>
      <point x="195" y="607" type="line"/>
      <point x="195" y="722" type="line"/>
      <point x="357" y="722" type="line" smooth="yes"/>
      <point x="462" y="722"/>
      <point x="575" y="633"/>
      <point x="575" y="552" type="qcurve" smooth="yes"/>
      <point x="575" y="491"/>
      <point x="518" y="399"/>
      <point x="454" y="377" type="qcurve"/>
      <point x="454" y="373" type="line"/>
      <point x="535" y="356"/>
      <point x="609" y="268"/>
      <point x="609" y="189" type="qcurve" smooth="yes"/>
      <point x="609" y="132"/>
      <point x="550" y="47"/>
      <point x="442" y="0"/>
      <point x="367" y="0" type="qcurve" smooth="yes"/>
    </contour>
    <contour>
      <point x="60" y="0" type="line"/>
      <point x="60" y="722" type="line"/>
      <point x="210" y="722" type="line"/>
      <point x="210" y="0" type="line"/>
    </contour>
  </outline>
</glyph>
<glyph name="C" format="2">
  <advance width="727.0"/>
  <unicode hex="0043"/>
  <outline>
    <contour>
      <point x="36" y="361" type="qcurve" smooth="yes"/>
      <point x="36" y="470"/>
      <point x="111" y="639"/>
      <point x="263" y="736"/>
      <point x="378" y="736" type="qcurve" smooth="yes"/>
      <point x="459" y="736"/>
      <point x="584" y="675"/>
      <point x="659" y="566"/>
      <point x="664" y="493" type="qcurve"/>
      <point x="519" y="493" type="line"/>
      <point x="513" y="532"/>
      <point x="470" y="590"/>
      <point x="402" y="622"/>
      <point x="360" y="622" type="qcurve" smooth="yes"/>
      <point x="299" y="622"/>
      <point x="223" y="562"/>
      <point x="187" y="446"/>
      <point x="187" y="361" type="qcurve" smooth="yes"/>
      <point x="187" y="277"/>
      <point x="223" y="160"/>
      <point x="300" y="100"/>
      <point x="363" y="100" type="qcurve" smooth="yes"/>
      <point x="424" y="100"/>
      <point x="508" y="179"/>
      <point x="516" y="244" type="qcurve"/>
      <point x="667" y="244" type="line"/>
      <point x="661" y="167"/>
      <point x="584" y="50"/>
      <point x="453" y="-14"/>
      <point x="366" y="-14" type="qcurve" smooth="yes"/>
      <point x="257" y="-14"/>
      <point x="110" y="83"/>
      <point x="36" y="252"/>
    </contour>
  </outline>
</glyph>
<glyph name="D" format="2">
  <advance width="718.0"/>
  <unicode hex="0044"/>
  <outline>
    <contour>
      <point x="128" y="0" type="line"/>
      <point x="128" y="114" type="line"/>
      <point x="349" y="114" type="line" smooth="yes"/>
      <point x="406" y="114"/>
      <point x="479" y="166"/>
      <point x="514" y="274"/>
      <point x="514" y="359" type="qcurve" smooth="yes"/>
      <point x="514" y="445"/>
      <point x="479" y="554"/>
      <point x="406" y="607"/>
      <point x="349" y="607" type="qcurve" smooth="yes"/>
      <point x="128" y="607" type="line"/>
      <point x="128" y="722" type="line"/>
      <point x="389" y="722" type="line" smooth="yes"/>
      <point x="471" y="722"/>
      <point x="595" y="638"/>
      <point x="664" y="477"/>
      <point x="664" y="359" type="qcurve" smooth="yes"/>
      <point x="664" y="243"/>
      <point x="595" y="83"/>
      <point x="471" y="0"/>
      <point x="389" y="0" type="qcurve" smooth="yes"/>
    </contour>
    <contour>
      <point x="60" y="0" type="line"/>
      <point x="60" y="722" type="line"/>
      <point x="210" y="722" type="line"/>
      <point x="210" y="0" type="line"/>
    </contour>
  </outline>
</glyph>
<glyph name="E" format="2">
  <advance width="616.0"/>
  <unicode hex="0045"/>
  <outline>
    <contour>
      <point x="190" y="116" type="line"/>
      <point x="547" y="116" type="line"/>
      <point x="547" y="0" type="line"/>
      <point x="190" y="0" type="line"/>
    </contour>
    <contour>
      <point x="190" y="431" type="line"/>
      <point x="517" y="431" type="line"/>
      <point x="517" y="315" type="line"/>
      <point x="190" y="315" type="line"/>
    </contour>
    <contour>
      <point x="190" y="722" type="line"/>
      <point x="537" y="722" type="line"/>
      <point x="537" y="606" type="line"/>
      <point x="190" y="606" type="line"/>
    </contour>
    <contour>
      <point x="60" y="0" type="line"/>
      <point x="60" y="722" type="line"/>
      <point x="210" y="722" type="line"/>
      <point x="210" y="0" type="line"/>
    </contour>
  </outline>
</glyph>
<glyph name="F" format="2">
  <advance width="583.0"/>
  <unicode hex="0046"/>
  <outline>
    <contour>
      <point x="200" y="431" type="line"/>
      <point x="527" y="431" type="line"/>
      <point x="527" y="315" type="line"/>
      <point x="200" y="315" type="line"/>
    </contour>
    <contour>
      <point x="200" y="722" type="line"/>
      <point x="547" y="722" type="line"/>
      <point x="547" y="606" type="line"/>
      <point x="200" y="606" type="line"/>
    </contour>
    <contour>
      <point x="70" y="0" type="line"/>
      <point x="70" y="722" type="line"/>
      <point x="220" y="722" type="line"/>
      <point x="220" y="0" type="line"/>
    </contour>
  </outline>
</glyph>
<glyph name="G" format="2">
  <advance width="774.0"/>
  <unicode hex="0047"/>
  <outline>
    <contour>
      <point x="36" y="361" type="qcurve" smooth="yes"/>
      <point x="36" y="477"/>
      <point x="119" y="645"/>
      <point x="272" y="736"/>
      <point x="378" y="736" type="qcurve" smooth="yes"/>
      <point x="467" y="736"/>
      <point x="597" y="676"/>
      <point x="670" y="568"/>
      <point x="675" y="495" type="qcurve"/>
      <point x="524" y="495" type="line"/>
      <point x="517" y="552"/>
      <point x="444" y="622"/>
      <point x="378" y="622" type="qcurve" smooth="yes"/>
      <point x="321" y="622"/>
      <point x="235" y="557"/>
      <point x="187" y="440"/>
      <point x="187" y="361" type="qcurve" smooth="yes"/>
      <point x="187" y="283"/>
      <point x="240" y="165"/>
      <point x="336" y="100"/>
      <point x="400" y="100" type="qcurve" smooth="yes"/>
      <point x="426" y="100"/>
      <point x="503" y="109"/>
      <point x="527" y="116" type="qcurve"/>
      <point x="527" y="268" type="line"/>
      <point x="397" y="268" type="line"/>
      <point x="397" y="384" type="line"/>
      <point x="677" y="384" type="line"/>
      <point x="677" y="31" type="line"/>
      <point x="630" y="18"/>
      <point x="524" y="-3"/>
      <point x="421" y="-14"/>
      <point x="378" y="-14" type="qcurve" smooth="yes"/>
      <point x="273" y="-14"/>
      <point x="119" y="77"/>
      <point x="36" y="246"/>
    </contour>
  </outline>
</glyph>
<glyph name="H" format="2">
  <advance width="705.0"/>
  <unicode hex="0048"/>
  <outline>
    <contour>
      <point x="180" y="436" type="line"/>
      <point x="525" y="436" type="line"/>
      <point x="525" y="320" type="line"/>
      <point x="180" y="320" type="line"/>
    </contour>
    <contour>
      <point x="60" y="0" type="line"/>
      <point x="60" y="722" type="line"/>
      <point x="210" y="722" type="line"/>
      <point x="210" y="0" type="line"/>
    </contour>
    <contour>
      <point x="495" y="0" type="line"/>
      <point x="495" y="722" type="line"/>
      <point x="645" y="722" type="line"/>
      <point x="645" y="0" type="line"/>
    </contour>
  </outline>
</glyph>
<glyph name="I" format="2">
  <advance width="290.0"/>
  <unicode hex="0049"/>
  <outline>
    <contour>
      <point x="70" y="0" type="line"/>
      <point x="70" y="722" type="line"/>
      <point x="220" y="722" type="line"/>
      <point x="220" y="0" type="line"/>
    </contour>
  </outline>
</glyph>
<glyph name="J" format="2">
  <advance width="581.0"/>
  <unicode hex="004A"/>
  <outline>
    <contour>
      <point x="10" y="227" type="qcurve"/>
      <point x="160" y="227" type="line"/>
      <point x="160" y="164"/>
      <point x="206" y="100"/>
      <point x="252" y="100" type="qcurve" smooth="yes"/>
      <point x="314" y="100"/>
      <point x="362" y="158"/>
      <point x="362" y="222" type="qcurve" smooth="yes"/>
      <point x="362" y="723" type="line"/>
      <point x="512" y="723" type="line"/>
      <point x="512" y="213" type="line" smooth="yes"/>
      <point x="512" y="142"/>
      <point x="444" y="40"/>
      <point x="328" y="-14"/>
      <point x="256" y="-14" type="qcurve" smooth="yes"/>
      <point x="174" y="-14"/>
      <point x="64" y="41"/>
      <point x="10" y="149"/>
    </contour>
  </outline>
</glyph>
<glyph name="K" format="2">
  <advance width="670.0"/>
  <unicode hex="004B"/>
  <outline>
    <contour>
      <point x="202" y="389" type="line"/>
      <point x="460" y="722" type="line"/>
      <point x="630" y="722" type="line"/>
      <point x="355" y="372" type="line"/>
      <point x="355" y="429" type="line"/>
      <point x="660" y="0" type="line"/>
      <point x="480" y="0" type="line"/>
    </contour>
    <contour>
      <point x="70" y="0" type="line"/>
      <point x="70" y="722" type="line"/>
      <point x="220" y="722" type="line"/>
      <point x="220" y="0" type="line"/>
    </contour>
  </outline>
</glyph>
<glyph name="L" format="2">
  <advance width="570.0"/>
  <unicode hex="004C"/>
  <outline>
    <contour>
      <point x="220" y="115" type="line"/>
      <point x="557" y="115" type="line"/>
      <point x="557" y="0" type="line"/>
      <point x="220" y="0" type="line"/>
    </contour>
    <contour>
      <point x="70" y="0" type="line"/>
      <point x="70" y="722" type="line"/>
      <point x="220" y="722" type="line"/>
      <point x="220" y="0" type="line"/>
    </contour>
  </outline>
</glyph>
<glyph name="M" format="2">
  <advance width="890.0"/>
  <unicode hex="004D"/>
  <outline>
    <contour>
      <point x="60" y="0" type="line"/>
      <point x="60" y="722" type="line"/>
      <point x="210" y="722" type="line"/>
      <point x="210" y="0" type="line"/>
    </contour>
    <contour>
      <point x="680" y="0" type="line"/>
      <point x="680" y="722" type="line"/>
      <point x="830" y="722" type="line"/>
      <point x="830" y="0" type="line"/>
    </contour>
    <contour>
      <point x="383" y="0" type="line"/>
      <point x="150" y="722" type="line"/>
      <point x="287" y="722" type="line"/>
      <point x="459" y="186" type="line"/>
      <point x="451" y="186" type="line"/>
      <point x="602" y="722" type="line"/>
      <point x="740" y="722" type="line"/>
      <point x="527" y="0" type="line"/>
    </contour>
  </outline>
</glyph>
<glyph name="N" format="2">
  <advance width="767.0"/>
  <unicode hex="004E"/>
  <outline>
    <contour>
      <point x="140" y="722" type="line"/>
      <point x="280" y="722" type="line"/>
      <point x="628" y="0" type="line"/>
      <point x="488" y="0" type="line"/>
    </contour>
    <contour>
      <point x="210" y="722" type="line"/>
      <point x="210" y="0" type="line"/>
      <point x="70" y="0" type="line"/>
      <point x="70" y="722" type="line"/>
    </contour>
    <contour>
      <point x="558" y="0" type="line"/>
      <point x="558" y="722" type="line"/>
      <point x="698" y="722" type="line"/>
      <point x="698" y="0" type="line"/>
    </contour>
  </outline>
</glyph>
<glyph name="O" format="2">
  <advance width="776.0"/>
  <unicode hex="004F"/>
  <outline>
    <contour>
      <point x="46" y="361" type="qcurve" smooth="yes"/>
      <point x="46" y="479"/>
      <point x="128" y="646"/>
      <point x="281.49397590361446" y="736"/>
      <point x="388" y="736" type="qcurve" smooth="yes"/>
      <point x="494.50602409638554" y="736"/>
      <point x="648" y="646"/>
      <point x="730" y="479"/>
      <point x="730" y="361" type="qcurve" smooth="yes"/>
      <point x="730" y="243"/>
      <point x="648" y="76"/>
      <point x="494.50602409638554" y="-14"/>
      <point x="388" y="-14" type="qcurve" smooth="yes"/>
      <point x="281.49397590361446" y="-14"/>
      <point x="128" y="76"/>
      <point x="46" y="243"/>
    </contour>
    <contour>
      <point x="202" y="361" type="qcurve" smooth="yes"/>
      <point x="202" y="227"/>
      <point x="291" y="102"/>
      <point x="388" y="102" type="qcurve" smooth="yes"/>
      <point x="485" y="102"/>
      <point x="574" y="227"/>
      <point x="574" y="361" type="qcurve" smooth="yes"/>
      <point x="574" y="495"/>
      <point x="485" y="620"/>
      <point x="388" y="620" type="qcurve" smooth="yes"/>
      <point x="291" y="620"/>
      <point x="202" y="495"/>
    </contour>
  </outline>
</glyph>
<glyph name="P" format="2">
  <advance width="633.0"/>
  <unicode hex="0050"/>
  <outline>
    <contour>
      <point x="155" y="606" type="line"/>
      <point x="155" y="721" type="line"/>
      <point x="345" y="721" type="line" smooth="yes"/>
      <point x="418.4578313253012" y="721"/>
      <point x="527" y="667"/>
      <point x="587" y="568.1794871794872"/>
      <point x="587" y="503" type="qcurve" smooth="yes"/>
      <point x="587" y="434"/>
      <point x="527" y="331"/>
      <point x="418.4578313253012" y="273"/>
      <point x="345" y="273" type="qcurve" smooth="yes"/>
      <point x="155" y="273" type="line"/>
      <point x="155" y="388" type="line"/>
      <point x="312" y="388" type="line" smooth="yes"/>
      <point x="349.01020408163265" y="388"/>
      <point x="405" y="415"/>
      <point x="436" y="464"/>
      <point x="436" y="496.05479452054794" type="qcurve" smooth="yes"/>
      <point x="436" y="529"/>
      <point x="404.76335877862596" y="578.8235294117648"/>
      <point x="348.91603053435114" y="606"/>
      <point x="312" y="606" type="qcurve" smooth="yes"/>
    </contour>
    <contour>
      <point x="60" y="0" type="line"/>
      <point x="60" y="721" type="line"/>
      <point x="205" y="721" type="line"/>
      <point x="205" y="0" type="line"/>
    </contour>
  </outline>
</glyph>
<glyph name="Q" format="2">
  <advance width="800.0"/>
  <unicode hex="0051"/>
  <outline>
    <contour>
      <point x="596" y="86" type="line"/>
      <point x="612" y="91"/>
      <point x="647" y="99"/>
      <point x="684" y="106"/>
      <point x="721" y="111"/>
      <point x="760" y="114"/>
      <point x="780" y="115" type="qcurve"/>
      <point x="780" y="0" type="line"/>
      <point x="579" y="0" type="line" smooth="yes"/>
      <point x="561" y="0"/>
      <point x="525" y="-1"/>
      <point x="492" y="-3"/>
      <point x="467" y="-6"/>
      <point x="461" y="-7" type="qcurve" smooth="yes"/>
      <point x="444" y="-10" type="line"/>
    </contour>
    <contour>
      <point x="46" y="361" type="qcurve" smooth="yes"/>
      <point x="46" y="479"/>
      <point x="128" y="646"/>
      <point x="281" y="736"/>
      <point x="388" y="736" type="qcurve" smooth="yes"/>
      <point x="495" y="736"/>
      <point x="648" y="646"/>
      <point x="730" y="479"/>
      <point x="730" y="361" type="qcurve" smooth="yes"/>
      <point x="730" y="243"/>
      <point x="648" y="76"/>
      <point x="495" y="-14"/>
      <point x="388" y="-14" type="qcurve" smooth="yes"/>
      <point x="281" y="-14"/>
      <point x="128" y="76"/>
      <point x="46" y="243"/>
    </contour>
    <contour>
      <point x="202" y="361" type="qcurve" smooth="yes"/>
      <point x="202" y="227"/>
      <point x="291" y="102"/>
      <point x="388" y="102" type="qcurve" smooth="yes"/>
      <point x="485" y="102"/>
      <point x="574" y="227"/>
      <point x="574" y="361" type="qcurve" smooth="yes"/>
      <point x="574" y="495"/>
      <point x="485" y="620"/>
      <point x="388" y="620" type="qcurve" smooth="yes"/>
      <point x="291" y="620"/>
      <point x="202" y="495"/>
    </contour>
  </outline>
</glyph>
<glyph name="R" format="2">
  <advance width="682.0"/>
  <unicode hex="0052"/>
  <outline>
    <contour>
      <point x="60" y="608" type="line"/>
      <point x="60" y="723" type="line"/>
      <point x="340" y="723" type="line" smooth="yes"/>
      <point x="391" y="723"/>
      <point x="489" y="707"/>
      <point x="570" y="666"/>
      <point x="618" y="590"/>
      <point x="618" y="529" type="qcurve" smooth="yes"/>
      <point x="618" y="462"/>
      <point x="534" y="373"/>
      <point x="463" y="357" type="qcurve"/>
      <point x="463" y="361" type="line"/>
      <point x="504" y="351"/>
      <point x="555" y="327"/>
      <point x="583" y="279"/>
      <point x="590" y="233" type="qcurve" smooth="yes"/>
      <point x="607" y="121" type="line" smooth="yes"/>
      <point x="612" y="88"/>
      <point x="626" y="28"/>
      <point x="636" y="0" type="qcurve"/>
      <point x="482" y="0" type="line"/>
      <point x="474" y="22"/>
      <point x="460" y="95"/>
      <point x="458" y="128" type="qcurve" smooth="yes"/>
      <point x="456" y="155" type="line" smooth="yes"/>
      <point x="453" y="194"/>
      <point x="433" y="257"/>
      <point x="385" y="295"/>
      <point x="340" y="295" type="qcurve" smooth="yes"/>
      <point x="195" y="295" type="line"/>
      <point x="195" y="410" type="line"/>
      <point x="330" y="410" type="line" smooth="yes"/>
      <point x="392" y="410"/>
      <point x="468" y="463"/>
      <point x="468" y="507" type="qcurve" smooth="yes"/>
      <point x="468" y="540"/>
      <point x="440" y="585"/>
      <point x="383" y="608"/>
      <point x="340" y="608" type="qcurve" smooth="yes"/>
    </contour>
    <contour>
      <point x="60" y="0" type="line"/>
      <point x="60" y="722" type="line"/>
      <point x="210" y="722" type="line"/>
      <point x="210" y="0" type="line"/>
    </contour>
  </outline>
</glyph>
<glyph name="S" format="2">
  <advance width="664.0"/>
  <unicode hex="0053"/>
  <outline>
    <contour>
      <point x="46" y="230" type="qcurve"/>
      <point x="196" y="230" type="line"/>
      <point x="196" y="185"/>
      <point x="224" y="129"/>
      <point x="286" y="103"/>
      <point x="337" y="103" type="qcurve" smooth="yes"/>
      <point x="395" y="103"/>
      <point x="471" y="155"/>
      <point x="471" y="198" type="qcurve" smooth="yes"/>
      <point x="471" y="224"/>
      <point x="440" y="264"/>
      <point x="370" y="296"/>
      <point x="313" y="308" type="qcurve" smooth="yes"/>
      <point x="228" y="326"/>
      <point x="119" y="395"/>
      <point x="66" y="485"/>
      <point x="66" y="533" type="qcurve" smooth="yes"/>
      <point x="66" y="598"/>
      <point x="130" y="690"/>
      <point x="252" y="737"/>
      <point x="340" y="737" type="qcurve" smooth="yes"/>
      <point x="461" y="737"/>
      <point x="596" y="622"/>
      <point x="596" y="520" type="qcurve"/>
      <point x="446" y="520" type="line"/>
      <point x="446" y="568"/>
      <point x="385" y="628"/>
      <point x="335" y="628" type="qcurve" smooth="yes"/>
      <point x="296" y="628"/>
      <point x="243" y="609"/>
      <point x="216" y="572"/>
      <point x="216" y="546" type="qcurve" smooth="yes"/>
      <point x="216" y="518"/>
      <point x="247" y="471"/>
      <point x="308" y="437"/>
      <point x="353" y="428" type="qcurve" smooth="yes"/>
      <point x="429" y="412"/>
      <point x="531" y="375"/>
      <point x="592" y="326"/>
      <point x="618" y="260"/>
      <point x="618" y="214" type="qcurve" smooth="yes"/>
      <point x="618" y="148"/>
      <point x="545" y="46"/>
      <point x="417" y="-12"/>
      <point x="332" y="-12" type="qcurve" smooth="yes"/>
      <point x="246" y="-12"/>
      <point x="117" y="48"/>
      <point x="46" y="157"/>
    </contour>
  </outline>
</glyph>
<glyph name="T" format="2">
  <advance width="596.0"/>
  <unicode hex="0054"/>
  <outline>
    <contour>
      <point x="586" y="607" type="line"/>
      <point x="373" y="607" type="line"/>
      <point x="373" y="0" type="line"/>
      <point x="223" y="0" type="line"/>
      <point x="223" y="607" type="line"/>
      <point x="10" y="607" type="line"/>
      <point x="10" y="722" type="line"/>
      <point x="586" y="722" type="line"/>
    </contour>
  </outline>
</glyph>
<glyph name="U" format="2">
  <advance width="732.0"/>
  <unicode hex="0055"/>
  <outline>
    <contour>
      <point x="60" y="299" type="qcurve" smooth="yes"/>
      <point x="60" y="722" type="line"/>
      <point x="205" y="722" type="line"/>
      <point x="205" y="299" type="line" smooth="yes"/>
      <point x="205" y="233"/>
      <point x="242" y="145"/>
      <point x="314" y="101"/>
      <point x="366" y="101" type="qcurve" smooth="yes"/>
      <point x="420" y="101"/>
      <point x="491" y="145"/>
      <point x="527" y="233"/>
      <point x="527" y="299" type="qcurve" smooth="yes"/>
      <point x="527" y="722" type="line"/>
      <point x="672" y="722" type="line"/>
      <point x="672" y="299" type="line" smooth="yes"/>
      <point x="672" y="203"/>
      <point x="599" y="63"/>
      <point x="460" y="-13"/>
      <point x="361" y="-13" type="qcurve" smooth="yes"/>
      <point x="261" y="-13"/>
      <point x="127" y="65"/>
      <point x="60" y="206"/>
    </contour>
  </outline>
</glyph>
<glyph name="V" format="2">
  <advance width="738.0"/>
  <unicode hex="0056"/>
  <outline>
    <contour>
      <point x="728" y="722" type="line"/>
      <point x="453" y="0" type="line"/>
      <point x="275" y="0" type="line"/>
      <point x="10" y="722" type="line"/>
      <point x="170" y="722" type="line"/>
      <point x="373" y="156" type="line"/>
      <point x="365" y="156" type="line"/>
      <point x="568" y="722" type="line"/>
    </contour>
  </outline>
</glyph>
<glyph name="W" format="2">
  <advance width="1000.0"/>
  <unicode hex="0057"/>
  <outline>
    <contour>
      <point x="990" y="722" type="line"/>
      <point x="810" y="0" type="line"/>
      <point x="640" y="0" type="line"/>
      <point x="497" y="553" type="line"/>
      <point x="503" y="553" type="line"/>
      <point x="360" y="0" type="line"/>
      <point x="190" y="0" type="line"/>
      <point x="10" y="722" type="line"/>
      <point x="170" y="722" type="line"/>
      <point x="282" y="168" type="line"/>
      <point x="277" y="168" type="line"/>
      <point x="421" y="722" type="line"/>
      <point x="579" y="722" type="line"/>
      <point x="723" y="168" type="line"/>
      <point x="718" y="168" type="line"/>
      <point x="830" y="722" type="line"/>
    </contour>
  </outline>
</glyph>
<glyph name="X" format="2">
  <advance width="692.0"/>
  <unicode hex="0058"/>
  <outline>
    <contour>
      <point x="513" y="0" type="line"/>
      <point x="25" y="722" type="line"/>
      <point x="195" y="722" type="line"/>
      <point x="683" y="0" type="line"/>
    </contour>
    <contour>
      <point x="270" y="388" type="line"/>
      <point x="342" y="287" type="line"/>
      <point x="160" y="0" type="line"/>
      <point x="10" y="0" type="line"/>
    </contour>
    <contour>
      <point x="420" y="364" type="line"/>
      <point x="347" y="466" type="line"/>
      <point x="508" y="722" type="line"/>
      <point x="663" y="722" type="line"/>
    </contour>
  </outline>
</glyph>
<glyph name="Y" format="2">
  <advance width="656.0"/>
  <unicode hex="0059"/>
  <outline>
    <contour>
      <point x="646" y="722" type="line"/>
      <point x="328" y="134" type="line"/>
      <point x="10" y="722" type="line"/>
      <point x="176" y="722" type="line"/>
      <point x="328" y="419" type="line"/>
      <point x="480" y="722" type="line"/>
    </contour>
    <contour>
      <point x="252" y="288" type="line"/>
      <point x="402" y="288" type="line"/>
      <point x="402" y="0" type="line"/>
      <point x="252" y="0" type="line"/>
    </contour>
  </outline>
</glyph>
<glyph name="Z" format="2">
  <advance width="632.0"/>
  <unicode hex="005A"/>
  <outline>
    <contour>
      <point x="588" y="0" type="line"/>
      <point x="45" y="0" type="line"/>
      <point x="45" y="125" type="line"/>
      <point x="407" y="607" type="line"/>
      <point x="67" y="607" type="line"/>
      <point x="67" y="722" type="line"/>
      <point x="580" y="722" type="line"/>
      <point x="580" y="597" type="line"/>
      <point x="218" y="115" type="line"/>
      <point x="588" y="115" type="line"/>
    </contour>
  </outline>
</glyph>
<glyph name="bracketleft" format="2">
  <advance width="390.0"/>
  <unicode hex="005B"/>
  <outline>
    <contour>
      <point x="308" y="-198" type="line"/>
      <point x="83" y="-198" type="line"/>
      <point x="83" y="722" type="line"/>
      <point x="308" y="722" type="line"/>
      <point x="308" y="632" type="line"/>
      <point x="203" y="632" type="line"/>
      <point x="203" y="-108" type="line"/>
      <point x="308" y="-108" type="line"/>
    </contour>
  </outline>
</glyph>
<glyph name="backslash" format="2">
  <advance width="395.0"/>
  <unicode hex="005C"/>
  <outline>
    <contour>
      <point x="385" y="-52" type="line"/>
      <point x="246" y="-52" type="line"/>
      <point x="10" y="736" type="line"/>
      <point x="149" y="736" type="line"/>
    </contour>
  </outline>
</glyph>
<glyph name="bracketright" format="2">
  <advance width="390.0"/>
  <unicode hex="005D"/>
  <outline>
    <contour>
      <point x="308" y="-198" type="line"/>
      <point x="83" y="-198" type="line"/>
      <point x="83" y="-108" type="line"/>
      <point x="188" y="-108" type="line"/>
      <point x="188" y="632" type="line"/>
      <point x="83" y="632" type="line"/>
      <point x="83" y="722" type="line"/>
      <point x="308" y="722" type="line"/>
    </contour>
  </outline>
</glyph>
<glyph name="asciicircum" format="2">
  <advance width="678.0"/>
  <unicode hex="005E"/>
  <outline>
    <contour>
      <point x="667" y="10" type="line"/>
      <point x="506" y="10" type="line"/>
      <point x="338" y="480" type="line"/>
      <point x="170" y="10" type="line"/>
      <point x="11" y="10" type="line"/>
      <point x="231" y="610" type="line"/>
      <point x="444" y="610" type="line"/>
    </contour>
  </outline>
</glyph>
<glyph name="underscore" format="2">
  <advance width="500.0"/>
  <unicode hex="005F"/>
  <outline>
    <contour>
      <point x="500" y="-180" type="line"/>
      <point x="0" y="-180" type="line"/>
      <point x="0" y="-64" type="line"/>
      <point x="500" y="-64" type="line"/>
    </contour>
  </outline>
</glyph>
<glyph name="grave" format="2">
  <advance width="250.0"/>
  <unicode hex="0060"/>
  <outline>
    <contour>
      <point x="230" y="580" type="line"/>
      <point x="130" y="580" type="line"/>
      <point x="20" y="730" type="line"/>
      <point x="150" y="730" type="line"/>
    </contour>
  </outline>
</glyph>
<glyph name="a" format="2">
  <advance width="554.0"/>
  <unicode hex="0061"/>
  <outline>
    <contour>
      <point x="44" y="139" type="qcurve" smooth="yes"/>
      <point x="44" y="229"/>
      <point x="168" y="309"/>
      <point x="283" y="309" type="qcurve" smooth="yes"/>
      <point x="312" y="309"/>
      <point x="358" y="306"/>
      <point x="392" y="301" type="qcurve"/>
      <point x="396" y="223" type="line"/>
      <point x="379" y="226"/>
      <point x="351" y="229"/>
      <point x="326" y="230"/>
      <point x="314" y="230" type="qcurve" smooth="yes"/>
      <point x="253" y="230"/>
      <point x="180" y="187"/>
      <point x="180" y="149" type="qcurve" smooth="yes"/>
      <point x="180" y="118"/>
      <point x="228" y="76"/>
      <point x="262" y="76" type="qcurve" smooth="yes"/>
      <point x="291" y="76"/>
      <point x="333" y="106"/>
      <point x="355" y="161"/>
      <point x="355" y="197" type="qcurve" smooth="yes"/>
      <point x="355" y="357" type="line" smooth="yes"/>
      <point x="355" y="397"/>
      <point x="317" y="435"/>
      <point x="278" y="435" type="qcurve" smooth="yes"/>
      <point x="241" y="435"/>
      <point x="201" y="399"/>
      <point x="201" y="364" type="qcurve"/>
      <point x="65" y="364" type="line"/>
      <point x="65" y="432"/>
      <point x="182" y="514"/>
      <point x="281" y="514" type="qcurve" smooth="yes"/>
      <point x="381" y="514"/>
      <point x="491" y="441"/>
      <point x="491" y="375" type="qcurve" smooth="yes"/>
      <point x="491" y="202" type="line" smooth="yes"/>
      <point x="491" y="157"/>
      <point x="496" y="81"/>
      <point x="505" y="22"/>
      <point x="510" y="0" type="qcurve"/>
      <point x="381" y="0" type="line"/>
      <point x="375" y="17"/>
      <point x="368" y="50"/>
      <point x="364" y="76" type="qcurve"/>
      <point x="375" y="72" type="line"/>
      <point x="352" y="42"/>
      <point x="304" y="4"/>
      <point x="251" y="-14"/>
      <point x="219" y="-14" type="qcurve" smooth="yes"/>
      <point x="168" y="-14"/>
      <point x="89" y="26"/>
      <point x="44" y="95"/>
    </contour>
  </outline>
</glyph>
<glyph name="b" format="2">
  <advance width="625.0"/>
  <unicode hex="0062"/>
  <outline>
    <contour>
      <point x="60" y="0" type="line"/>
      <point x="63" y="16"/>
      <point x="65" y="76"/>
      <point x="66" y="138"/>
      <point x="66" y="157" type="qcurve" smooth="yes"/>
      <point x="66" y="722" type="line"/>
      <point x="202" y="722" type="line"/>
      <point x="202" y="534" type="line" smooth="yes"/>
      <point x="202" y="501"/>
      <point x="200" y="451"/>
      <point x="196" y="423" type="qcurve"/>
      <point x="188" y="423" type="line"/>
      <point x="188" y="109" type="line"/>
      <point x="196" y="109" type="line"/>
      <point x="199" y="92"/>
      <point x="202" y="56"/>
      <point x="202" y="45" type="qcurve" smooth="yes"/>
      <point x="202" y="35"/>
      <point x="199" y="11"/>
      <point x="196" y="0" type="qcurve"/>
    </contour>
    <contour>
      <point x="177" y="45" type="line"/>
      <point x="177" y="454" type="line"/>
      <point x="202" y="454" type="line"/>
      <point x="223" y="481"/>
      <point x="310" y="514"/>
      <point x="358" y="514" type="qcurve" smooth="yes"/>
      <point x="425" y="514"/>
      <point x="525" y="452"/>
      <point x="581" y="340"/>
      <point x="581" y="265" type="qcurve" smooth="yes"/>
      <point x="581" y="181"/>
      <point x="523" y="56"/>
      <point x="419" y="-14"/>
      <point x="349" y="-14" type="qcurve" smooth="yes"/>
      <point x="311" y="-14"/>
      <point x="231" y="19"/>
      <point x="204" y="45" type="qcurve"/>
    </contour>
    <contour>
      <point x="199" y="254" type="qcurve" smooth="yes"/>
      <point x="199" y="172"/>
      <point x="268" y="72"/>
      <point x="325" y="72" type="qcurve" smooth="yes"/>
      <point x="361" y="72"/>
      <point x="416" y="116"/>
      <point x="446" y="197"/>
      <point x="446" y="250" type="qcurve" smooth="yes"/>
      <point x="446" y="330"/>
      <point x="380" y="428"/>
      <point x="326" y="428" type="qcurve" smooth="yes"/>
      <point x="297" y="428"/>
      <point x="251" y="403"/>
      <point x="217" y="357"/>
      <point x="199" y="293"/>
    </contour>
  </outline>
</glyph>
<glyph name="c" format="2">
  <advance width="524.0"/>
  <unicode hex="0063"/>
  <outline>
    <contour>
      <point x="44" y="243" type="qcurve" smooth="yes"/>
      <point x="44" y="159"/>
      <point x="97" y="45"/>
      <point x="201" y="-14"/>
      <point x="276" y="-14" type="qcurve" smooth="yes"/>
      <point x="343" y="-14"/>
      <point x="434" y="31"/>
      <point x="480" y="120"/>
      <point x="480" y="184" type="qcurve"/>
      <point x="345" y="184" type="line"/>
      <point x="345" y="132"/>
      <point x="318" y="72"/>
      <point x="270" y="72" type="qcurve" smooth="yes"/>
      <point x="225" y="72"/>
      <point x="187" y="123"/>
      <point x="179" y="204"/>
      <point x="179" y="248" type="qcurve" smooth="yes"/>
      <point x="179" y="275"/>
      <point x="185" y="338"/>
      <point x="203" y="393"/>
      <point x="241" y="428"/>
      <point x="273" y="428" type="qcurve" smooth="yes"/>
      <point x="302" y="428"/>
      <point x="332" y="399"/>
      <point x="346" y="352"/>
      <point x="348" y="324" type="qcurve"/>
      <point x="480" y="324" type="line"/>
      <point x="480" y="393"/>
      <point x="431" y="476"/>
      <point x="339" y="514"/>
      <point x="273" y="514" type="qcurve" smooth="yes"/>
      <point x="197" y="514"/>
      <point x="95" y="446"/>
      <point x="44" y="325"/>
    </contour>
  </outline>
</glyph>
<glyph name="e" format="2">
  <advance width="550.0"/>
  <unicode hex="0065"/>
  <outline>
    <contour>
      <point x="44" y="241" type="qcurve" smooth="yes"/>
      <point x="44" y="321"/>
      <point x="96" y="444"/>
      <point x="201" y="514"/>
      <point x="281" y="514" type="qcurve" smooth="yes"/>
      <point x="361" y="514"/>
      <point x="460" y="446"/>
      <point x="506" y="331"/>
      <point x="506" y="261" type="qcurve" smooth="yes"/>
      <point x="506" y="223" type="line"/>
      <point x="480" y="223" type="line"/>
      <point x="365" y="290" type="line"/>
      <point x="365" y="318"/>
      <point x="357" y="368"/>
      <point x="338" y="407"/>
      <point x="302" y="429"/>
      <point x="275" y="429" type="qcurve" smooth="yes"/>
      <point x="241" y="429"/>
      <point x="204" y="399"/>
      <point x="187" y="352"/>
      <point x="183" y="297"/>
      <point x="183" y="272" type="qcurve" smooth="yes"/>
      <point x="183" y="227"/>
      <point x="192" y="154"/>
      <point x="213" y="101"/>
      <point x="249" y="72"/>
      <point x="275" y="72" type="qcurve" smooth="yes"/>
      <point x="317" y="72"/>
      <point x="359" y="120"/>
      <point x="363" y="156" type="qcurve"/>
      <point x="499" y="156" type="line"/>
      <point x="494" y="100"/>
      <point x="440" y="24"/>
      <point x="348" y="-14"/>
      <point x="285" y="-14" type="qcurve" smooth="yes"/>
      <point x="199" y="-14"/>
      <point x="93" y="50"/>
      <point x="44" y="165"/>
    </contour>
    <contour>
      <point x="149" y="223" type="line"/>
      <point x="149" y="308" type="line"/>
      <point x="381" y="308" type="line"/>
      <point x="506" y="232" type="line"/>
      <point x="506" y="223" type="line"/>
    </contour>
  </outline>
</glyph>
<glyph name="h" format="2">
  <advance width="586.0"/>
  <unicode hex="0068"/>
  <outline>
    <contour>
      <point x="176" y="279" type="line"/>
      <point x="176" y="405" type="line"/>
      <point x="196" y="433" type="line" smooth="yes"/>
      <point x="216" y="460"/>
      <point x="263" y="496"/>
      <point x="321" y="514"/>
      <point x="356" y="514" type="qcurve" smooth="yes"/>
      <point x="438" y="514"/>
      <point x="527" y="423"/>
      <point x="527" y="339" type="qcurve" smooth="yes"/>
      <point x="527" y="0" type="line"/>
      <point x="391" y="0" type="line"/>
      <point x="391" y="299" type="line" smooth="yes"/>
      <point x="391" y="366"/>
      <point x="347" y="432"/>
      <point x="302" y="432" type="qcurve" smooth="yes"/>
      <point x="268" y="432"/>
      <point x="221" y="396"/>
      <point x="196" y="328"/>
      <point x="196" y="279" type="qcurve"/>
    </contour>
    <contour>
      <point x="60" y="0" type="line"/>
      <point x="60" y="722" type="line"/>
      <point x="196" y="722" type="line"/>
      <point x="196" y="0" type="line"/>
    </contour>
  </outline>
</glyph>
<glyph name="k" format="2">
  <advance width="554.0"/>
  <unicode hex="006B"/>
  <outline>
    <contour>
      <point x="544" y="0" type="line"/>
      <point x="380" y="0" type="line"/>
      <point x="195" y="283" type="line"/>
      <point x="366" y="500" type="line"/>
      <point x="528" y="500" type="line"/>
      <point x="340" y="275" type="line"/>
      <point x="341" y="294" type="line"/>
    </contour>
    <contour>
      <point x="60" y="0" type="line"/>
      <point x="60" y="722" type="line"/>
      <point x="196" y="722" type="line"/>
      <point x="196" y="0" type="line"/>
    </contour>
  </outline>
</glyph>
<glyph name="m" format="2">
  <advance width="905.0"/>
  <unicode hex="006D"/>
  <outline>
    <contour>
      <point x="522" y="280" type="line"/>
      <point x="498" y="280" type="line"/>
      <point x="498" y="416" type="line"/>
      <point x="528" y="463"/>
      <point x="620" y="514"/>
      <point x="677" y="514" type="qcurve" smooth="yes"/>
      <point x="755" y="514"/>
      <point x="846" y="416"/>
      <point x="846" y="329" type="qcurve" smooth="yes"/>
      <point x="846" y="0" type="line"/>
      <point x="710" y="0" type="line"/>
      <point x="710" y="320" type="line" smooth="yes"/>
      <point x="710" y="367"/>
      <point x="660" y="429"/>
      <point x="624" y="429" type="qcurve" smooth="yes"/>
      <point x="596" y="429"/>
      <point x="550" y="391"/>
      <point x="522" y="328"/>
      <point x="522" y="290" type="qcurve" smooth="yes"/>
    </contour>
    <contour>
      <point x="196" y="427" type="line" smooth="yes"/>
      <point x="224" y="466"/>
      <point x="311" y="514"/>
      <point x="357" y="514" type="qcurve" smooth="yes"/>
      <point x="395" y="514"/>
      <point x="462" y="482"/>
      <point x="512" y="427"/>
      <point x="522" y="391" type="qcurve"/>
      <point x="522" y="0" type="line"/>
      <point x="386" y="0" type="line"/>
      <point x="386" y="320" type="line" smooth="yes"/>
      <point x="386" y="367"/>
      <point x="338" y="429"/>
      <point x="301" y="429" type="qcurve" smooth="yes"/>
      <point x="273" y="429"/>
      <point x="225" y="390"/>
      <point x="196" y="327"/>
      <point x="196" y="289" type="qcurve"/>
      <point x="176" y="289" type="line"/>
      <point x="176" y="399" type="line"/>
    </contour>
    <contour>
      <point x="60" y="0" type="line"/>
      <point x="60" y="500" type="line"/>
      <point x="196" y="500" type="line"/>
      <point x="196" y="0" type="line"/>
    </contour>
  </outline>
</glyph>
<glyph name="o" format="2">
  <advance width="604.0"/>
  <unicode hex="006F"/>
  <outline>
    <contour>
      <point x="44" y="250" type="qcurve" smooth="yes"/>
      <point x="44" y="328"/>
      <point x="110" y="447"/>
      <point x="227" y="514"/>
      <point x="303" y="514" type="qcurve" smooth="yes"/>
      <point x="380" y="514"/>
      <point x="495" y="447"/>
      <point x="560" y="328"/>
      <point x="560" y="250" type="qcurve" smooth="yes"/>
      <point x="560" y="172"/>
      <point x="495" y="53"/>
      <point x="379" y="-14"/>
      <point x="303" y="-14" type="qcurve" smooth="yes"/>
      <point x="227" y="-14"/>
      <point x="110" y="53"/>
      <point x="44" y="172"/>
    </contour>
    <contour>
      <point x="179" y="250" type="qcurve" smooth="yes"/>
      <point x="179" y="158"/>
      <point x="239" y="72"/>
      <point x="302" y="72" type="qcurve" smooth="yes"/>
      <point x="365" y="72"/>
      <point x="425" y="158"/>
      <point x="425" y="250" type="qcurve" smooth="yes"/>
      <point x="425" y="342"/>
      <point x="365" y="428"/>
      <point x="302" y="428" type="qcurve" smooth="yes"/>
      <point x="239" y="428"/>
      <point x="179" y="342"/>
    </contour>
  </outline>
</glyph>
<glyph name="p" format="2">
  <advance width="615.0"/>
  <unicode hex="0070"/>
  <outline>
    <contour>
      <point x="64" y="-198" type="line"/>
      <point x="64" y="399" type="line" smooth="yes"/>
      <point x="64" y="428"/>
      <point x="62" y="472"/>
      <point x="60" y="500" type="qcurve"/>
      <point x="196" y="500" type="line"/>
      <point x="198" y="484"/>
      <point x="199" y="452"/>
      <point x="199" y="432" type="qcurve" smooth="yes"/>
      <point x="199" y="-198" type="line"/>
    </contour>
    <contour>
      <point x="177" y="78" type="qcurve"/>
      <point x="177" y="430" type="line"/>
      <point x="207" y="461"/>
      <point x="259" y="498"/>
      <point x="312" y="514"/>
      <point x="344" y="514" type="qcurve" smooth="yes"/>
      <point x="415" y="514"/>
      <point x="517" y="450"/>
      <point x="571" y="333"/>
      <point x="571" y="252" type="qcurve" smooth="yes"/>
      <point x="571" y="170"/>
      <point x="515" y="51"/>
      <point x="415" y="-14"/>
      <point x="348" y="-14" type="qcurve" smooth="yes"/>
      <point x="294" y="-14"/>
      <point x="211" y="31"/>
    </contour>
    <contour>
      <point x="199" y="246" type="qcurve" smooth="yes"/>
      <point x="199" y="198"/>
      <point x="232" y="120"/>
      <point x="289" y="75"/>
      <point x="324" y="75" type="qcurve" smooth="yes"/>
      <point x="358" y="75"/>
      <point x="408" y="117"/>
      <point x="436" y="193"/>
      <point x="436" y="243" type="qcurve" smooth="yes"/>
      <point x="436" y="298"/>
      <point x="404" y="381"/>
      <point x="348" y="429"/>
      <point x="312" y="429" type="qcurve" smooth="yes"/>
      <point x="286" y="429"/>
      <point x="244" y="403"/>
      <point x="215" y="354"/>
      <point x="199" y="287"/>
    </contour>
  </outline>
</glyph>
<glyph name="r" format="2">
  <advance width="390.0"/>
  <unicode hex="0072"/>
  <outline>
    <contour>
      <point x="195" y="422" type="line" smooth="yes"/>
      <point x="220" y="469"/>
      <point x="304" y="514"/>
      <point x="366" y="514" type="qcurve"/>
      <point x="366" y="398" type="line"/>
      <point x="290" y="398"/>
      <point x="195" y="329"/>
      <point x="195" y="255" type="qcurve"/>
      <point x="175" y="255" type="line"/>
      <point x="175" y="385" type="line"/>
    </contour>
    <contour>
      <point x="60" y="0" type="line"/>
      <point x="60" y="500" type="line"/>
      <point x="196" y="500" type="line"/>
      <point x="196" y="0" type="line"/>
    </contour>
  </outline>
</glyph>
<glyph name="s" format="2">
  <advance width="516.0"/>
  <unicode hex="0073"/>
  <outline>
    <contour>
      <point x="44" y="154" type="qcurve"/>
      <point x="179" y="154" type="line"/>
      <point x="179" y="110"/>
      <point x="218" y="72"/>
      <point x="266" y="72" type="qcurve" smooth="yes"/>
      <point x="297" y="72"/>
      <point x="344" y="106"/>
      <point x="344" y="134" type="qcurve" smooth="yes"/>
      <point x="344" y="155"/>
      <point x="321" y="182"/>
      <point x="287" y="199"/>
      <point x="269" y="202" type="qcurve" smooth="yes"/>
      <point x="248" y="206" type="line" smooth="yes"/>
      <point x="216" y="213"/>
      <point x="149" y="234"/>
      <point x="92" y="268"/>
      <point x="58" y="321"/>
      <point x="58" y="360" type="qcurve" smooth="yes"/>
      <point x="58" y="411"/>
      <point x="116" y="480"/>
      <point x="209" y="514"/>
      <point x="262" y="514" type="qcurve" smooth="yes"/>
      <point x="317" y="514"/>
      <point x="408" y="487"/>
      <point x="463" y="417"/>
      <point x="463" y="354" type="qcurve"/>
      <point x="328" y="354" type="line"/>
      <point x="326" y="395"/>
      <point x="289" y="428"/>
      <point x="244" y="428" type="qcurve" smooth="yes"/>
      <point x="217" y="428"/>
      <point x="186" y="401"/>
      <point x="186" y="379" type="qcurve" smooth="yes"/>
      <point x="186" y="354"/>
      <point x="229" y="325"/>
      <point x="271" y="315" type="qcurve" smooth="yes"/>
      <point x="287" y="311" type="line" smooth="yes"/>
      <point x="321" y="304"/>
      <point x="386" y="283"/>
      <point x="440" y="249"/>
      <point x="472" y="194"/>
      <point x="472" y="153" type="qcurve" smooth="yes"/>
      <point x="472" y="94"/>
      <point x="408" y="20"/>
      <point x="306" y="-14"/>
      <point x="249" y="-14" type="qcurve" smooth="yes"/>
      <point x="196" y="-14"/>
      <point x="102" y="18"/>
      <point x="44" y="92"/>
    </contour>
  </outline>
</glyph>
<glyph name="t" format="2">
  <advance width="423.0"/>
  <unicode hex="0074"/>
  <outline>
    <contour>
      <point x="130" y="119" type="qcurve" smooth="yes"/>
      <point x="130" y="577" type="line"/>
      <point x="265" y="647" type="line"/>
      <point x="265" y="157" type="line" smooth="yes"/>
      <point x="265" y="120"/>
      <point x="307" y="79"/>
      <point x="343" y="79" type="qcurve" smooth="yes"/>
      <point x="357" y="79"/>
      <point x="382" y="84"/>
      <point x="393" y="88" type="qcurve"/>
      <point x="393" y="3" type="line"/>
      <point x="370" y="-5"/>
      <point x="319" y="-14"/>
      <point x="291" y="-14" type="qcurve" smooth="yes"/>
      <point x="248" y="-14"/>
      <point x="175" y="18"/>
      <point x="130" y="78"/>
    </contour>
    <contour>
      <point x="250" y="415" type="line"/>
      <point x="250" y="500" type="line"/>
      <point x="384" y="500" type="line"/>
      <point x="384" y="415" type="line"/>
    </contour>
    <contour>
      <point x="30" y="415" type="line"/>
      <point x="30" y="500" type="line"/>
      <point x="145" y="500" type="line"/>
      <point x="145" y="415" type="line"/>
    </contour>
  </outline>
</glyph>
<glyph name="u" format="2">
  <advance width="586.0"/>
  <unicode hex="0075"/>
  <outline>
    <contour>
      <point x="59" y="159" type="qcurve" smooth="yes"/>
      <point x="59" y="500" type="line"/>
      <point x="195" y="500" type="line"/>
      <point x="195" y="199" type="line" smooth="yes"/>
      <point x="195" y="133"/>
      <point x="240" y="67"/>
      <point x="284" y="67" type="qcurve" smooth="yes"/>
      <point x="310" y="67"/>
      <point x="349" y="88"/>
      <point x="376" y="127"/>
      <point x="390" y="185"/>
      <point x="390" y="221" type="qcurve"/>
      <point x="410" y="221" type="line"/>
      <point x="410" y="97" type="line"/>
      <point x="390" y="68" type="line" smooth="yes"/>
      <point x="370" y="39"/>
      <point x="325" y="3"/>
      <point x="269" y="-14"/>
      <point x="233" y="-14" type="qcurve" smooth="yes"/>
      <point x="149" y="-14"/>
      <point x="59" y="77"/>
    </contour>
    <contour>
      <point x="526" y="0" type="line"/>
      <point x="390" y="0" type="line"/>
      <point x="390" y="500" type="line"/>
      <point x="526" y="500" type="line"/>
    </contour>
  </outline>
</glyph>
<glyph name="v" format="2">
  <advance width="544.0"/>
  <unicode hex="0076"/>
  <outline>
    <contour>
      <point x="534" y="500" type="line"/>
      <point x="347" y="0" type="line"/>
      <point x="197" y="0" type="line"/>
      <point x="10" y="500" type="line"/>
      <point x="154" y="500" type="line"/>
      <point x="276" y="140" type="line"/>
      <point x="268" y="140" type="line"/>
      <point x="390" y="500" type="line"/>
    </contour>
  </outline>
</glyph>
<glyph name="w" format="2">
  <advance width="876.0"/>
  <unicode hex="0077"/>
  <outline>
    <contour>
      <point x="856" y="500" type="line"/>
      <point x="703" y="0" type="line"/>
      <point x="543" y="0" type="line"/>
      <point x="435" y="361" type="line"/>
      <point x="441" y="361" type="line"/>
      <point x="333" y="0" type="line"/>
      <point x="173" y="0" type="line"/>
      <point x="20" y="500" type="line"/>
      <point x="159" y="500" type="line"/>
      <point x="258" y="158" type="line"/>
      <point x="251" y="159" type="line"/>
      <point x="360" y="500" type="line"/>
      <point x="516" y="500" type="line"/>
      <point x="625" y="158" type="line"/>
      <point x="617" y="158" type="line"/>
      <point x="717" y="500" type="line"/>
    </contour>
  </outline>
</glyph>
<glyph name="x" format="2">
  <advance width="547.0"/>
  <unicode hex="0078"/>
  <outline>
    <contour>
      <point x="537" y="0" type="line"/>
      <point x="377" y="0" type="line"/>
      <point x="27" y="500" type="line"/>
      <point x="187" y="500" type="line"/>
    </contour>
    <contour>
      <point x="196" y="280" type="line"/>
      <point x="273" y="192" type="line"/>
      <point x="160" y="0" type="line"/>
      <point x="10" y="0" type="line"/>
    </contour>
    <contour>
      <point x="354" y="256" type="line"/>
      <point x="277" y="340" type="line"/>
      <point x="370" y="500" type="line"/>
      <point x="520" y="500" type="line"/>
    </contour>
  </outline>
</glyph>
<glyph name="y" format="2">
  <advance width="543.0"/>
  <unicode hex="0079"/>
  <outline>
    <contour>
      <point x="135" y="-200" type="line"/>
      <point x="390" y="500" type="line"/>
      <point x="533" y="500" type="line"/>
      <point x="283" y="-200" type="line"/>
    </contour>
    <contour>
      <point x="285" y="166" type="line"/>
      <point x="216" y="-14" type="line"/>
      <point x="10" y="500" type="line"/>
      <point x="163" y="500" type="line"/>
    </contour>
  </outline>
</glyph>
<glyph name="z" format="2">
  <advance width="506.0"/>
  <unicode hex="007A"/>
  <outline>
    <contour>
      <point x="462" y="0" type="line"/>
      <point x="44" y="0" type="line"/>
      <point x="44" y="105" type="line"/>
      <point x="317" y="424" type="line"/>
      <point x="321" y="415" type="line"/>
      <point x="49" y="415" type="line"/>
      <point x="49" y="500" type="line"/>
      <point x="449" y="500" type="line"/>
      <point x="449" y="395" type="line"/>
      <point x="176" y="76" type="line"/>
      <point x="172" y="85" type="line"/>
      <point x="462" y="85" type="line"/>
    </contour>
  </outline>
</glyph>
<glyph name="braceleft" format="2">
  <advance width="512.0"/>
  <unicode hex="007B"/>
  <outline>
    <contour>
      <point x="70" y="216" type="qcurve"/>
      <point x="70" y="300" type="line"/>
      <point x="116" y="307"/>
      <point x="174" y="341"/>
      <point x="201" y="406"/>
      <point x="201" y="458" type="qcurve" smooth="yes"/>
      <point x="201" y="477"/>
      <point x="199" y="511"/>
      <point x="196" y="550"/>
      <point x="196" y="575" type="qcurve" smooth="yes"/>
      <point x="196" y="638"/>
      <point x="231" y="711"/>
      <point x="296" y="748"/>
      <point x="386" y="759"/>
      <point x="441" y="759" type="qcurve"/>
      <point x="441" y="665" type="line"/>
      <point x="409" y="665"/>
      <point x="355" y="657"/>
      <point x="323" y="620"/>
      <point x="323" y="576" type="qcurve" smooth="yes"/>
      <point x="323" y="563"/>
      <point x="326" y="535"/>
      <point x="328" y="504"/>
      <point x="328" y="484" type="qcurve" smooth="yes"/>
      <point x="328" y="439"/>
      <point x="322" y="373"/>
      <point x="300" y="323"/>
      <point x="251" y="281"/>
      <point x="207" y="260" type="qcurve"/>
      <point x="260" y="234"/>
      <point x="312" y="168"/>
      <point x="329" y="106"/>
      <point x="329" y="86" type="qcurve" smooth="yes"/>
      <point x="329" y="52"/>
      <point x="328" y="-16"/>
      <point x="326" y="-66"/>
      <point x="326" y="-75" type="qcurve" smooth="yes"/>
      <point x="326" y="-110"/>
      <point x="357" y="-140"/>
      <point x="410" y="-146"/>
      <point x="442" y="-146" type="qcurve"/>
      <point x="442" y="-240" type="line"/>
      <point x="387" y="-240"/>
      <point x="297" y="-230"/>
      <point x="232" y="-195"/>
      <point x="196" y="-125"/>
      <point x="196" y="-65" type="qcurve" smooth="yes"/>
      <point x="196" y="-51"/>
      <point x="198" y="-18"/>
      <point x="199" y="16"/>
      <point x="201" y="46"/>
      <point x="201" y="56" type="qcurve" smooth="yes"/>
      <point x="201" y="101"/>
      <point x="165" y="169"/>
      <point x="105" y="212"/>
    </contour>
  </outline>
</glyph>
<glyph name="bar" format="2">
  <advance width="255.0"/>
  <unicode hex="007C"/>
  <outline>
    <contour>
      <point x="195" y="-258" type="line"/>
      <point x="60" y="-258" type="line"/>
      <point x="60" y="796" type="line"/>
      <point x="195" y="796" type="line"/>
    </contour>
  </outline>
</glyph>
<glyph name="asciitilde" format="2">
  <advance width="533.0"/>
  <unicode hex="007E"/>
  <outline>
    <contour>
      <point x="531" y="315" type="line"/>
      <point x="521" y="280"/>
      <point x="475" y="227"/>
      <point x="412" y="198"/>
      <point x="375" y="198" type="qcurve" smooth="yes"/>
      <point x="345" y="198"/>
      <point x="288" y="210"/>
      <point x="234" y="226"/>
      <point x="183" y="238"/>
      <point x="160" y="238" type="qcurve" smooth="yes"/>
      <point x="139" y="238"/>
      <point x="110" y="229"/>
      <point x="94" y="211"/>
      <point x="89" y="195" type="qcurve"/>
      <point x="-2" y="195" type="line"/>
      <point x="15" y="251"/>
      <point x="97" y="313"/>
      <point x="153" y="313" type="qcurve" smooth="yes"/>
      <point x="183" y="313"/>
      <point x="242" y="301"/>
      <point x="297" y="285"/>
      <point x="349" y="273"/>
      <point x="373" y="273" type="qcurve" smooth="yes"/>
      <point x="393" y="273"/>
      <point x="420" y="282"/>
      <point x="438" y="300"/>
      <point x="443" y="315" type="qcurve"/>
    </contour>
  </outline>
</glyph>
<glyph name="cent" format="2">
  <advance width="573.0"/>
  <unicode hex="00A2"/>
  <outline>
    <contour>
      <point x="417" y="612" type="line"/>
      <point x="171" y="-141" type="line"/>
      <point x="118" y="-128" type="line"/>
      <point x="363" y="625" type="line"/>
    </contour>
    <contour>
      <point x="58" y="243" type="qcurve" smooth="yes"/>
      <point x="58" y="159"/>
      <point x="111" y="45"/>
      <point x="215" y="-14"/>
      <point x="290" y="-14" type="qcurve" smooth="yes"/>
      <point x="357" y="-14"/>
      <point x="448" y="31"/>
      <point x="494" y="120"/>
      <point x="494" y="184" type="qcurve"/>
      <point x="359" y="184" type="line"/>
      <point x="359" y="132"/>
      <point x="332" y="72"/>
      <point x="284" y="72" type="qcurve" smooth="yes"/>
      <point x="239" y="72"/>
      <point x="201" y="123"/>
      <point x="193" y="204"/>
      <point x="193" y="248" type="qcurve" smooth="yes"/>
      <point x="193" y="275"/>
      <point x="199" y="338"/>
      <point x="217" y="393"/>
      <point x="255" y="428"/>
      <point x="287" y="428" type="qcurve" smooth="yes"/>
      <point x="316" y="428"/>
      <point x="346" y="399"/>
      <point x="360" y="352"/>
      <point x="362" y="324" type="qcurve"/>
      <point x="494" y="324" type="line"/>
      <point x="494" y="393"/>
      <point x="445" y="476"/>
      <point x="353" y="514"/>
      <point x="287" y="514" type="qcurve" smooth="yes"/>
      <point x="211" y="514"/>
      <point x="109" y="446"/>
      <point x="58" y="325"/>
    </contour>
  </outline>
</glyph>
<glyph name="sterling" format="2">
  <advance width="573.0"/>
  <unicode hex="00A3"/>
  <outline>
    <contour>
      <point x="129" y="70" type="line"/>
      <point x="129" y="558" type="line" smooth="yes"/>
      <point x="129" y="620"/>
      <point x="179" y="699"/>
      <point x="274" y="736"/>
      <point x="340" y="736" type="qcurve" smooth="yes"/>
      <point x="404" y="736"/>
      <point x="499" y="707"/>
      <point x="551" y="633"/>
      <point x="551" y="563" type="qcurve"/>
      <point x="416" y="563" type="line"/>
      <point x="416" y="593"/>
      <point x="399" y="632"/>
      <point x="367" y="651"/>
      <point x="342" y="651" type="qcurve" smooth="yes"/>
      <point x="316" y="651"/>
      <point x="281" y="630"/>
      <point x="264" y="587"/>
      <point x="264" y="554" type="qcurve" smooth="yes"/>
      <point x="264" y="70" type="line"/>
    </contour>
    <contour>
      <point x="550" y="85" type="line"/>
      <point x="550" y="0" type="line"/>
      <point x="56" y="0" type="line"/>
      <point x="56" y="85" type="line"/>
    </contour>
    <contour>
      <point x="56" y="451" type="line"/>
      <point x="399" y="451" type="line"/>
      <point x="399" y="367" type="line"/>
      <point x="56" y="367" type="line"/>
    </contour>
  </outline>
</glyph>
<glyph name="currency" format="2">
  <advance width="609.0"/>
  <unicode hex="00A4"/>
  <outline>
    <contour>
      <point x="36" y="426" type="qcurve" smooth="yes"/>
      <point x="36" y="504"/>
      <point x="109" y="629"/>
      <point x="234" y="702"/>
      <point x="313" y="702" type="qcurve" smooth="yes"/>
      <point x="368" y="702"/>
      <point x="467" y="658"/>
      <point x="542" y="582"/>
      <point x="585" y="483"/>
      <point x="584" y="427" type="qcurve" smooth="yes"/>
      <point x="584" y="372"/>
      <point x="542" y="272"/>
      <point x="467" y="195"/>
      <point x="369" y="152"/>
      <point x="311" y="152" type="qcurve" smooth="yes"/>
      <point x="255" y="152"/>
      <point x="155" y="195"/>
      <point x="79" y="270"/>
      <point x="36" y="369"/>
    </contour>
    <contour>
      <point x="170" y="427" type="qcurve" smooth="yes"/>
      <point x="170" y="389"/>
      <point x="209" y="326"/>
      <point x="273" y="288"/>
      <point x="311" y="288" type="qcurve" smooth="yes"/>
      <point x="348" y="288"/>
      <point x="410" y="327"/>
      <point x="448" y="391"/>
      <point x="448" y="428" type="qcurve" smooth="yes"/>
      <point x="448" y="465"/>
      <point x="410" y="528"/>
      <point x="348" y="567"/>
      <point x="311" y="567" type="qcurve" smooth="yes"/>
      <point x="272" y="567"/>
      <point x="208" y="529"/>
      <point x="170" y="466"/>
    </contour>
    <contour>
      <point x="213" y="637" type="line"/>
      <point x="107" y="531" type="line"/>
      <point x="-24" y="657" type="line"/>
      <point x="82" y="763" type="line"/>
    </contour>
    <contour>
      <point x="515" y="534" type="line"/>
      <point x="406" y="636" type="line"/>
      <point x="526" y="763" type="line"/>
      <point x="633" y="657" type="line"/>
    </contour>
    <contour>
      <point x="422" y="203" type="line"/>
      <point x="525" y="311" type="line"/>
      <point x="636" y="201" type="line"/>
      <point x="532" y="93" type="line"/>
    </contour>
    <contour>
      <point x="101" y="328" type="line"/>
      <point x="213" y="226" type="line"/>
      <point x="75" y="93" type="line"/>
      <point x="-36" y="195" type="line"/>
    </contour>
  </outline>
</glyph>
<glyph name="yen" format="2">
  <advance width="573.0"/>
  <unicode hex="00A5"/>
  <outline>
    <contour>
      <point x="572" y="722" type="line"/>
      <point x="356" y="272" type="line"/>
      <point x="354" y="272" type="line"/>
      <point x="354" y="0" type="line"/>
      <point x="220" y="0" type="line"/>
      <point x="220" y="272" type="line"/>
      <point x="218" y="272" type="line"/>
      <point x="2" y="722" type="line"/>
      <point x="151" y="722" type="line"/>
      <point x="292" y="408" type="line"/>
      <point x="282" y="408" type="line"/>
      <point x="423" y="722" type="line"/>
    </contour>
    <contour>
      <point x="203" y="338" type="line"/>
      <point x="235" y="272" type="line"/>
      <point x="13" y="272" type="line"/>
      <point x="13" y="338" type="line"/>
    </contour>
    <contour>
      <point x="339" y="272" type="line"/>
      <point x="371" y="338" type="line"/>
      <point x="561" y="338" type="line"/>
      <point x="561" y="272" type="line"/>
    </contour>
    <contour>
      <point x="113" y="523" type="line"/>
      <point x="145" y="457" type="line"/>
      <point x="13" y="457" type="line"/>
      <point x="13" y="523" type="line"/>
    </contour>
    <contour>
      <point x="429" y="457" type="line"/>
      <point x="460" y="523" type="line"/>
      <point x="561" y="523" type="line"/>
      <point x="561" y="457" type="line"/>
    </contour>
  </outline>
</glyph>
<glyph name="brokenbar" format="2">
  <advance width="250.0"/>
  <unicode hex="00A6"/>
  <outline>
    <contour>
      <point x="190" y="336" type="line"/>
      <point x="60" y="336" type="line"/>
      <point x="60" y="736" type="line"/>
      <point x="190" y="736" type="line"/>
    </contour>
    <contour>
      <point x="190" y="-198" type="line"/>
      <point x="60" y="-198" type="line"/>
      <point x="60" y="202" type="line"/>
      <point x="190" y="202" type="line"/>
    </contour>
  </outline>
</glyph>
<glyph name="section" format="2">
  <advance width="467.0"/>
  <unicode hex="00A7"/>
  <outline>
    <contour>
      <point x="0" y="292" type="qcurve" smooth="yes"/>
      <point x="0" y="351"/>
      <point x="39" y="427"/>
      <point x="104" y="473"/>
      <point x="143" y="487" type="qcurve"/>
      <point x="224" y="438" type="line"/>
      <point x="199" y="426"/>
      <point x="146" y="394"/>
      <point x="110" y="349"/>
      <point x="110" y="317" type="qcurve" smooth="yes"/>
      <point x="110" y="301"/>
      <point x="122" y="275"/>
      <point x="137" y="267" type="qcurve" smooth="yes"/>
      <point x="322" y="159" type="line" smooth="yes"/>
      <point x="377" y="128"/>
      <point x="431" y="57"/>
      <point x="431" y="19" type="qcurve" smooth="yes"/>
      <point x="431" y="-39"/>
      <point x="377" y="-128"/>
      <point x="282" y="-177"/>
      <point x="221" y="-177" type="qcurve" smooth="yes"/>
      <point x="195" y="-177"/>
      <point x="129" y="-167"/>
      <point x="68" y="-150"/>
      <point x="49" y="-137" type="qcurve"/>
      <point x="49" y="-30" type="line"/>
      <point x="91" y="-55"/>
      <point x="158" y="-81"/>
      <point x="183" y="-81" type="qcurve" smooth="yes"/>
      <point x="237" y="-81"/>
      <point x="304" y="-37"/>
      <point x="304" y="-1" type="qcurve" smooth="yes"/>
      <point x="304" y="13"/>
      <point x="292" y="39"/>
      <point x="276" y="49" type="qcurve" smooth="yes"/>
      <point x="97" y="162" type="line" smooth="yes"/>
      <point x="75" y="175"/>
      <point x="30" y="211"/>
      <point x="0" y="260"/>
    </contour>
    <contour>
      <point x="48" y="567" type="qcurve" smooth="yes"/>
      <point x="48" y="615"/>
      <point x="100" y="691"/>
      <point x="189" y="734"/>
      <point x="244" y="734" type="qcurve" smooth="yes"/>
      <point x="298" y="734"/>
      <point x="367" y="715"/>
      <point x="400" y="692" type="qcurve"/>
      <point x="400" y="593" type="line"/>
      <point x="358" y="618"/>
      <point x="285" y="642"/>
      <point x="261" y="642" type="qcurve" smooth="yes"/>
      <point x="239" y="642"/>
      <point x="200" y="623"/>
      <point x="175" y="592"/>
      <point x="175" y="573" type="qcurve" smooth="yes"/>
      <point x="175" y="562"/>
      <point x="186" y="534"/>
      <point x="202" y="525" type="qcurve" smooth="yes"/>
      <point x="391" y="411" type="line" smooth="yes"/>
      <point x="412" y="398"/>
      <point x="454" y="360"/>
      <point x="481" y="310"/>
      <point x="481" y="279" type="qcurve" smooth="yes"/>
      <point x="481" y="207"/>
      <point x="400" y="117"/>
      <point x="344" y="89" type="qcurve"/>
      <point x="240" y="144" type="line"/>
      <point x="253" y="145"/>
      <point x="294" y="164"/>
      <point x="334" y="196"/>
      <point x="361" y="238"/>
      <point x="361" y="261" type="qcurve" smooth="yes"/>
      <point x="361" y="276"/>
      <point x="347" y="307"/>
      <point x="330" y="317" type="qcurve" smooth="yes"/>
      <point x="154" y="413" type="line" smooth="yes"/>
      <point x="119" y="433"/>
      <point x="71" y="481"/>
      <point x="48" y="536"/>
    </contour>
  </outline>
</glyph>
<glyph name="dieresis" format="2">
  <advance width="439.0"/>
  <unicode hex="00A8"/>
  <outline>
    <contour>
      <point x="170" y="600" type="line"/>
      <point x="60" y="600" type="line"/>
      <point x="60" y="720" type="line"/>
      <point x="170" y="720" type="line"/>
    </contour>
    <contour>
      <point x="380" y="600" type="line"/>
      <point x="270" y="600" type="line"/>
      <point x="270" y="720" type="line"/>
      <point x="380" y="720" type="line"/>
    </contour>
  </outline>
</glyph>
<glyph name="copyright" format="2">
  <advance width="867.0"/>
  <unicode hex="00A9"/>
  <outline>
    <contour>
      <point x="233" y="353" type="qcurve" smooth="yes"/>
      <point x="233" y="414"/>
      <point x="277" y="521"/>
      <point x="366" y="586"/>
      <point x="433" y="586" type="qcurve" smooth="yes"/>
      <point x="486" y="586"/>
      <point x="570" y="547"/>
      <point x="620" y="472"/>
      <point x="620" y="416" type="qcurve"/>
      <point x="506" y="416" type="line"/>
      <point x="502" y="463"/>
      <point x="469" y="509"/>
      <point x="439" y="509" type="qcurve" smooth="yes"/>
      <point x="400" y="509"/>
      <point x="362" y="475"/>
      <point x="350" y="420"/>
      <point x="350" y="389" type="qcurve" smooth="yes"/>
      <point x="350" y="356" type="line" smooth="yes"/>
      <point x="350" y="333"/>
      <point x="354" y="281"/>
      <point x="369" y="235"/>
      <point x="401" y="206"/>
      <point x="428" y="206" type="qcurve" smooth="yes"/>
      <point x="458" y="206"/>
      <point x="490" y="231"/>
      <point x="501" y="277"/>
      <point x="501" y="308" type="qcurve"/>
      <point x="618" y="308" type="line"/>
      <point x="618" y="253"/>
      <point x="570" y="173"/>
      <point x="486" y="130"/>
      <point x="432" y="130" type="qcurve" smooth="yes"/>
      <point x="366" y="130"/>
      <point x="277" y="190"/>
      <point x="233" y="291"/>
    </contour>
    <contour>
      <point x="59" y="360" type="qcurve" smooth="yes"/>
      <point x="59" y="438"/>
      <point x="116" y="574"/>
      <point x="219" y="677"/>
      <point x="355" y="735"/>
      <point x="433" y="735" type="qcurve" smooth="yes"/>
      <point x="511" y="735"/>
      <point x="647" y="678"/>
      <point x="750" y="575"/>
      <point x="808" y="439"/>
      <point x="808" y="361" type="qcurve" smooth="yes"/>
      <point x="808" y="283"/>
      <point x="750" y="146"/>
      <point x="648" y="42"/>
      <point x="512" y="-16"/>
      <point x="433" y="-16" type="qcurve" smooth="yes"/>
      <point x="354" y="-16"/>
      <point x="218" y="42"/>
      <point x="116" y="145"/>
      <point x="59" y="282"/>
    </contour>
    <contour>
      <point x="125" y="358" type="qcurve" smooth="yes"/>
      <point x="125" y="294"/>
      <point x="172" y="182"/>
      <point x="257" y="97"/>
      <point x="369" y="50"/>
      <point x="433" y="50" type="qcurve" smooth="yes"/>
      <point x="497" y="50"/>
      <point x="609" y="97"/>
      <point x="692" y="180"/>
      <point x="739" y="292"/>
      <point x="739" y="356" type="qcurve" smooth="yes"/>
      <point x="739" y="420"/>
      <point x="692" y="532"/>
      <point x="608" y="618"/>
      <point x="496" y="666"/>
      <point x="432" y="666" type="qcurve" smooth="yes"/>
      <point x="368" y="666"/>
      <point x="256" y="618"/>
      <point x="172" y="534"/>
      <point x="125" y="422"/>
    </contour>
  </outline>
</glyph>
<glyph name="ordfeminine" format="2">
  <advance width="388.0"/>
  <unicode hex="00AA"/>
  <outline>
    <contour>
      <point x="367" y="232" type="line"/>
      <point x="18" y="232" type="line"/>
      <point x="18" y="279" type="line"/>
      <point x="367" y="279" type="line"/>
    </contour>
    <contour>
      <point x="31" y="450" type="qcurve" smooth="yes"/>
      <point x="31" y="513"/>
      <point x="118" y="569"/>
      <point x="199" y="569" type="qcurve" smooth="yes"/>
      <point x="219" y="569"/>
      <point x="251" y="567"/>
      <point x="275" y="564" type="qcurve"/>
      <point x="278" y="509" type="line"/>
      <point x="260" y="511"/>
      <point x="233" y="514"/>
      <point x="221" y="514" type="qcurve" smooth="yes"/>
      <point x="178" y="514"/>
      <point x="127" y="484"/>
      <point x="127" y="457" type="qcurve" smooth="yes"/>
      <point x="127" y="435"/>
      <point x="160" y="406"/>
      <point x="184" y="406" type="qcurve" smooth="yes"/>
      <point x="205" y="406"/>
      <point x="234" y="427"/>
      <point x="249" y="465"/>
      <point x="249" y="491" type="qcurve" smooth="yes"/>
      <point x="249" y="603" type="line" smooth="yes"/>
      <point x="249" y="631"/>
      <point x="223" y="658"/>
      <point x="195" y="658" type="qcurve" smooth="yes"/>
      <point x="169" y="658"/>
      <point x="141" y="632"/>
      <point x="141" y="608" type="qcurve"/>
      <point x="46" y="608" type="line"/>
      <point x="46" y="655"/>
      <point x="128" y="713"/>
      <point x="198" y="713" type="qcurve" smooth="yes"/>
      <point x="268" y="713"/>
      <point x="345" y="662"/>
      <point x="345" y="615" type="qcurve" smooth="yes"/>
      <point x="345" y="494" type="line" smooth="yes"/>
      <point x="345" y="447"/>
      <point x="352" y="375"/>
      <point x="358" y="352" type="qcurve"/>
      <point x="268" y="352" type="line"/>
      <point x="263" y="365"/>
      <point x="258" y="387"/>
      <point x="256" y="406" type="qcurve"/>
      <point x="263" y="403" type="line"/>
      <point x="239" y="371"/>
      <point x="188" y="343"/>
      <point x="154" y="343" type="qcurve" smooth="yes"/>
      <point x="100" y="343"/>
      <point x="31" y="404"/>
    </contour>
  </outline>
</glyph>
<glyph name="guillemotleft" format="2">
  <advance width="538.0"/>
  <unicode hex="00AB"/>
  <outline>
    <contour>
      <point x="280" y="57" type="line"/>
      <point x="150" y="57" type="line"/>
      <point x="40" y="252" type="line"/>
      <point x="150" y="447" type="line"/>
      <point x="280" y="447" type="line"/>
      <point x="185" y="241" type="line"/>
      <point x="185" y="263" type="line"/>
    </contour>
    <contour>
      <point x="498" y="57" type="line"/>
      <point x="368" y="57" type="line"/>
      <point x="258" y="252" type="line"/>
      <point x="368" y="447" type="line"/>
      <point x="498" y="447" type="line"/>
      <point x="403" y="241" type="line"/>
      <point x="403" y="263" type="line"/>
    </contour>
  </outline>
</glyph>
<glyph name="logicalnot" format="2">
  <advance width="619.0"/>
  <unicode hex="00AC"/>
  <outline>
    <contour>
      <point x="600" y="189" type="line"/>
      <point x="500" y="189" type="line"/>
      <point x="500" y="340" type="line"/>
      <point x="40" y="340" type="line"/>
      <point x="40" y="440" type="line"/>
      <point x="600" y="440" type="line"/>
    </contour>
  </outline>
</glyph>
<glyph name="registered" format="2">
  <advance width="867.0"/>
  <unicode hex="00AE"/>
  <outline>
    <contour>
      <point x="59" y="360" type="qcurve" smooth="yes"/>
      <point x="59" y="439"/>
      <point x="116" y="575"/>
      <point x="218" y="677"/>
      <point x="354" y="735"/>
      <point x="433" y="735" type="qcurve" smooth="yes"/>
      <point x="512" y="735"/>
      <point x="648" y="678"/>
      <point x="750" y="576"/>
      <point x="808" y="440"/>
      <point x="808" y="361" type="qcurve" smooth="yes"/>
      <point x="808" y="282"/>
      <point x="750" y="145"/>
      <point x="648" y="42"/>
      <point x="512" y="-16"/>
      <point x="433" y="-16" type="qcurve" smooth="yes"/>
      <point x="354" y="-16"/>
      <point x="218" y="42"/>
      <point x="116" y="145"/>
      <point x="59" y="281"/>
    </contour>
    <contour>
      <point x="125" y="358" type="qcurve" smooth="yes"/>
      <point x="125" y="294"/>
      <point x="173" y="183"/>
      <point x="258" y="98"/>
      <point x="369" y="50"/>
      <point x="433" y="50" type="qcurve" smooth="yes"/>
      <point x="497" y="50"/>
      <point x="608" y="97"/>
      <point x="692" y="181"/>
      <point x="739" y="292"/>
      <point x="739" y="356" type="qcurve" smooth="yes"/>
      <point x="739" y="420"/>
      <point x="691" y="532"/>
      <point x="607" y="617"/>
      <point x="496" y="666"/>
      <point x="432" y="666" type="qcurve" smooth="yes"/>
      <point x="368" y="666"/>
      <point x="257" y="618"/>
      <point x="173" y="533"/>
      <point x="125" y="422"/>
    </contour>
    <contour>
      <point x="275" y="509" type="line"/>
      <point x="275" y="578" type="line"/>
      <point x="443" y="578" type="line" smooth="yes"/>
      <point x="499" y="578"/>
      <point x="573" y="552"/>
      <point x="610" y="500"/>
      <point x="610" y="461" type="qcurve" smooth="yes"/>
      <point x="610" y="419"/>
      <point x="556" y="359"/>
      <point x="518" y="359" type="qcurve"/>
      <point x="547" y="359"/>
      <point x="580" y="327"/>
      <point x="597" y="277"/>
      <point x="606" y="218"/>
      <point x="612" y="164"/>
      <point x="619" y="145" type="qcurve"/>
      <point x="529" y="145" type="line"/>
      <point x="520" y="167"/>
      <point x="515" y="227"/>
      <point x="507" y="284"/>
      <point x="477" y="321"/>
      <point x="443" y="321" type="qcurve" smooth="yes"/>
      <point x="350" y="321" type="line"/>
      <point x="350" y="390" type="line"/>
      <point x="437" y="390" type="line" smooth="yes"/>
      <point x="455" y="390"/>
      <point x="494" y="405"/>
      <point x="520" y="431"/>
      <point x="520" y="448" type="qcurve" smooth="yes"/>
      <point x="520" y="477"/>
      <point x="473" y="509"/>
      <point x="443" y="509" type="qcurve" smooth="yes"/>
    </contour>
    <contour>
      <point x="275" y="145" type="line"/>
      <point x="275" y="578" type="line"/>
      <point x="365" y="578" type="line"/>
      <point x="365" y="145" type="line"/>
    </contour>
  </outline>
</glyph>
<glyph name="macron" format="2">
  <advance width="380.0"/>
  <unicode hex="00AF"/>
  <outline>
    <contour>
      <point x="380" y="600" type="line"/>
      <point x="0" y="600" type="line"/>
      <point x="0" y="700" type="line"/>
      <point x="380" y="700" type="line"/>
    </contour>
  </outline>
</glyph>
<glyph name="degree" format="2">
  <advance width="320.0"/>
  <unicode hex="00B0"/>
  <outline>
    <contour>
      <point x="160" y="730" type="qcurve" smooth="yes"/>
      <point x="192.625" y="730"/>
      <point x="247" y="698"/>
      <point x="280" y="643"/>
      <point x="280" y="609.9672131147541" type="qcurve" smooth="yes"/>
      <point x="280" y="578"/>
      <point x="247.27272727272728" y="523"/>
      <point x="192.72727272727272" y="490"/>
      <point x="160" y="490" type="qcurve" smooth="yes"/>
      <point x="126.70370370370371" y="490"/>
      <point x="73" y="523"/>
      <point x="40" y="578"/>
      <point x="40" y="609.9672131147541" type="qcurve" smooth="yes"/>
      <point x="40" y="643"/>
      <point x="73" y="698"/>
      <point x="126.70370370370371" y="730"/>
    </contour>
    <contour>
      <point x="160" y="550" type="qcurve" smooth="yes"/>
      <point x="184" y="550"/>
      <point x="220" y="586"/>
      <point x="220" y="610.5" type="qcurve" smooth="yes"/>
      <point x="220" y="635"/>
      <point x="184.85714285714286" y="670"/>
      <point x="160" y="670" type="qcurve" smooth="yes"/>
      <point x="136" y="670"/>
      <point x="100" y="634"/>
      <point x="100" y="609.5" type="qcurve" smooth="yes"/>
      <point x="100" y="585"/>
      <point x="134.64788732394365" y="550"/>
    </contour>
  </outline>
</glyph>
<glyph name="plusminus" format="2">
  <advance width="1000.0"/>
  <unicode hex="00B1"/>
  <outline>
    <contour>
      <point x="860" y="358" type="line"/>
      <point x="591" y="358" type="line"/>
      <point x="591" y="178" type="line"/>
      <point x="469" y="178" type="line"/>
      <point x="469" y="358" type="line"/>
      <point x="200" y="358" type="line"/>
      <point x="200" y="480" type="line"/>
      <point x="469" y="480" type="line"/>
      <point x="469" y="660" type="line"/>
      <point x="591" y="660" type="line"/>
      <point x="591" y="480" type="line"/>
      <point x="860" y="480" type="line"/>
    </contour>
    <contour>
      <point x="860" y="0" type="line"/>
      <point x="200" y="0" type="line"/>
      <point x="200" y="122" type="line"/>
      <point x="860" y="122" type="line"/>
    </contour>
  </outline>
</glyph>
<glyph name="twosuperior" format="2">
  <advance width="371.0"/>
  <unicode hex="00B2"/>
  <outline>
    <contour>
      <point x="29" y="410" type="line"/>
      <point x="71" y="443" type="line" smooth="yes"/>
      <point x="118" y="480"/>
      <point x="183" y="533"/>
      <point x="222" y="573"/>
      <point x="240" y="606"/>
      <point x="240" y="623" type="qcurve" smooth="yes"/>
      <point x="240" y="645"/>
      <point x="215" y="674"/>
      <point x="192" y="674" type="qcurve" smooth="yes"/>
      <point x="169" y="674"/>
      <point x="141" y="646"/>
      <point x="141" y="621" type="qcurve"/>
      <point x="34" y="621" type="line"/>
      <point x="34" y="656"/>
      <point x="82" y="707"/>
      <point x="155" y="735"/>
      <point x="195" y="735" type="qcurve" smooth="yes"/>
      <point x="232" y="735"/>
      <point x="300" y="709"/>
      <point x="344" y="656"/>
      <point x="344" y="616" type="qcurve" smooth="yes"/>
      <point x="344" y="590"/>
      <point x="323" y="546"/>
      <point x="281" y="505"/>
      <point x="219" y="460"/>
      <point x="177" y="432" type="qcurve" smooth="yes"/>
      <point x="122" y="395" type="line"/>
      <point x="120" y="402" type="line"/>
      <point x="335" y="402" type="line"/>
      <point x="335" y="341" type="line"/>
      <point x="29" y="341" type="line"/>
    </contour>
  </outline>
</glyph>
<glyph name="threesuperior" format="2">
  <advance width="366.0"/>
  <unicode hex="00B3"/>
  <outline>
    <contour>
      <point x="31" y="447" type="qcurve"/>
      <point x="131" y="447" type="line"/>
      <point x="131" y="418"/>
      <point x="154" y="390"/>
      <point x="178" y="390" type="qcurve" smooth="yes"/>
      <point x="203" y="390"/>
      <point x="229" y="419"/>
      <point x="229" y="446" type="qcurve" smooth="yes"/>
      <point x="229" y="467"/>
      <point x="212" y="497"/>
      <point x="176" y="513"/>
      <point x="146" y="513" type="qcurve" smooth="yes"/>
      <point x="132" y="513" type="line"/>
      <point x="132" y="572" type="line"/>
      <point x="151" y="572" type="line" smooth="yes"/>
      <point x="188" y="572"/>
      <point x="220" y="601"/>
      <point x="220" y="628" type="qcurve" smooth="yes"/>
      <point x="220" y="652"/>
      <point x="198" y="676"/>
      <point x="176" y="676" type="qcurve" smooth="yes"/>
      <point x="154" y="676"/>
      <point x="131" y="650"/>
      <point x="131" y="625" type="qcurve"/>
      <point x="32" y="625" type="line"/>
      <point x="32" y="675"/>
      <point x="111" y="735"/>
      <point x="177" y="735" type="qcurve" smooth="yes"/>
      <point x="243" y="735"/>
      <point x="324" y="673"/>
      <point x="324" y="623" type="qcurve" smooth="yes"/>
      <point x="324" y="590"/>
      <point x="284" y="549"/>
      <point x="241" y="538" type="qcurve"/>
      <point x="241" y="542" type="line"/>
      <point x="285" y="535"/>
      <point x="332" y="487"/>
      <point x="332" y="450" type="qcurve" smooth="yes"/>
      <point x="332" y="398"/>
      <point x="247" y="332"/>
      <point x="173" y="332" type="qcurve" smooth="yes"/>
      <point x="106" y="332"/>
      <point x="31" y="391"/>
    </contour>
  </outline>
</glyph>
<glyph name="acute" format="2">
  <advance width="270.0"/>
  <unicode hex="00B4"/>
  <outline>
    <contour>
      <point x="20" y="580" type="line"/>
      <point x="100" y="730" type="line"/>
      <point x="250" y="730" type="line"/>
      <point x="140" y="580" type="line"/>
    </contour>
  </outline>
</glyph>
<glyph name="paragraph" format="2">
  <advance width="559.0"/>
  <unicode hex="00B6"/>
  <outline>
    <contour>
      <point x="575" y="632" type="line"/>
      <point x="514" y="632" type="line"/>
      <point x="514" y="-160" type="line"/>
      <point x="404" y="-160" type="line"/>
      <point x="404" y="632" type="line"/>
      <point x="344" y="632" type="line"/>
      <point x="344" y="-160" type="line"/>
      <point x="234" y="-160" type="line"/>
      <point x="234" y="352" type="line"/>
      <point x="184" y="352"/>
      <point x="98" y="392"/>
      <point x="45" y="467"/>
      <point x="45" y="519" type="qcurve" smooth="yes"/>
      <point x="45" y="560"/>
      <point x="78" y="633"/>
      <point x="134" y="690"/>
      <point x="206" y="722"/>
      <point x="245" y="722" type="qcurve" smooth="yes"/>
      <point x="575" y="722" type="line"/>
    </contour>
  </outline>
</glyph>
<glyph name="periodcentered" format="2">
  <advance width="206.0"/>
  <unicode hex="00B7"/>
  <outline>
    <contour>
      <point x="166" y="276" type="line"/>
      <point x="40" y="276" type="line"/>
      <point x="40" y="408" type="line"/>
      <point x="166" y="408" type="line"/>
    </contour>
  </outline>
</glyph>
<glyph name="cedilla" format="2">
  <advance width="299.0"/>
  <unicode hex="00B8"/>
  <outline>
    <contour>
      <point x="57" y="-106" type="line"/>
      <point x="99" y="17" type="line"/>
      <point x="149" y="17" type="line"/>
      <point x="120" y="-71" type="line"/>
      <point x="114" y="-57" type="line"/>
      <point x="127" y="-50"/>
      <point x="158" y="-42"/>
      <point x="175" y="-42" type="qcurve" smooth="yes"/>
      <point x="217" y="-42"/>
      <point x="269" y="-85"/>
      <point x="269" y="-119" type="qcurve" smooth="yes"/>
      <point x="269" y="-160"/>
      <point x="194" y="-210"/>
      <point x="133" y="-210" type="qcurve" smooth="yes"/>
      <point x="107" y="-210"/>
      <point x="50" y="-197"/>
      <point x="30" y="-187" type="qcurve"/>
      <point x="43" y="-148" type="line"/>
      <point x="51" y="-155"/>
      <point x="97" y="-170"/>
      <point x="113" y="-170" type="qcurve" smooth="yes"/>
      <point x="136" y="-170"/>
      <point x="164" y="-147"/>
      <point x="164" y="-128" type="qcurve" smooth="yes"/>
      <point x="164" y="-115"/>
      <point x="146" y="-99"/>
      <point x="131" y="-99" type="qcurve" smooth="yes"/>
      <point x="122" y="-99"/>
      <point x="102" y="-107"/>
      <point x="91" y="-118" type="qcurve"/>
    </contour>
  </outline>
</glyph>
<glyph name="onesuperior" format="2">
  <advance width="290.0"/>
  <unicode hex="00B9"/>
  <outline>
    <contour>
      <point x="234" y="336" type="line"/>
      <point x="134" y="336" type="line"/>
      <point x="134" y="646" type="line"/>
      <point x="111" y="630"/>
      <point x="68" y="606"/>
      <point x="41" y="596" type="qcurve"/>
      <point x="41" y="662" type="line"/>
      <point x="57" y="668"/>
      <point x="92" y="684"/>
      <point x="124" y="704"/>
      <point x="134" y="713" type="qcurve" smooth="yes"/>
      <point x="144" y="722" type="line"/>
      <point x="234" y="722" type="line"/>
    </contour>
  </outline>
</glyph>
<glyph name="ordmasculine" format="2">
  <advance width="411.0"/>
  <unicode hex="00BA"/>
  <outline>
    <contour>
      <point x="25" y="524" type="qcurve" smooth="yes"/>
      <point x="25" y="618"/>
      <point x="126" y="709"/>
      <point x="206" y="709" type="qcurve" smooth="yes"/>
      <point x="286" y="709"/>
      <point x="387" y="619"/>
      <point x="387" y="524" type="qcurve" smooth="yes"/>
      <point x="387" y="429"/>
      <point x="287" y="339"/>
      <point x="206" y="339" type="qcurve" smooth="yes"/>
      <point x="125" y="339"/>
      <point x="25" y="429"/>
    </contour>
    <contour>
      <point x="121" y="525" type="qcurve" smooth="yes"/>
      <point x="121" y="491"/>
      <point x="137" y="433"/>
      <point x="175" y="399"/>
      <point x="206" y="399" type="qcurve" smooth="yes"/>
      <point x="238" y="399"/>
      <point x="275" y="433"/>
      <point x="291" y="491"/>
      <point x="291" y="525" type="qcurve" smooth="yes"/>
      <point x="291" y="560"/>
      <point x="275" y="616"/>
      <point x="238" y="650"/>
      <point x="206" y="650" type="qcurve" smooth="yes"/>
      <point x="175" y="650"/>
      <point x="137" y="616"/>
      <point x="121" y="560"/>
    </contour>
    <contour>
      <point x="33" y="230" type="line"/>
      <point x="33" y="277" type="line"/>
      <point x="386" y="277" type="line"/>
      <point x="386" y="230" type="line"/>
    </contour>
  </outline>
</glyph>
<glyph name="guillemotright" format="2">
  <advance width="538.0"/>
  <unicode hex="00BB"/>
  <outline>
    <contour>
      <point x="40" y="57" type="line"/>
      <point x="135" y="263" type="line"/>
      <point x="135" y="241" type="line"/>
      <point x="40" y="447" type="line"/>
      <point x="170" y="447" type="line"/>
      <point x="280" y="252" type="line"/>
      <point x="170" y="57" type="line"/>
    </contour>
    <contour>
      <point x="258" y="57" type="line"/>
      <point x="353" y="263" type="line"/>
      <point x="353" y="241" type="line"/>
      <point x="258" y="447" type="line"/>
      <point x="388" y="447" type="line"/>
      <point x="498" y="252" type="line"/>
      <point x="388" y="57" type="line"/>
    </contour>
  </outline>
</glyph>
<glyph name="onequarter" format="2">
  <advance width="799.0"/>
  <unicode hex="00BC"/>
  <outline>
    <contour>
      <point x="650" y="736" type="line"/>
      <point x="224" y="-14" type="line"/>
      <point x="125" y="-14" type="line"/>
      <point x="551" y="736" type="line"/>
    </contour>
    <contour>
      <point x="523" y="136" type="line"/>
      <point x="517" y="146" type="line"/>
      <point x="762" y="146" type="line"/>
      <point x="762" y="85" type="line"/>
      <point x="444" y="85" type="line"/>
      <point x="444" y="154" type="line"/>
      <point x="603" y="386" type="line"/>
      <point x="718" y="386" type="line"/>
      <point x="718" y="0" type="line"/>
      <point x="622" y="0" type="line"/>
      <point x="622" y="307" type="line"/>
      <point x="628" y="305" type="line"/>
    </contour>
    <contour>
      <point x="234" y="336" type="line"/>
      <point x="134" y="336" type="line"/>
      <point x="134" y="646" type="line"/>
      <point x="111" y="630"/>
      <point x="68" y="606"/>
      <point x="41" y="596" type="qcurve"/>
      <point x="41" y="662" type="line"/>
      <point x="57" y="668"/>
      <point x="92" y="684"/>
      <point x="124" y="704"/>
      <point x="134" y="713" type="qcurve" smooth="yes"/>
      <point x="144" y="722" type="line"/>
      <point x="234" y="722" type="line"/>
    </contour>
  </outline>
</glyph>
<glyph name="onehalf" format="2">
  <advance width="799.0"/>
  <unicode hex="00BD"/>
  <outline>
    <contour>
      <point x="630" y="736" type="line"/>
      <point x="204" y="-14" type="line"/>
      <point x="105" y="-14" type="line"/>
      <point x="531" y="736" type="line"/>
    </contour>
    <contour>
      <point x="234" y="336" type="line"/>
      <point x="134" y="336" type="line"/>
      <point x="134" y="646" type="line"/>
      <point x="111" y="630"/>
      <point x="68" y="606"/>
      <point x="41" y="596" type="qcurve"/>
      <point x="41" y="662" type="line"/>
      <point x="57" y="668"/>
      <point x="92" y="684"/>
      <point x="124" y="704"/>
      <point x="134" y="713" type="qcurve" smooth="yes"/>
      <point x="144" y="722" type="line"/>
      <point x="234" y="722" type="line"/>
    </contour>
    <contour>
      <point x="447" y="69" type="line"/>
      <point x="489" y="102" type="line" smooth="yes"/>
      <point x="536" y="139"/>
      <point x="601" y="192"/>
      <point x="640" y="232"/>
      <point x="658" y="265"/>
      <point x="658" y="282" type="qcurve" smooth="yes"/>
      <point x="658" y="304"/>
      <point x="633" y="333"/>
      <point x="610" y="333" type="qcurve" smooth="yes"/>
      <point x="587" y="333"/>
      <point x="559" y="305"/>
      <point x="559" y="280" type="qcurve"/>
      <point x="452" y="280" type="line"/>
      <point x="452" y="315"/>
      <point x="500" y="366"/>
      <point x="573" y="394"/>
      <point x="613" y="394" type="qcurve" smooth="yes"/>
      <point x="650" y="394"/>
      <point x="718" y="368"/>
      <point x="762" y="315"/>
      <point x="762" y="275" type="qcurve" smooth="yes"/>
      <point x="762" y="249"/>
      <point x="741" y="205"/>
      <point x="699" y="164"/>
      <point x="637" y="119"/>
      <point x="595" y="91" type="qcurve" smooth="yes"/>
      <point x="540" y="54" type="line"/>
      <point x="538" y="61" type="line"/>
      <point x="753" y="61" type="line"/>
      <point x="753" y="0" type="line"/>
      <point x="447" y="0" type="line"/>
    </contour>
  </outline>
</glyph>
<glyph name="AE" format="2">
  <advance width="1026.0"/>
  <unicode hex="00C6"/>
  <outline>
    <contour>
      <point x="10" y="0" type="line"/>
      <point x="398" y="722" type="line"/>
      <point x="480" y="722" type="line"/>
      <point x="480" y="610" type="line"/>
      <point x="153" y="0" type="line"/>
    </contour>
    <contour>
      <point x="209" y="173" type="line"/>
      <point x="270" y="285" type="line"/>
      <point x="515" y="285" type="line"/>
      <point x="515" y="173" type="line"/>
    </contour>
    <contour>
      <point x="600" y="0" type="line"/>
      <point x="600" y="115" type="line"/>
      <point x="957" y="115" type="line"/>
      <point x="957" y="0" type="line"/>
    </contour>
    <contour>
      <point x="600" y="317" type="line"/>
      <point x="600" y="429" type="line"/>
      <point x="927" y="429" type="line"/>
      <point x="927" y="317" type="line"/>
    </contour>
    <contour>
      <point x="600" y="607" type="line"/>
      <point x="600" y="722" type="line"/>
      <point x="947" y="722" type="line"/>
      <point x="947" y="607" type="line"/>
    </contour>
    <contour>
      <point x="480" y="0" type="line"/>
      <point x="480" y="722" type="line"/>
      <point x="630" y="722" type="line"/>
      <point x="630" y="0" type="line"/>
    </contour>
  </outline>
</glyph>
<glyph name="Eth" format="2">
  <advance width="728.0"/>
  <unicode hex="00D0"/>
  <outline>
    <contour>
      <point x="0" y="405" type="line"/>
      <point x="360" y="405" type="line"/>
      <point x="360" y="315" type="line"/>
      <point x="0" y="315" type="line"/>
    </contour>
    <contour>
      <point x="138" y="0" type="line"/>
      <point x="138" y="114" type="line"/>
      <point x="359" y="114" type="line" smooth="yes"/>
      <point x="416" y="114"/>
      <point x="489" y="166"/>
      <point x="524" y="274"/>
      <point x="524" y="359" type="qcurve" smooth="yes"/>
      <point x="524" y="445"/>
      <point x="489" y="554"/>
      <point x="416" y="607"/>
      <point x="359" y="607" type="qcurve" smooth="yes"/>
      <point x="138" y="607" type="line"/>
      <point x="138" y="722" type="line"/>
      <point x="399" y="722" type="line" smooth="yes"/>
      <point x="481" y="722"/>
      <point x="605" y="638"/>
      <point x="674" y="477"/>
      <point x="674" y="359" type="qcurve" smooth="yes"/>
      <point x="674" y="243"/>
      <point x="605" y="83"/>
      <point x="481" y="0"/>
      <point x="399" y="0" type="qcurve" smooth="yes"/>
    </contour>
    <contour>
      <point x="70" y="0" type="line"/>
      <point x="70" y="722" type="line"/>
      <point x="220" y="722" type="line"/>
      <point x="220" y="0" type="line"/>
    </contour>
  </outline>
</glyph>
<glyph name="multiply" format="2">
  <advance width="691.0"/>
  <unicode hex="00D7"/>
  <outline>
    <contour>
      <point x="50" y="110" type="line"/>
      <point x="551" y="611" type="line"/>
      <point x="631" y="531" type="line"/>
      <point x="130" y="30" type="line"/>
    </contour>
    <contour>
      <point x="571" y="20" type="line"/>
      <point x="70" y="521" type="line"/>
      <point x="159" y="611" type="line"/>
      <point x="660" y="110" type="line"/>
    </contour>
  </outline>
</glyph>
<glyph name="Oslash" format="2">
  <advance width="776.0"/>
  <unicode hex="00D8"/>
  <outline>
    <contour>
      <point x="172" y="-14" type="line"/>
      <point x="73" y="-14" type="line"/>
      <point x="581" y="736" type="line"/>
      <point x="673" y="736" type="line"/>
    </contour>
    <contour>
      <point x="46" y="361" type="qcurve" smooth="yes"/>
      <point x="46" y="479"/>
      <point x="128" y="646"/>
      <point x="281" y="736"/>
      <point x="388" y="736" type="qcurve" smooth="yes"/>
      <point x="495" y="736"/>
      <point x="648" y="646"/>
      <point x="730" y="479"/>
      <point x="730" y="361" type="qcurve" smooth="yes"/>
      <point x="730" y="243"/>
      <point x="648" y="76"/>
      <point x="495" y="-14"/>
      <point x="388" y="-14" type="qcurve" smooth="yes"/>
      <point x="281" y="-14"/>
      <point x="128" y="76"/>
      <point x="46" y="243"/>
    </contour>
    <contour>
      <point x="202" y="361" type="qcurve" smooth="yes"/>
      <point x="202" y="227"/>
      <point x="291" y="102"/>
      <point x="388" y="102" type="qcurve" smooth="yes"/>
      <point x="485" y="102"/>
      <point x="574" y="227"/>
      <point x="574" y="361" type="qcurve" smooth="yes"/>
      <point x="574" y="495"/>
      <point x="485" y="620"/>
      <point x="388" y="620" type="qcurve" smooth="yes"/>
      <point x="291" y="620"/>
      <point x="202" y="495"/>
    </contour>
  </outline>
</glyph>
<glyph name="Thorn" format="2">
  <advance width="637.0"/>
  <unicode hex="00DE"/>
  <outline>
    <contour>
      <point x="195" y="163" type="line"/>
      <point x="195" y="278" type="line"/>
      <point x="310" y="278" type="line" smooth="yes"/>
      <point x="352" y="278"/>
      <point x="411" y="297"/>
      <point x="441" y="343"/>
      <point x="441" y="381" type="qcurve" smooth="yes"/>
      <point x="441" y="420"/>
      <point x="411" y="466"/>
      <point x="353" y="486"/>
      <point x="310" y="486" type="qcurve" smooth="yes"/>
      <point x="195" y="486" type="line"/>
      <point x="195" y="601" type="line"/>
      <point x="310" y="601" type="line" smooth="yes"/>
      <point x="392" y="601"/>
      <point x="518" y="556"/>
      <point x="591" y="460"/>
      <point x="591" y="381" type="qcurve" smooth="yes"/>
      <point x="591" y="302"/>
      <point x="518" y="206"/>
      <point x="392" y="163"/>
      <point x="310" y="163" type="qcurve" smooth="yes"/>
    </contour>
    <contour>
      <point x="60" y="0" type="line"/>
      <point x="60" y="722" type="line"/>
      <point x="210" y="722" type="line"/>
      <point x="210" y="0" type="line"/>
    </contour>
  </outline>
</glyph>
<glyph name="germandbls" format="2">
  <advance width="634.0"/>
  <unicode hex="00DF"/>
  <outline>
    <contour>
      <point x="60" y="0" type="line"/>
      <point x="60" y="546" type="line" smooth="yes"/>
      <point x="60" y="641"/>
      <point x="177" y="737"/>
      <point x="295" y="737" type="qcurve" smooth="yes"/>
      <point x="331" y="737"/>
      <point x="406" y="722"/>
      <point x="470" y="687"/>
      <point x="510" y="631"/>
      <point x="510" y="590" type="qcurve" smooth="yes"/>
      <point x="510" y="554"/>
      <point x="485" y="501"/>
      <point x="449" y="460"/>
      <point x="412" y="429"/>
      <point x="387" y="400"/>
      <point x="387" y="384" type="qcurve" smooth="yes"/>
      <point x="387" y="363"/>
      <point x="426" y="331"/>
      <point x="483" y="299"/>
      <point x="541" y="258"/>
      <point x="580" y="198"/>
      <point x="580" y="152" type="qcurve" smooth="yes"/>
      <point x="580" y="80"/>
      <point x="475" y="-13"/>
      <point x="382" y="-13" type="qcurve" smooth="yes"/>
      <point x="310" y="-13"/>
      <point x="228" y="56"/>
      <point x="228" y="139" type="qcurve"/>
      <point x="342" y="139" type="line"/>
      <point x="342" y="105"/>
      <point x="369" y="71"/>
      <point x="395" y="71" type="qcurve" smooth="yes"/>
      <point x="422" y="71"/>
      <point x="445" y="106"/>
      <point x="445" y="140" type="qcurve" smooth="yes"/>
      <point x="445" y="167"/>
      <point x="416" y="204"/>
      <point x="371" y="232"/>
      <point x="320" y="259"/>
      <point x="275" y="291"/>
      <point x="246" y="337"/>
      <point x="246" y="370" type="qcurve" smooth="yes"/>
      <point x="246" y="394"/>
      <point x="272" y="433"/>
      <point x="310" y="469"/>
      <point x="349" y="508"/>
      <point x="375" y="554"/>
      <point x="375" y="583" type="qcurve" smooth="yes"/>
      <point x="375" y="615"/>
      <point x="333" y="651"/>
      <point x="290" y="651" type="qcurve" smooth="yes"/>
      <point x="240" y="651"/>
      <point x="195" y="599"/>
      <point x="195" y="546" type="qcurve" smooth="yes"/>
      <point x="195" y="0" type="line"/>
    </contour>
  </outline>
</glyph>
<glyph name="ae" format="2">
  <advance width="890.0"/>
  <unicode hex="00E6"/>
  <outline>
    <contour>
      <point x="46" y="145" type="qcurve" smooth="yes"/>
      <point x="46" y="197"/>
      <point x="102" y="275"/>
      <point x="203" y="318"/>
      <point x="270" y="318" type="qcurve" smooth="yes"/>
      <point x="279" y="318"/>
      <point x="313" y="317"/>
      <point x="355" y="316"/>
      <point x="394" y="314"/>
      <point x="408" y="313" type="qcurve"/>
      <point x="408" y="239" type="line"/>
      <point x="384" y="240"/>
      <point x="339" y="242"/>
      <point x="304" y="242"/>
      <point x="295" y="242" type="qcurve" smooth="yes"/>
      <point x="266" y="242"/>
      <point x="223" y="229"/>
      <point x="196" y="206"/>
      <point x="182" y="175"/>
      <point x="182" y="157" type="qcurve" smooth="yes"/>
      <point x="182" y="122"/>
      <point x="225" y="77"/>
      <point x="258" y="77" type="qcurve" smooth="yes"/>
      <point x="292" y="77"/>
      <point x="343" y="118"/>
      <point x="371" y="196"/>
      <point x="371" y="252" type="qcurve" smooth="yes"/>
      <point x="371" y="304" type="line" smooth="yes"/>
      <point x="371" y="368"/>
      <point x="312" y="428"/>
      <point x="270" y="428" type="qcurve" smooth="yes"/>
      <point x="239" y="428"/>
      <point x="199" y="392"/>
      <point x="199" y="362" type="qcurve"/>
      <point x="63" y="362" type="line"/>
      <point x="63" y="408"/>
      <point x="116" y="476"/>
      <point x="211" y="514"/>
      <point x="274" y="514" type="qcurve" smooth="yes"/>
      <point x="325" y="514"/>
      <point x="401" y="489"/>
      <point x="449" y="447"/>
      <point x="457" y="421" type="qcurve"/>
      <point x="447" y="420" type="line"/>
      <point x="461" y="448"/>
      <point x="517" y="490"/>
      <point x="591" y="514"/>
      <point x="632" y="514" type="qcurve" smooth="yes"/>
      <point x="695" y="514"/>
      <point x="790" y="460"/>
      <point x="844" y="362"/>
      <point x="844" y="297" type="qcurve" smooth="yes"/>
      <point x="844" y="240" type="line"/>
      <point x="467" y="240" type="line"/>
      <point x="467" y="315" type="line"/>
      <point x="704" y="315" type="line"/>
      <point x="704" y="366"/>
      <point x="654" y="429"/>
      <point x="613" y="429" type="qcurve" smooth="yes"/>
      <point x="567" y="429"/>
      <point x="510" y="351"/>
      <point x="510" y="287" type="qcurve" smooth="yes"/>
      <point x="510" y="238"/>
      <point x="526" y="159"/>
      <point x="555" y="102"/>
      <point x="595" y="71"/>
      <point x="621" y="71" type="qcurve" smooth="yes"/>
      <point x="653" y="71"/>
      <point x="696" y="118"/>
      <point x="700" y="155" type="qcurve"/>
      <point x="836" y="155" type="line"/>
      <point x="831" y="104"/>
      <point x="778" y="28"/>
      <point x="692" y="-14"/>
      <point x="637" y="-14" type="qcurve" smooth="yes"/>
      <point x="587" y="-14"/>
      <point x="499" y="21"/>
      <point x="435" y="84"/>
      <point x="421" y="126" type="qcurve"/>
      <point x="466" y="126" type="line"/>
      <point x="447" y="84"/>
      <point x="377" y="22"/>
      <point x="284" y="-13"/>
      <point x="234" y="-13" type="qcurve" smooth="yes"/>
      <point x="177" y="-13"/>
      <point x="93" y="27"/>
      <point x="46" y="98"/>
    </contour>
  </outline>
</glyph>
<glyph name="eth" format="2">
  <advance width="604.0"/>
  <unicode hex="00F0"/>
  <outline>
    <contour>
      <point x="44" y="248" type="qcurve" smooth="yes"/>
      <point x="44" y="328"/>
      <point x="104" y="447"/>
      <point x="217" y="512"/>
      <point x="296" y="512" type="qcurve" smooth="yes"/>
      <point x="313" y="512"/>
      <point x="339" y="509"/>
      <point x="363" y="504"/>
      <point x="374" y="501" type="qcurve"/>
      <point x="368" y="495" type="line"/>
      <point x="355" y="523"/>
      <point x="306" y="578"/>
      <point x="243" y="631"/>
      <point x="174" y="674"/>
      <point x="141" y="689" type="qcurve"/>
      <point x="206" y="736" type="line"/>
      <point x="330" y="682"/>
      <point x="486" y="552"/>
      <point x="558" y="374"/>
      <point x="558" y="247" type="qcurve" smooth="yes"/>
      <point x="558" y="166"/>
      <point x="503" y="47"/>
      <point x="391" y="-17"/>
      <point x="308" y="-17" type="qcurve" smooth="yes"/>
      <point x="184" y="-17"/>
      <point x="44" y="125"/>
    </contour>
    <contour>
      <point x="175" y="247" type="qcurve" smooth="yes"/>
      <point x="175" y="198"/>
      <point x="200" y="117"/>
      <point x="256" y="68"/>
      <point x="302" y="68" type="qcurve" smooth="yes"/>
      <point x="333" y="68"/>
      <point x="378" y="90"/>
      <point x="408" y="135"/>
      <point x="423" y="202"/>
      <point x="423" y="247" type="qcurve" smooth="yes"/>
      <point x="423" y="307"/>
      <point x="396" y="386"/>
      <point x="343" y="426"/>
      <point x="302" y="426" type="qcurve" smooth="yes"/>
      <point x="256" y="426"/>
      <point x="200" y="377"/>
      <point x="175" y="296"/>
    </contour>
    <contour>
      <point x="105" y="566" type="line"/>
      <point x="506" y="751" type="line"/>
      <point x="530" y="696" type="line"/>
      <point x="130" y="513" type="line"/>
    </contour>
  </outline>
</glyph>
<glyph name="divide" format="2">
  <advance width="1000.0"/>
  <unicode hex="00F7"/>
  <outline>
    <contour>
      <point x="800" y="250" type="line"/>
      <point x="200" y="250" type="line"/>
      <point x="200" y="350" type="line"/>
      <point x="800" y="350" type="line"/>
    </contour>
    <contour>
      <point x="432" y="39" type="line"/>
      <point x="432" y="181" type="line"/>
      <point x="568" y="181" type="line"/>
      <point x="568" y="39" type="line"/>
    </contour>
    <contour>
      <point x="432" y="421" type="line"/>
      <point x="432" y="563" type="line"/>
      <point x="568" y="563" type="line"/>
      <point x="568" y="421" type="line"/>
    </contour>
  </outline>
</glyph>
<glyph name="oslash" format="2">
  <advance width="591.0"/>
  <unicode hex="00F8"/>
  <outline>
    <contour>
      <point x="155" y="-14" type="line"/>
      <point x="24" y="-14" type="line"/>
      <point x="419" y="514" type="line"/>
      <point x="549" y="514" type="line"/>
    </contour>
    <contour>
      <point x="44" y="250" type="qcurve" smooth="yes"/>
      <point x="44" y="328"/>
      <point x="110" y="447"/>
      <point x="227" y="514"/>
      <point x="303" y="514" type="qcurve" smooth="yes"/>
      <point x="380" y="514"/>
      <point x="495" y="447"/>
      <point x="560" y="328"/>
      <point x="560" y="250" type="qcurve" smooth="yes"/>
      <point x="560" y="172"/>
      <point x="495" y="53"/>
      <point x="379" y="-14"/>
      <point x="303" y="-14" type="qcurve" smooth="yes"/>
      <point x="227" y="-14"/>
      <point x="110" y="53"/>
      <point x="44" y="172"/>
    </contour>
    <contour>
      <point x="179" y="250" type="qcurve" smooth="yes"/>
      <point x="179" y="193"/>
      <point x="208" y="113"/>
      <point x="263" y="72"/>
      <point x="302" y="72" type="qcurve" smooth="yes"/>
      <point x="342" y="72"/>
      <point x="396" y="113"/>
      <point x="425" y="193"/>
      <point x="425" y="250" type="qcurve" smooth="yes"/>
      <point x="425" y="308"/>
      <point x="396" y="387"/>
      <point x="342" y="428"/>
      <point x="302" y="428" type="qcurve" smooth="yes"/>
      <point x="263" y="428"/>
      <point x="208" y="387"/>
      <point x="179" y="308"/>
    </contour>
  </outline>
</glyph>
<glyph name="thorn" format="2">
  <advance width="611.0"/>
  <unicode hex="00FE"/>
  <outline>
    <contour>
      <point x="60" y="-200" type="line"/>
      <point x="60" y="722" type="line"/>
      <point x="195" y="722" type="line"/>
      <point x="195" y="-200" type="line"/>
    </contour>
    <contour>
      <point x="173" y="78" type="qcurve"/>
      <point x="173" y="430" type="line"/>
      <point x="203" y="461"/>
      <point x="255" y="498"/>
      <point x="308" y="514"/>
      <point x="340" y="514" type="qcurve" smooth="yes"/>
      <point x="411" y="514"/>
      <point x="513" y="450"/>
      <point x="567" y="333"/>
      <point x="567" y="252" type="qcurve" smooth="yes"/>
      <point x="567" y="170"/>
      <point x="511" y="51"/>
      <point x="411" y="-14"/>
      <point x="344" y="-14" type="qcurve" smooth="yes"/>
      <point x="290" y="-14"/>
      <point x="207" y="31"/>
    </contour>
    <contour>
      <point x="195" y="246" type="qcurve" smooth="yes"/>
      <point x="195" y="198"/>
      <point x="228" y="120"/>
      <point x="285" y="75"/>
      <point x="320" y="75" type="qcurve" smooth="yes"/>
      <point x="354" y="75"/>
      <point x="404" y="117"/>
      <point x="432" y="193"/>
      <point x="432" y="243" type="qcurve" smooth="yes"/>
      <point x="432" y="298"/>
      <point x="400" y="381"/>
      <point x="344" y="429"/>
      <point x="308" y="429" type="qcurve" smooth="yes"/>
      <point x="282" y="429"/>
      <point x="240" y="403"/>
      <point x="211" y="354"/>
      <point x="195" y="287"/>
    </contour>
  </outline>
</glyph>
<glyph name="dcroat" format="2">
  <advance width="561.0"/>
  <unicode hex="0111"/>
  <outline>
    <contour>
      <point x="298" y="648" type="line"/>
      <point x="600" y="648" type="line"/>
      <point x="600" y="563" type="line"/>
      <point x="298" y="563" type="line"/>
    </contour>
    <contour>
      <point x="412" y="0" type="line"/>
      <point x="412" y="722" type="line"/>
      <point x="547" y="722" type="line"/>
      <point x="547" y="0" type="line"/>
    </contour>
    <contour>
      <point x="45" y="252" type="qcurve" smooth="yes"/>
      <point x="45" y="326"/>
      <point x="95" y="445"/>
      <point x="194" y="514"/>
      <point x="268" y="514" type="qcurve" smooth="yes"/>
      <point x="306" y="514"/>
      <point x="366" y="496"/>
      <point x="410" y="461"/>
      <point x="424" y="434" type="qcurve"/>
      <point x="424" y="84" type="line"/>
      <point x="411" y="57"/>
      <point x="363" y="12"/>
      <point x="304" y="-14"/>
      <point x="276" y="-14" type="qcurve" smooth="yes"/>
      <point x="198" y="-14"/>
      <point x="95" y="57"/>
      <point x="45" y="178"/>
    </contour>
    <contour>
      <point x="180" y="245" type="qcurve" smooth="yes"/>
      <point x="180" y="206"/>
      <point x="202" y="128"/>
      <point x="251" y="76"/>
      <point x="292" y="76" type="qcurve" smooth="yes"/>
      <point x="334" y="76"/>
      <point x="387" y="128"/>
      <point x="413" y="209"/>
      <point x="413" y="253" type="qcurve" smooth="yes"/>
      <point x="413" y="277"/>
      <point x="404" y="336"/>
      <point x="380" y="392"/>
      <point x="335" y="428"/>
      <point x="300" y="428" type="qcurve" smooth="yes"/>
      <point x="265" y="428"/>
      <point x="219" y="393"/>
      <point x="192" y="337"/>
      <point x="180" y="274"/>
    </contour>
  </outline>
</glyph>
<glyph name="Hbar" format="2">
  <advance width="715.0"/>
  <unicode hex="0126"/>
  <outline>
    <contour>
      <point x="15" y="506" type="line"/>
      <point x="15" y="606" type="line"/>
      <point x="700" y="606" type="line"/>
      <point x="700" y="506" type="line"/>
    </contour>
    <contour>
      <point x="190" y="436" type="line"/>
      <point x="535" y="436" type="line"/>
      <point x="535" y="320" type="line"/>
      <point x="190" y="320" type="line"/>
    </contour>
    <contour>
      <point x="70" y="0" type="line"/>
      <point x="70" y="722" type="line"/>
      <point x="220" y="722" type="line"/>
      <point x="220" y="0" type="line"/>
    </contour>
    <contour>
      <point x="505" y="0" type="line"/>
      <point x="505" y="722" type="line"/>
      <point x="655" y="722" type="line"/>
      <point x="655" y="0" type="line"/>
    </contour>
  </outline>
</glyph>
<glyph name="hbar" format="2">
  <advance width="583.0"/>
  <unicode hex="0127"/>
  <outline>
    <contour>
      <point x="-31" y="630" type="line"/>
      <point x="334" y="630" type="line"/>
      <point x="334" y="545" type="line"/>
      <point x="-31" y="545" type="line"/>
    </contour>
    <contour>
      <point x="202" y="279" type="line"/>
      <point x="202" y="405" type="line"/>
      <point x="222" y="433" type="line" smooth="yes"/>
      <point x="242" y="460"/>
      <point x="289" y="496"/>
      <point x="347" y="514"/>
      <point x="382" y="514" type="qcurve" smooth="yes"/>
      <point x="464" y="514"/>
      <point x="553" y="423"/>
      <point x="553" y="339" type="qcurve" smooth="yes"/>
      <point x="553" y="0" type="line"/>
      <point x="417" y="0" type="line"/>
      <point x="417" y="299" type="line" smooth="yes"/>
      <point x="417" y="366"/>
      <point x="373" y="432"/>
      <point x="328" y="432" type="qcurve" smooth="yes"/>
      <point x="294" y="432"/>
      <point x="247" y="396"/>
      <point x="222" y="328"/>
      <point x="222" y="279" type="qcurve"/>
    </contour>
    <contour>
      <point x="86" y="0" type="line"/>
      <point x="86" y="722" type="line"/>
      <point x="222" y="722" type="line"/>
      <point x="222" y="0" type="line"/>
    </contour>
  </outline>
</glyph>
<glyph name="dotlessi" format="2">
  <advance width="256.0"/>
  <unicode hex="0131"/>
  <outline>
    <contour>
      <point x="60" y="0" type="line"/>
      <point x="60" y="500" type="line"/>
      <point x="196" y="500" type="line"/>
      <point x="196" y="0" type="line"/>
    </contour>
  </outline>
</glyph>
<glyph name="kgreenlandic" format="2">
  <advance width="559.0"/>
  <unicode hex="0138"/>
  <outline>
    <contour>
      <point x="195" y="0" type="line"/>
      <point x="60" y="0" type="line"/>
      <point x="60" y="454" type="line"/>
      <point x="195" y="500" type="line"/>
    </contour>
    <contour>
      <point x="549" y="0" type="line"/>
      <point x="385" y="0" type="line"/>
      <point x="200" y="283" type="line"/>
      <point x="371" y="500" type="line"/>
      <point x="533" y="500" type="line"/>
      <point x="345" y="275" type="line"/>
      <point x="346" y="294" type="line"/>
    </contour>
  </outline>
</glyph>
<glyph name="Lslash" format="2">
  <advance width="666.0"/>
  <unicode hex="0141"/>
  <outline>
    <contour>
      <point x="316" y="357" type="line"/>
      <point x="316" y="479" type="line"/>
      <point x="428" y="590" type="line"/>
      <point x="428" y="468" type="line"/>
    </contour>
    <contour>
      <point x="166" y="331" type="line"/>
      <point x="166" y="209" type="line"/>
      <point x="70" y="113" type="line"/>
      <point x="70" y="235" type="line"/>
    </contour>
    <contour>
      <point x="316" y="115" type="line"/>
      <point x="653" y="115" type="line"/>
      <point x="653" y="0" type="line"/>
      <point x="316" y="0" type="line"/>
    </contour>
    <contour>
      <point x="166" y="0" type="line"/>
      <point x="166" y="722" type="line"/>
      <point x="316" y="722" type="line"/>
      <point x="316" y="0" type="line"/>
    </contour>
  </outline>
</glyph>
<glyph name="lslash" format="2">
  <advance width="438.0"/>
  <unicode hex="0142"/>
  <outline>
    <contour>
      <point x="60" y="312" type="line"/>
      <point x="379" y="587" type="line"/>
      <point x="379" y="465" type="line"/>
      <point x="60" y="193" type="line"/>
    </contour>
    <contour>
      <point x="140" y="0" type="line"/>
      <point x="140" y="722" type="line"/>
      <point x="290" y="722" type="line"/>
      <point x="290" y="0" type="line"/>
    </contour>
  </outline>
</glyph>
<glyph name="Eng" format="2">
  <advance width="683.0"/>
  <unicode hex="014A"/>
  <outline>
    <contour>
      <point x="698" y="20" type="line"/>
      <point x="698" y="-72" type="line" smooth="yes"/>
      <point x="698" y="-110"/>
      <point x="656" y="-168"/>
      <point x="584" y="-200"/>
      <point x="540" y="-200" type="qcurve" smooth="yes"/>
      <point x="499" y="-200"/>
      <point x="411" y="-171"/>
      <point x="385" y="-143" type="qcurve"/>
      <point x="455" y="-64" type="line"/>
      <point x="465" y="-76"/>
      <point x="494" y="-90"/>
      <point x="513" y="-90" type="qcurve" smooth="yes"/>
      <point x="538" y="-90"/>
      <point x="569" y="-66"/>
      <point x="569" y="-52" type="qcurve" smooth="yes"/>
      <point x="569" y="20" type="line"/>
    </contour>
    <contour>
      <point x="140" y="722" type="line"/>
      <point x="280" y="722" type="line"/>
      <point x="628" y="0" type="line"/>
      <point x="488" y="0" type="line"/>
    </contour>
    <contour>
      <point x="210" y="722" type="line"/>
      <point x="210" y="0" type="line"/>
      <point x="70" y="0" type="line"/>
      <point x="70" y="722" type="line"/>
    </contour>
    <contour>
      <point x="558" y="0" type="line"/>
      <point x="558" y="722" type="line"/>
      <point x="698" y="722" type="line"/>
      <point x="698" y="0" type="line"/>
    </contour>
  </outline>
</glyph>
<glyph name="eng" format="2">
  <advance width="586.0"/>
  <unicode hex="014B"/>
  <outline>
    <contour>
      <point x="198" y="-143" type="qcurve"/>
      <point x="277" y="-60" type="line"/>
      <point x="286" y="-71"/>
      <point x="312" y="-80"/>
      <point x="325" y="-80" type="qcurve" smooth="yes"/>
      <point x="356" y="-80"/>
      <point x="391" y="-41"/>
      <point x="391" y="-12" type="qcurve" smooth="yes"/>
      <point x="391" y="50" type="line"/>
      <point x="526" y="50" type="line"/>
      <point x="526" y="-62" type="line" smooth="yes"/>
      <point x="526" y="-104"/>
      <point x="481" y="-166"/>
      <point x="406" y="-200"/>
      <point x="362" y="-200" type="qcurve" smooth="yes"/>
      <point x="335" y="-200"/>
      <point x="272" y="-187"/>
      <point x="215" y="-162"/>
    </contour>
    <contour>
      <point x="176" y="279" type="line"/>
      <point x="176" y="433" type="line"/>
      <point x="198" y="433" type="line"/>
      <point x="227" y="474"/>
      <point x="304" y="514"/>
      <point x="356" y="514" type="qcurve" smooth="yes"/>
      <point x="411" y="514"/>
      <point x="487" y="472"/>
      <point x="527" y="392"/>
      <point x="527" y="334" type="qcurve" smooth="yes"/>
      <point x="527" y="0" type="line"/>
      <point x="391" y="0" type="line"/>
      <point x="391" y="307" type="line" smooth="yes"/>
      <point x="391" y="349"/>
      <point x="371" y="404"/>
      <point x="332" y="432"/>
      <point x="302" y="432" type="qcurve" smooth="yes"/>
      <point x="268" y="432"/>
      <point x="221" y="396"/>
      <point x="196" y="328"/>
      <point x="196" y="279" type="qcurve"/>
    </contour>
    <contour>
      <point x="60" y="0" type="line"/>
      <point x="60" y="500" type="line"/>
      <point x="196" y="500" type="line"/>
      <point x="196" y="0" type="line"/>
    </contour>
  </outline>
</glyph>
<glyph name="OE" format="2">
  <advance width="1023.0"/>
  <unicode hex="0152"/>
  <outline>
    <contour>
      <point x="56" y="361" type="qcurve" smooth="yes"/>
      <point x="56" y="470"/>
      <point x="131" y="639"/>
      <point x="283" y="736"/>
      <point x="398" y="736" type="qcurve"/>
      <point x="398" y="622" type="line"/>
      <point x="328" y="622"/>
      <point x="244" y="562"/>
      <point x="207" y="446"/>
      <point x="207" y="361" type="qcurve" smooth="yes"/>
      <point x="207" y="276"/>
      <point x="244" y="160"/>
      <point x="328" y="100"/>
      <point x="398" y="100" type="qcurve"/>
      <point x="398" y="-14" type="line"/>
      <point x="283" y="-14"/>
      <point x="131" y="83"/>
      <point x="56" y="252"/>
    </contour>
    <contour>
      <point x="398" y="622" type="qcurve"/>
      <point x="398" y="736" type="line"/>
      <point x="420" y="736"/>
      <point x="462" y="732"/>
      <point x="501" y="724"/>
      <point x="519" y="718" type="qcurve"/>
      <point x="496" y="595" type="line"/>
      <point x="471" y="611"/>
      <point x="425" y="622"/>
    </contour>
    <contour>
      <point x="398" y="-14" type="qcurve"/>
      <point x="398" y="100" type="line"/>
      <point x="425" y="100"/>
      <point x="474" y="114"/>
      <point x="496" y="128" type="qcurve"/>
      <point x="521" y="4" type="line"/>
      <point x="502" y="-2"/>
      <point x="461" y="-10"/>
      <point x="420" y="-14"/>
    </contour>
    <contour>
      <point x="614" y="116" type="line"/>
      <point x="971" y="116" type="line"/>
      <point x="971" y="0" type="line"/>
      <point x="614" y="0" type="line"/>
    </contour>
    <contour>
      <point x="614" y="431" type="line"/>
      <point x="941" y="431" type="line"/>
      <point x="941" y="315" type="line"/>
      <point x="614" y="315" type="line"/>
    </contour>
    <contour>
      <point x="614" y="722" type="line"/>
      <point x="961" y="722" type="line"/>
      <point x="961" y="606" type="line"/>
      <point x="614" y="606" type="line"/>
    </contour>
    <contour>
      <point x="484" y="0" type="line"/>
      <point x="484" y="722" type="line"/>
      <point x="634" y="722" type="line"/>
      <point x="634" y="0" type="line"/>
    </contour>
  </outline>
</glyph>
<glyph name="oe" format="2">
  <advance width="930.0"/>
  <unicode hex="0153"/>
  <outline>
    <contour>
      <point x="44" y="250" type="qcurve" smooth="yes"/>
      <point x="44" y="328"/>
      <point x="110" y="447"/>
      <point x="227" y="514"/>
      <point x="303" y="514" type="qcurve" smooth="yes"/>
      <point x="380" y="514"/>
      <point x="495" y="447"/>
      <point x="560" y="328"/>
      <point x="560" y="250" type="qcurve" smooth="yes"/>
      <point x="560" y="172"/>
      <point x="495" y="53"/>
      <point x="379" y="-14"/>
      <point x="303" y="-14" type="qcurve" smooth="yes"/>
      <point x="227" y="-14"/>
      <point x="110" y="53"/>
      <point x="44" y="172"/>
    </contour>
    <contour>
      <point x="179" y="250" type="qcurve" smooth="yes"/>
      <point x="179" y="193"/>
      <point x="208" y="113"/>
      <point x="263" y="72"/>
      <point x="302" y="72" type="qcurve" smooth="yes"/>
      <point x="342" y="72"/>
      <point x="396" y="113"/>
      <point x="425" y="193"/>
      <point x="425" y="250" type="qcurve" smooth="yes"/>
      <point x="425" y="308"/>
      <point x="396" y="387"/>
      <point x="342" y="428"/>
      <point x="302" y="428" type="qcurve" smooth="yes"/>
      <point x="263" y="428"/>
      <point x="208" y="387"/>
      <point x="179" y="308"/>
    </contour>
    <contour>
      <point x="424" y="241" type="qcurve" smooth="yes"/>
      <point x="424" y="321"/>
      <point x="476" y="444"/>
      <point x="581" y="514"/>
      <point x="661" y="514" type="qcurve" smooth="yes"/>
      <point x="741" y="514"/>
      <point x="840" y="446"/>
      <point x="886" y="331"/>
      <point x="886" y="261" type="qcurve" smooth="yes"/>
      <point x="886" y="223" type="line"/>
      <point x="564" y="223" type="line"/>
      <point x="564" y="188"/>
      <point x="575" y="118"/>
      <point x="614" y="72"/>
      <point x="655" y="72" type="qcurve" smooth="yes"/>
      <point x="697" y="72"/>
      <point x="739" y="120"/>
      <point x="743" y="156" type="qcurve"/>
      <point x="879" y="156" type="line"/>
      <point x="871" y="71"/>
      <point x="760" y="-14"/>
      <point x="665" y="-14" type="qcurve" smooth="yes"/>
      <point x="579" y="-14"/>
      <point x="473" y="50"/>
      <point x="424" y="165"/>
    </contour>
    <contour>
      <point x="564" y="308" type="qcurve"/>
      <point x="746" y="308" type="line"/>
      <point x="746" y="342"/>
      <point x="728" y="396"/>
      <point x="689" y="429"/>
      <point x="655" y="429" type="qcurve" smooth="yes"/>
      <point x="605" y="429"/>
      <point x="564" y="358"/>
    </contour>
  </outline>
</glyph>
<glyph name="Tbar" format="2">
  <advance width="622.0"/>
  <unicode hex="0166"/>
  <outline>
    <contour>
      <point x="107" y="306" type="line"/>
      <point x="107" y="406" type="line"/>
      <point x="529" y="406" type="line"/>
      <point x="529" y="306" type="line"/>
    </contour>
    <contour>
      <point x="606" y="607" type="line"/>
      <point x="393" y="607" type="line"/>
      <point x="393" y="0" type="line"/>
      <point x="243" y="0" type="line"/>
      <point x="243" y="607" type="line"/>
      <point x="30" y="607" type="line"/>
      <point x="30" y="722" type="line"/>
      <point x="606" y="722" type="line"/>
    </contour>
  </outline>
</glyph>
<glyph name="longs" format="2">
  <advance width="354.0"/>
  <unicode hex="017F"/>
  <outline>
    <contour>
      <point x="100" y="0" type="line"/>
      <point x="100" y="575" type="line" smooth="yes"/>
      <point x="100" y="661"/>
      <point x="172" y="735"/>
      <point x="248" y="735" type="qcurve" smooth="yes"/>
      <point x="276" y="735"/>
      <point x="327" y="726"/>
      <point x="355" y="717" type="qcurve"/>
      <point x="355" y="632" type="line"/>
      <point x="341" y="640"/>
      <point x="312" y="646"/>
      <point x="297" y="646" type="qcurve" smooth="yes"/>
      <point x="260" y="646"/>
      <point x="235" y="610"/>
      <point x="235" y="572" type="qcurve" smooth="yes"/>
      <point x="235" y="0" type="line"/>
    </contour>
    <contour>
      <point x="10" y="415" type="line"/>
      <point x="10" y="500" type="line"/>
      <point x="115" y="500" type="line"/>
      <point x="115" y="415" type="line"/>
    </contour>
  </outline>
</glyph>
<glyph name="florin" format="2">
  <advance width="527.0"/>
  <unicode hex="0192"/>
  <outline>
    <contour>
      <point x="106" y="8" type="qcurve" smooth="yes"/>
      <point x="254" y="537" type="line" smooth="yes"/>
      <point x="270" y="596"/>
      <point x="305" y="673"/>
      <point x="350" y="715"/>
      <point x="415" y="732"/>
      <point x="461" y="732" type="qcurve" smooth="yes"/>
      <point x="484" y="732"/>
      <point x="529" y="725"/>
      <point x="552" y="717" type="qcurve"/>
      <point x="529" y="630" type="line"/>
      <point x="513" y="640"/>
      <point x="482" y="648"/>
      <point x="469" y="648" type="qcurve" smooth="yes"/>
      <point x="450" y="648"/>
      <point x="422" y="637"/>
      <point x="400" y="608"/>
      <point x="379" y="555"/>
      <point x="368" y="514" type="qcurve" smooth="yes"/>
      <point x="224" y="-1" type="line" smooth="yes"/>
      <point x="206" y="-66"/>
      <point x="170" y="-148"/>
      <point x="124" y="-193"/>
      <point x="60" y="-211"/>
      <point x="13" y="-211" type="qcurve" smooth="yes"/>
      <point x="-3" y="-211"/>
      <point x="-50" y="-201"/>
      <point x="-73" y="-189" type="qcurve"/>
      <point x="-49" y="-96" type="line"/>
      <point x="-36" y="-110"/>
      <point x="-10" y="-125"/>
      <point x="6" y="-125" type="qcurve" smooth="yes"/>
      <point x="36" y="-125"/>
      <point x="75" y="-81"/>
      <point x="98" y="-19"/>
    </contour>
    <contour>
      <point x="143" y="507" type="line"/>
      <point x="484" y="507" type="line"/>
      <point x="459" y="409" type="line"/>
      <point x="118" y="409" type="line"/>
    </contour>
  </outline>
</glyph>
<glyph name="uni01C0" format="2">
  <advance width="344.0"/>
  <unicode hex="01C0"/>
  <outline>
    <contour>
      <point x="248" y="-258" type="line"/>
      <point x="98" y="-258" type="line"/>
      <point x="98" y="796" type="line"/>
      <point x="248" y="796" type="line"/>
    </contour>
  </outline>
</glyph>
<glyph name="uni01C1" format="2">
  <advance width="688.0"/>
  <unicode hex="01C1"/>
  <outline>
    <contour>
      <point x="592" y="-258" type="line"/>
      <point x="442" y="-258" type="line"/>
      <point x="442" y="796" type="line"/>
      <point x="592" y="796" type="line"/>
    </contour>
    <contour>
      <point x="248" y="-258" type="line"/>
      <point x="98" y="-258" type="line"/>
      <point x="98" y="796" type="line"/>
      <point x="248" y="796" type="line"/>
    </contour>
  </outline>
</glyph>
<glyph name="uni01C2" format="2">
  <advance width="492.0"/>
  <unicode hex="01C2"/>
  <outline>
    <contour>
      <point x="170" y="0" type="line"/>
      <point x="170" y="736" type="line"/>
      <point x="320" y="736" type="line"/>
      <point x="320" y="0" type="line"/>
    </contour>
    <contour>
      <point x="19" y="524" type="line"/>
      <point x="469" y="524" type="line"/>
      <point x="469" y="404" type="line"/>
      <point x="19" y="404" type="line"/>
    </contour>
    <contour>
      <point x="19" y="333" type="line"/>
      <point x="469" y="333" type="line"/>
      <point x="469" y="213" type="line"/>
      <point x="19" y="213" type="line"/>
    </contour>
  </outline>
</glyph>
<glyph name="uni01DD" format="2">
  <advance width="550.0"/>
  <unicode hex="01DD"/>
  <outline>
    <contour>
      <point x="506" y="259" type="qcurve" smooth="yes"/>
      <point x="506" y="180"/>
      <point x="454" y="56"/>
      <point x="349" y="-14"/>
      <point x="269" y="-14" type="qcurve" smooth="yes"/>
      <point x="190" y="-14"/>
      <point x="90" y="54"/>
      <point x="44" y="169"/>
      <point x="44" y="239" type="qcurve" smooth="yes"/>
      <point x="44" y="277" type="line"/>
      <point x="366" y="277" type="line"/>
      <point x="366" y="313"/>
      <point x="355" y="382"/>
      <point x="317" y="428"/>
      <point x="275" y="428" type="qcurve" smooth="yes"/>
      <point x="233" y="428"/>
      <point x="192" y="380"/>
      <point x="187" y="344" type="qcurve"/>
      <point x="51" y="344" type="line"/>
      <point x="59" y="429"/>
      <point x="170" y="514"/>
      <point x="265" y="514" type="qcurve" smooth="yes"/>
      <point x="351" y="514"/>
      <point x="457" y="450"/>
      <point x="506" y="335"/>
    </contour>
    <contour>
      <point x="366" y="192" type="qcurve"/>
      <point x="184" y="192" type="line"/>
      <point x="184" y="159"/>
      <point x="202" y="104"/>
      <point x="242" y="71"/>
      <point x="275" y="71" type="qcurve" smooth="yes"/>
      <point x="325" y="71"/>
      <point x="366" y="142"/>
    </contour>
  </outline>
</glyph>
<glyph name="dotlessj" format="2">
  <advance width="276.0"/>
  <unicode hex="0237"/>
  <outline>
    <contour>
      <point x="30" y="-212" type="line"/>
      <point x="30" y="-103" type="line"/>
      <point x="42" y="-103" type="line" smooth="yes"/>
      <point x="65" y="-103"/>
      <point x="82" y="-69"/>
      <point x="82" y="-50" type="qcurve" smooth="yes"/>
      <point x="82" y="500" type="line"/>
      <point x="217" y="500" type="line"/>
      <point x="217" y="-80" type="line" smooth="yes"/>
      <point x="217" y="-155"/>
      <point x="125" y="-212"/>
      <point x="53" y="-212" type="qcurve" smooth="yes"/>
    </contour>
  </outline>
</glyph>
<glyph name="uni0251" format="2">
  <advance width="586.0"/>
  <unicode hex="0251"/>
  <outline>
    <contour>
      <point x="306" y="74" type="qcurve" smooth="yes"/>
      <point x="267" y="74"/>
      <point x="215" y="122"/>
      <point x="190" y="206"/>
      <point x="190" y="259" type="qcurve" smooth="yes"/>
      <point x="190" y="303"/>
      <point x="218" y="379"/>
      <point x="268" y="426"/>
      <point x="302" y="426" type="qcurve" smooth="yes"/>
      <point x="339" y="426"/>
      <point x="391" y="372"/>
      <point x="419" y="287"/>
      <point x="419" y="239" type="qcurve" smooth="yes"/>
      <point x="419" y="196"/>
      <point x="395" y="121"/>
      <point x="345" y="74"/>
    </contour>
    <contour>
      <point x="558" y="0" type="line"/>
      <point x="558" y="500" type="line"/>
      <point x="423" y="500" type="line"/>
      <point x="423" y="437" type="line"/>
      <point x="404" y="463"/>
      <point x="360" y="496"/>
      <point x="309" y="512"/>
      <point x="281" y="512" type="qcurve" smooth="yes"/>
      <point x="202" y="512"/>
      <point x="102" y="451"/>
      <point x="55" y="333"/>
      <point x="55" y="248" type="qcurve" smooth="yes"/>
      <point x="55" y="194"/>
      <point x="83" y="99"/>
      <point x="138" y="28"/>
      <point x="220" y="-12"/>
      <point x="273" y="-12" type="qcurve" smooth="yes"/>
      <point x="321" y="-12"/>
      <point x="399" y="37"/>
      <point x="423" y="77" type="qcurve"/>
      <point x="423" y="0" type="line"/>
    </contour>
  </outline>
</glyph>
<glyph name="uni0253" format="2">
  <advance width="607.0"/>
  <unicode hex="0253"/>
  <outline>
    <contour>
      <point x="60" y="380" type="line"/>
      <point x="60" y="545" type="line" smooth="yes"/>
      <point x="60" y="599"/>
      <point x="110" y="684"/>
      <point x="198" y="732"/>
      <point x="255" y="732" type="qcurve" smooth="yes"/>
      <point x="305" y="732"/>
      <point x="371" y="718"/>
      <point x="420" y="692"/>
      <point x="441" y="673" type="qcurve"/>
      <point x="371" y="602" type="line"/>
      <point x="339" y="628"/>
      <point x="285" y="628" type="qcurve" smooth="yes"/>
      <point x="251" y="628"/>
      <point x="212" y="602"/>
      <point x="195" y="548"/>
      <point x="195" y="506" type="qcurve" smooth="yes"/>
      <point x="195" y="380" type="line"/>
    </contour>
    <contour>
      <point x="312" y="74" type="qcurve" smooth="yes"/>
      <point x="273" y="74"/>
      <point x="223" y="121"/>
      <point x="199" y="196"/>
      <point x="199" y="239" type="qcurve" smooth="yes"/>
      <point x="199" y="287"/>
      <point x="227" y="372"/>
      <point x="279" y="426"/>
      <point x="316" y="426" type="qcurve" smooth="yes"/>
      <point x="350" y="426"/>
      <point x="400" y="379"/>
      <point x="428" y="303"/>
      <point x="428" y="259" type="qcurve" smooth="yes"/>
      <point x="428" y="206"/>
      <point x="403" y="122"/>
      <point x="351" y="74"/>
    </contour>
    <contour>
      <point x="60" y="0" type="line"/>
      <point x="195" y="0" type="line"/>
      <point x="195" y="77" type="line"/>
      <point x="219" y="37"/>
      <point x="297" y="-12"/>
      <point x="345" y="-12" type="qcurve" smooth="yes"/>
      <point x="398" y="-12"/>
      <point x="480" y="28"/>
      <point x="535" y="99"/>
      <point x="563" y="194"/>
      <point x="563" y="248" type="qcurve" smooth="yes"/>
      <point x="563" y="333"/>
      <point x="516" y="451"/>
      <point x="416" y="512"/>
      <point x="337" y="512" type="qcurve" smooth="yes"/>
      <point x="309" y="512"/>
      <point x="258" y="496"/>
      <point x="214" y="463"/>
      <point x="195" y="437" type="qcurve"/>
      <point x="195" y="500" type="line"/>
      <point x="60" y="500" type="line"/>
    </contour>
  </outline>
</glyph>
<glyph name="uni0255" format="2">
  <advance width="555.0"/>
  <unicode hex="0255"/>
  <outline>
    <contour>
      <point x="290" y="-12" type="qcurve" smooth="yes"/>
      <point x="203" y="-12"/>
      <point x="95" y="47"/>
      <point x="44" y="159"/>
      <point x="44" y="240" type="qcurve" smooth="yes"/>
      <point x="44" y="323"/>
      <point x="95" y="446"/>
      <point x="197" y="514"/>
      <point x="273" y="514" type="qcurve" smooth="yes"/>
      <point x="371" y="514"/>
      <point x="479" y="427"/>
      <point x="479" y="324" type="qcurve"/>
      <point x="347" y="324" type="line"/>
      <point x="345" y="352"/>
      <point x="332" y="399"/>
      <point x="302" y="428"/>
      <point x="273" y="428" type="qcurve" smooth="yes"/>
      <point x="241" y="428"/>
      <point x="203" y="393"/>
      <point x="185" y="338"/>
      <point x="179" y="275"/>
      <point x="179" y="248" type="qcurve" smooth="yes"/>
      <point x="179" y="201"/>
      <point x="206" y="125"/>
      <point x="264" y="82"/>
      <point x="312" y="82" type="qcurve" smooth="yes"/>
      <point x="333" y="82"/>
      <point x="372" y="92"/>
      <point x="397" y="112"/>
      <point x="397" y="127" type="qcurve" smooth="yes"/>
      <point x="397" y="139"/>
      <point x="379" y="155"/>
      <point x="360" y="155" type="qcurve" smooth="yes"/>
      <point x="331" y="155"/>
      <point x="262" y="110"/>
      <point x="192" y="29"/>
      <point x="132" y="-83"/>
      <point x="111" y="-150" type="qcurve"/>
      <point x="61" y="-133" type="line"/>
      <point x="88" y="-27"/>
      <point x="189" y="139"/>
      <point x="318" y="234"/>
      <point x="388" y="234" type="qcurve" smooth="yes"/>
      <point x="436" y="234"/>
      <point x="505" y="185"/>
      <point x="505" y="136" type="qcurve" smooth="yes"/>
      <point x="505" y="94"/>
      <point x="449" y="27"/>
      <point x="351" y="-12"/>
    </contour>
  </outline>
</glyph>
<glyph name="uni0256" format="2">
  <advance width="591.0"/>
  <unicode hex="0256"/>
  <outline>
    <contour>
      <point x="411" y="134" type="line"/>
      <point x="547" y="134" type="line"/>
      <point x="547" y="-21" type="line" smooth="yes"/>
      <point x="547" y="-52"/>
      <point x="583" y="-89"/>
      <point x="608" y="-89" type="qcurve" smooth="yes"/>
      <point x="630" y="-89"/>
      <point x="656" y="-75"/>
      <point x="664" y="-66" type="qcurve"/>
      <point x="740" y="-142" type="line"/>
      <point x="688" y="-199"/>
      <point x="602" y="-199" type="qcurve" smooth="yes"/>
      <point x="548" y="-199"/>
      <point x="461" y="-163"/>
      <point x="411" y="-100"/>
      <point x="411" y="-60" type="qcurve" smooth="yes"/>
    </contour>
    <contour>
      <point x="411" y="0" type="line"/>
      <point x="411" y="722" type="line"/>
      <point x="546" y="722" type="line"/>
      <point x="546" y="0" type="line"/>
    </contour>
    <contour>
      <point x="44" y="252" type="qcurve" smooth="yes"/>
      <point x="44" y="326"/>
      <point x="94" y="445"/>
      <point x="193" y="514"/>
      <point x="267" y="514" type="qcurve" smooth="yes"/>
      <point x="305" y="514"/>
      <point x="365" y="496"/>
      <point x="409" y="461"/>
      <point x="423" y="434" type="qcurve"/>
      <point x="423" y="84" type="line"/>
      <point x="410" y="57"/>
      <point x="362" y="12"/>
      <point x="303" y="-14"/>
      <point x="275" y="-14" type="qcurve" smooth="yes"/>
      <point x="197" y="-14"/>
      <point x="94" y="57"/>
      <point x="44" y="178"/>
    </contour>
    <contour>
      <point x="179" y="245" type="qcurve" smooth="yes"/>
      <point x="179" y="206"/>
      <point x="201" y="128"/>
      <point x="250" y="76"/>
      <point x="291" y="76" type="qcurve" smooth="yes"/>
      <point x="333" y="76"/>
      <point x="386" y="128"/>
      <point x="412" y="209"/>
      <point x="412" y="253" type="qcurve" smooth="yes"/>
      <point x="412" y="277"/>
      <point x="403" y="336"/>
      <point x="379" y="392"/>
      <point x="334" y="428"/>
      <point x="299" y="428" type="qcurve" smooth="yes"/>
      <point x="264" y="428"/>
      <point x="218" y="393"/>
      <point x="191" y="337"/>
      <point x="179" y="274"/>
    </contour>
  </outline>
</glyph>
<glyph name="uni0257" format="2">
  <advance width="580.0"/>
  <unicode hex="0257"/>
  <outline>
    <contour>
      <point x="295" y="74" type="qcurve" smooth="yes"/>
      <point x="334" y="74"/>
      <point x="384" y="121"/>
      <point x="408" y="196"/>
      <point x="408" y="239" type="qcurve" smooth="yes"/>
      <point x="408" y="287"/>
      <point x="380" y="372"/>
      <point x="328" y="426"/>
      <point x="291" y="426" type="qcurve" smooth="yes"/>
      <point x="257" y="426"/>
      <point x="207" y="379"/>
      <point x="179" y="303"/>
      <point x="179" y="259" type="qcurve" smooth="yes"/>
      <point x="179" y="206"/>
      <point x="204" y="122"/>
      <point x="256" y="74"/>
    </contour>
    <contour>
      <point x="547" y="0" type="line"/>
      <point x="412" y="0" type="line"/>
      <point x="412" y="77" type="line"/>
      <point x="388" y="37"/>
      <point x="310" y="-12"/>
      <point x="262" y="-12" type="qcurve" smooth="yes"/>
      <point x="209" y="-12"/>
      <point x="127" y="28"/>
      <point x="72" y="99"/>
      <point x="44" y="194"/>
      <point x="44" y="248" type="qcurve" smooth="yes"/>
      <point x="44" y="333"/>
      <point x="91" y="451"/>
      <point x="191" y="512"/>
      <point x="270" y="512" type="qcurve" smooth="yes"/>
      <point x="298" y="512"/>
      <point x="349" y="496"/>
      <point x="393" y="463"/>
      <point x="412" y="437" type="qcurve"/>
      <point x="412" y="500" type="line"/>
      <point x="547" y="500" type="line"/>
    </contour>
    <contour>
      <point x="412" y="380" type="line"/>
      <point x="412" y="545" type="line" smooth="yes"/>
      <point x="412" y="599"/>
      <point x="462" y="684"/>
      <point x="550" y="732"/>
      <point x="607" y="732" type="qcurve" smooth="yes"/>
      <point x="657" y="732"/>
      <point x="723" y="718"/>
      <point x="772" y="692"/>
      <point x="793" y="673" type="qcurve"/>
      <point x="723" y="602" type="line"/>
      <point x="691" y="628"/>
      <point x="637" y="628" type="qcurve" smooth="yes"/>
      <point x="603" y="628"/>
      <point x="564" y="602"/>
      <point x="547" y="548"/>
      <point x="547" y="506" type="qcurve" smooth="yes"/>
      <point x="547" y="380" type="line"/>
    </contour>
  </outline>
</glyph>
<glyph name="uni025A" format="2">
  <advance width="766.0"/>
  <unicode hex="025A"/>
  <outline>
    <contour>
      <point x="506" y="259" type="qcurve" smooth="yes"/>
      <point x="506" y="180"/>
      <point x="454" y="56"/>
      <point x="349" y="-14"/>
      <point x="269" y="-14" type="qcurve" smooth="yes"/>
      <point x="190" y="-14"/>
      <point x="92" y="47"/>
      <point x="47" y="139"/>
      <point x="47" y="186" type="qcurve"/>
      <point x="150" y="232" type="line"/>
      <point x="156" y="173"/>
      <point x="187" y="102"/>
      <point x="236" y="71"/>
      <point x="269" y="71" type="qcurve" smooth="yes"/>
      <point x="303" y="71"/>
      <point x="347" y="104"/>
      <point x="368" y="172"/>
      <point x="368" y="224" type="qcurve" smooth="yes"/>
      <point x="368" y="267"/>
      <point x="363" y="341"/>
      <point x="344" y="397"/>
      <point x="307" y="428"/>
      <point x="275" y="428" type="qcurve" smooth="yes"/>
      <point x="233" y="428"/>
      <point x="192" y="380"/>
      <point x="187" y="344" type="qcurve"/>
      <point x="51" y="344" type="line"/>
      <point x="59" y="429"/>
      <point x="170" y="514"/>
      <point x="265" y="514" type="qcurve" smooth="yes"/>
      <point x="351" y="514"/>
      <point x="457" y="450"/>
      <point x="506" y="335"/>
    </contour>
    <contour>
      <point x="115" y="125" type="line"/>
      <point x="81" y="201" type="line"/>
      <point x="630" y="452" type="line"/>
      <point x="630" y="303" type="line" smooth="yes"/>
      <point x="630" y="286"/>
      <point x="647" y="268"/>
      <point x="668" y="268" type="qcurve" smooth="yes"/>
      <point x="689" y="268"/>
      <point x="700" y="299"/>
      <point x="700" y="320" type="qcurve"/>
      <point x="765" y="320" type="line"/>
      <point x="765" y="288"/>
      <point x="745" y="227"/>
      <point x="699" y="186"/>
      <point x="660" y="186" type="qcurve" smooth="yes"/>
      <point x="627" y="186"/>
      <point x="566" y="208"/>
      <point x="528" y="259"/>
      <point x="528" y="301" type="qcurve" smooth="yes"/>
      <point x="528" y="318" type="line"/>
      <point x="539" y="318" type="line"/>
    </contour>
  </outline>
</glyph>
<glyph name="uni025F" format="2">
  <advance width="383.0"/>
  <unicode hex="025F"/>
  <outline>
    <contour>
      <point x="-35" y="-158" type="qcurve"/>
      <point x="48" y="-72" type="line"/>
      <point x="57" y="-85"/>
      <point x="91" y="-104"/>
      <point x="115" y="-104" type="qcurve" smooth="yes"/>
      <point x="132" y="-104"/>
      <point x="152" y="-83"/>
      <point x="152" y="-63" type="qcurve" smooth="yes"/>
      <point x="152" y="500" type="line"/>
      <point x="287" y="500" type="line"/>
      <point x="287" y="-80" type="line" smooth="yes"/>
      <point x="287" y="-142"/>
      <point x="206" y="-220"/>
      <point x="138" y="-220" type="qcurve" smooth="yes"/>
      <point x="84" y="-220"/>
      <point x="0" y="-188"/>
    </contour>
    <contour>
      <point x="53" y="202" type="line"/>
      <point x="53" y="297" type="line"/>
      <point x="373" y="297" type="line"/>
      <point x="373" y="202" type="line"/>
    </contour>
  </outline>
</glyph>
<glyph name="uni0260" format="2">
  <advance width="621.0"/>
  <unicode hex="0260"/>
  <outline>
    <contour>
      <point x="411" y="400" type="line"/>
      <point x="411" y="500" type="line" smooth="yes"/>
      <point x="411" y="569"/>
      <point x="489" y="648"/>
      <point x="558" y="648" type="qcurve" smooth="yes"/>
      <point x="578" y="648"/>
      <point x="626" y="641"/>
      <point x="637" y="633" type="qcurve"/>
      <point x="637" y="538" type="line"/>
      <point x="615" y="552"/>
      <point x="591" y="552" type="qcurve" smooth="yes"/>
      <point x="570" y="552"/>
      <point x="546" y="526"/>
      <point x="546" y="500" type="qcurve" smooth="yes"/>
      <point x="546" y="400" type="line"/>
    </contour>
    <contour>
      <point x="44" y="262" type="qcurve" smooth="yes"/>
      <point x="44" y="340"/>
      <point x="98" y="453"/>
      <point x="197" y="514"/>
      <point x="265" y="514" type="qcurve" smooth="yes"/>
      <point x="324" y="514"/>
      <point x="389" y="485"/>
      <point x="411" y="454" type="qcurve"/>
      <point x="411" y="500" type="line"/>
      <point x="546" y="500" type="line"/>
      <point x="546" y="5" type="line" smooth="yes"/>
      <point x="546" y="-66"/>
      <point x="483" y="-157"/>
      <point x="370" y="-200"/>
      <point x="296" y="-200" type="qcurve" smooth="yes"/>
      <point x="261" y="-200"/>
      <point x="182" y="-188"/>
      <point x="113" y="-156"/>
      <point x="69" y="-99"/>
      <point x="69" y="-53" type="qcurve"/>
      <point x="204" y="-53" type="line"/>
      <point x="204" y="-76"/>
      <point x="231" y="-103"/>
      <point x="275" y="-114"/>
      <point x="300" y="-114" type="qcurve" smooth="yes"/>
      <point x="368" y="-114"/>
      <point x="411" y="-35"/>
      <point x="411" y="49" type="qcurve" smooth="yes"/>
      <point x="411" y="81" type="line"/>
      <point x="397" y="64"/>
      <point x="357" y="26"/>
      <point x="305" y="0"/>
      <point x="272" y="0" type="qcurve" smooth="yes"/>
      <point x="195" y="0"/>
      <point x="93" y="71"/>
      <point x="44" y="190"/>
    </contour>
    <contour>
      <point x="297" y="86" type="qcurve" smooth="yes"/>
      <point x="326" y="86"/>
      <point x="369" y="112"/>
      <point x="397" y="158"/>
      <point x="411" y="218"/>
      <point x="411" y="252" type="qcurve" smooth="yes"/>
      <point x="411" y="275"/>
      <point x="402" y="335"/>
      <point x="379" y="391"/>
      <point x="334" y="428"/>
      <point x="298" y="428" type="qcurve" smooth="yes"/>
      <point x="255" y="428"/>
      <point x="203" y="376"/>
      <point x="179" y="297"/>
      <point x="179" y="256" type="qcurve" smooth="yes"/>
      <point x="179" y="215"/>
      <point x="203" y="137"/>
      <point x="255" y="86"/>
    </contour>
  </outline>
</glyph>
<glyph name="uni0262" format="2">
  <advance width="563.0"/>
  <unicode hex="0262"/>
  <outline>
    <contour>
      <point x="44" y="241" type="qcurve" smooth="yes"/>
      <point x="44" y="329"/>
      <point x="108" y="451"/>
      <point x="228" y="514"/>
      <point x="312" y="514" type="qcurve" smooth="yes"/>
      <point x="379" y="514"/>
      <point x="471" y="475"/>
      <point x="519" y="399"/>
      <point x="519" y="344" type="qcurve"/>
      <point x="384" y="344" type="line"/>
      <point x="384" y="379"/>
      <point x="353" y="423"/>
      <point x="305" y="423" type="qcurve" smooth="yes"/>
      <point x="268" y="423"/>
      <point x="211" y="389"/>
      <point x="179" y="312"/>
      <point x="179" y="247" type="qcurve" smooth="yes"/>
      <point x="179" y="182"/>
      <point x="210" y="108"/>
      <point x="277" y="77"/>
      <point x="331" y="77" type="qcurve" smooth="yes"/>
      <point x="350" y="77"/>
      <point x="389" y="82"/>
      <point x="406" y="87" type="qcurve"/>
      <point x="406" y="182" type="line"/>
      <point x="314" y="182" type="line"/>
      <point x="314" y="266" type="line"/>
      <point x="512" y="266" type="line"/>
      <point x="512" y="18" type="line"/>
      <point x="455" y="1"/>
      <point x="362" y="-14"/>
      <point x="322" y="-14" type="qcurve" smooth="yes"/>
      <point x="184" y="-14"/>
      <point x="44" y="115"/>
    </contour>
  </outline>
</glyph>
<glyph name="uni0263" format="2">
  <advance width="530.0"/>
  <unicode hex="0263"/>
  <outline>
    <contour>
      <point x="261" y="10" type="qcurve"/>
      <point x="254" y="-2"/>
      <point x="245" y="-24"/>
      <point x="241" y="-42"/>
      <point x="240" y="-57"/>
      <point x="240" y="-62" type="qcurve" smooth="yes"/>
      <point x="240" y="-77"/>
      <point x="247" y="-102"/>
      <point x="264" y="-102" type="qcurve" smooth="yes"/>
      <point x="281" y="-102"/>
      <point x="288" y="-77"/>
      <point x="288" y="-62" type="qcurve" smooth="yes"/>
      <point x="288" y="-57"/>
      <point x="285" y="-41"/>
      <point x="279" y="-22"/>
      <point x="269" y="-1"/>
    </contour>
    <contour>
      <point x="545" y="500" type="line"/>
      <point x="333" y="129" type="line"/>
      <point x="350" y="96"/>
      <point x="380" y="14"/>
      <point x="399" y="-58"/>
      <point x="399" y="-75" type="qcurve" smooth="yes"/>
      <point x="399" y="-132"/>
      <point x="340" y="-200"/>
      <point x="265" y="-200" type="qcurve" smooth="yes"/>
      <point x="190" y="-200"/>
      <point x="109" y="-132"/>
      <point x="109" y="-75" type="qcurve" smooth="yes"/>
      <point x="109" y="-58"/>
      <point x="130" y="12"/>
      <point x="164" y="88"/>
      <point x="183" y="116" type="qcurve"/>
      <point x="6" y="500" type="line"/>
      <point x="149" y="500" type="line"/>
      <point x="292" y="170" type="line"/>
      <point x="229" y="170" type="line"/>
      <point x="390" y="500" type="line"/>
    </contour>
  </outline>
</glyph>
<glyph name="uni0264" format="2">
  <advance width="579.0"/>
  <unicode hex="0264"/>
  <outline>
    <contour>
      <point x="150" y="90" type="qcurve" smooth="yes"/>
      <point x="150" y="116"/>
      <point x="190" y="202"/>
      <point x="224" y="251" type="qcurve" smooth="yes"/>
      <point x="258" y="300" type="line" smooth="yes"/>
      <point x="288" y="341"/>
      <point x="353" y="418"/>
      <point x="415" y="479"/>
      <point x="468" y="514"/>
      <point x="484" y="514" type="qcurve" smooth="yes"/>
      <point x="499" y="514"/>
      <point x="540" y="498"/>
      <point x="580" y="473"/>
      <point x="606" y="446"/>
      <point x="606" y="436" type="qcurve" smooth="yes"/>
      <point x="606" y="421"/>
      <point x="599" y="400"/>
      <point x="590" y="400" type="qcurve" smooth="yes"/>
      <point x="585" y="400"/>
      <point x="578" y="405"/>
      <point x="574" y="409" type="qcurve"/>
      <point x="571" y="411"/>
      <point x="564" y="417"/>
      <point x="555" y="420"/>
      <point x="549" y="420" type="qcurve" smooth="yes"/>
      <point x="537" y="420"/>
      <point x="506" y="410"/>
      <point x="473" y="385"/>
      <point x="457" y="365" type="qcurve" smooth="yes"/>
      <point x="314" y="178" type="line" smooth="yes"/>
      <point x="307" y="168"/>
      <point x="284" y="135"/>
      <point x="266" y="99"/>
      <point x="266" y="87" type="qcurve" smooth="yes"/>
      <point x="266" y="70"/>
      <point x="282" y="51"/>
      <point x="288" y="51" type="qcurve" smooth="yes"/>
      <point x="294" y="51"/>
      <point x="313" y="69"/>
      <point x="313" y="87" type="qcurve" smooth="yes"/>
      <point x="313" y="101"/>
      <point x="290" y="135"/>
      <point x="261" y="165"/>
      <point x="250" y="173" type="qcurve"/>
      <point x="360" y="262" type="line"/>
      <point x="396" y="194"/>
      <point x="432" y="108"/>
      <point x="432" y="81" type="qcurve" smooth="yes"/>
      <point x="432" y="58"/>
      <point x="396" y="14"/>
      <point x="330" y="-14"/>
      <point x="287" y="-14" type="qcurve" smooth="yes"/>
      <point x="225" y="-14"/>
      <point x="150" y="43"/>
    </contour>
    <contour>
      <point x="304" y="305" type="qcurve"/>
      <point x="222" y="226" type="line"/>
      <point x="125" y="365" type="line" smooth="yes"/>
      <point x="109" y="388"/>
      <point x="58" y="420"/>
      <point x="41" y="420" type="qcurve" smooth="yes"/>
      <point x="36" y="420"/>
      <point x="26" y="415"/>
      <point x="18" y="410"/>
      <point x="16" y="408" type="qcurve"/>
      <point x="13" y="406"/>
      <point x="2" y="400"/>
      <point x="-3" y="400" type="qcurve" smooth="yes"/>
      <point x="-16" y="400"/>
      <point x="-24" y="422"/>
      <point x="-24" y="436" type="qcurve" smooth="yes"/>
      <point x="-24" y="447"/>
      <point x="2" y="474"/>
      <point x="41" y="498"/>
      <point x="81" y="514"/>
      <point x="96" y="514" type="qcurve" smooth="yes"/>
      <point x="134" y="514"/>
      <point x="239" y="409"/>
    </contour>
  </outline>
</glyph>
<glyph name="uni0265" format="2">
  <advance width="586.0"/>
  <unicode hex="0265"/>
  <outline>
    <contour>
      <point x="391" y="-200" type="line"/>
      <point x="391" y="0" type="line"/>
      <point x="526" y="0" type="line"/>
      <point x="526" y="-200" type="line"/>
    </contour>
    <contour>
      <point x="60" y="159" type="qcurve" smooth="yes"/>
      <point x="60" y="500" type="line"/>
      <point x="196" y="500" type="line"/>
      <point x="196" y="199" type="line" smooth="yes"/>
      <point x="196" y="133"/>
      <point x="241" y="67"/>
      <point x="285" y="67" type="qcurve" smooth="yes"/>
      <point x="311" y="67"/>
      <point x="350" y="88"/>
      <point x="377" y="127"/>
      <point x="391" y="185"/>
      <point x="391" y="221" type="qcurve"/>
      <point x="411" y="221" type="line"/>
      <point x="411" y="97" type="line"/>
      <point x="391" y="68" type="line" smooth="yes"/>
      <point x="371" y="39"/>
      <point x="326" y="3"/>
      <point x="270" y="-14"/>
      <point x="234" y="-14" type="qcurve" smooth="yes"/>
      <point x="150" y="-14"/>
      <point x="60" y="77"/>
    </contour>
    <contour>
      <point x="527" y="0" type="line"/>
      <point x="391" y="0" type="line"/>
      <point x="391" y="500" type="line"/>
      <point x="527" y="500" type="line"/>
    </contour>
  </outline>
</glyph>
<glyph name="uni0266" format="2">
  <advance width="573.0"/>
  <unicode hex="0266"/>
  <outline>
    <contour>
      <point x="60" y="380" type="line"/>
      <point x="60" y="545" type="line" smooth="yes"/>
      <point x="60" y="599"/>
      <point x="110" y="684"/>
      <point x="198" y="732"/>
      <point x="255" y="732" type="qcurve" smooth="yes"/>
      <point x="305" y="732"/>
      <point x="371" y="718"/>
      <point x="420" y="692"/>
      <point x="441" y="673" type="qcurve"/>
      <point x="371" y="602" type="line"/>
      <point x="339" y="628"/>
      <point x="285" y="628" type="qcurve" smooth="yes"/>
      <point x="251" y="628"/>
      <point x="212" y="602"/>
      <point x="196" y="548"/>
      <point x="196" y="506" type="qcurve" smooth="yes"/>
      <point x="196" y="380" type="line"/>
    </contour>
    <contour>
      <point x="176" y="279" type="line"/>
      <point x="176" y="433" type="line"/>
      <point x="198" y="433" type="line"/>
      <point x="227" y="474"/>
      <point x="304" y="514"/>
      <point x="356" y="514" type="qcurve" smooth="yes"/>
      <point x="411" y="514"/>
      <point x="487" y="472"/>
      <point x="527" y="392"/>
      <point x="527" y="334" type="qcurve" smooth="yes"/>
      <point x="527" y="0" type="line"/>
      <point x="391" y="0" type="line"/>
      <point x="391" y="307" type="line" smooth="yes"/>
      <point x="391" y="349"/>
      <point x="371" y="404"/>
      <point x="332" y="432"/>
      <point x="302" y="432" type="qcurve" smooth="yes"/>
      <point x="268" y="432"/>
      <point x="221" y="396"/>
      <point x="196" y="328"/>
      <point x="196" y="279" type="qcurve"/>
    </contour>
    <contour>
      <point x="60" y="0" type="line"/>
      <point x="60" y="500" type="line"/>
      <point x="196" y="500" type="line"/>
      <point x="196" y="0" type="line"/>
    </contour>
  </outline>
</glyph>
<glyph name="uni0268" format="2">
  <advance width="320.0"/>
  <unicode hex="0268"/>
  <outline>
    <contour>
      <point x="295" y="202" type="line"/>
      <point x="25" y="202" type="line"/>
      <point x="25" y="297" type="line"/>
      <point x="295" y="297" type="line"/>
    </contour>
    <contour>
      <point x="80" y="0" type="line"/>
      <point x="80" y="500" type="line"/>
      <point x="216" y="500" type="line"/>
      <point x="216" y="0" type="line"/>
    </contour>
    <contour>
      <point x="73" y="600" type="line"/>
      <point x="73" y="730" type="line"/>
      <point x="223" y="730" type="line"/>
      <point x="223" y="600" type="line"/>
    </contour>
  </outline>
</glyph>
<glyph name="uni026B" format="2">
  <advance width="466.0"/>
  <unicode hex="026B"/>
  <outline>
    <contour>
      <point x="8" y="357" type="line"/>
      <point x="12" y="399"/>
      <point x="60" y="464"/>
      <point x="101" y="464" type="qcurve" smooth="yes"/>
      <point x="120" y="464"/>
      <point x="159" y="451"/>
      <point x="176" y="442" type="qcurve" smooth="yes"/>
      <point x="200" y="429" type="line"/>
      <point x="200" y="350" type="line"/>
      <point x="176" y="366" type="line" smooth="yes"/>
      <point x="162" y="375"/>
      <point x="116" y="390"/>
      <point x="102" y="390" type="qcurve" smooth="yes"/>
      <point x="89" y="390"/>
      <point x="65" y="375"/>
      <point x="60" y="357" type="qcurve"/>
    </contour>
    <contour>
      <point x="270" y="414" type="line"/>
      <point x="296" y="402" type="line" smooth="yes"/>
      <point x="312" y="395"/>
      <point x="341" y="384"/>
      <point x="353" y="384" type="qcurve" smooth="yes"/>
      <point x="368" y="384"/>
      <point x="391" y="402"/>
      <point x="396" y="420" type="qcurve"/>
      <point x="447" y="420" type="line"/>
      <point x="442" y="375"/>
      <point x="394" y="310"/>
      <point x="354" y="310" type="qcurve" smooth="yes"/>
      <point x="336" y="310"/>
      <point x="299" y="322"/>
      <point x="282" y="330" type="qcurve" smooth="yes"/>
      <point x="270" y="336" type="line"/>
    </contour>
    <contour>
      <point x="169" y="0" type="line"/>
      <point x="169" y="722" type="line"/>
      <point x="305" y="722" type="line"/>
      <point x="305" y="0" type="line"/>
    </contour>
  </outline>
</glyph>
<glyph name="uni026C" format="2">
  <advance width="522.0"/>
  <unicode hex="026C"/>
  <outline>
    <contour>
      <point x="244" y="345" type="qcurve"/>
      <point x="240" y="269" type="line"/>
      <point x="175" y="274"/>
      <point x="69" y="307"/>
      <point x="8" y="370"/>
      <point x="8" y="417" type="qcurve" smooth="yes"/>
      <point x="8" y="466"/>
      <point x="76" y="529"/>
      <point x="134" y="529" type="qcurve" smooth="yes"/>
      <point x="156" y="529"/>
      <point x="199" y="518"/>
      <point x="220" y="508" type="qcurve"/>
      <point x="230" y="440" type="line"/>
      <point x="218" y="444"/>
      <point x="197" y="449"/>
      <point x="187" y="449" type="qcurve" smooth="yes"/>
      <point x="165" y="449"/>
      <point x="138" y="428"/>
      <point x="138" y="409" type="qcurve" smooth="yes"/>
      <point x="138" y="394"/>
      <point x="160" y="368"/>
      <point x="207" y="349"/>
    </contour>
    <contour>
      <point x="316" y="270" type="qcurve"/>
      <point x="307" y="346" type="line"/>
      <point x="333" y="347"/>
      <point x="392" y="369"/>
      <point x="426" y="387" type="qcurve"/>
      <point x="477" y="334" type="line"/>
      <point x="438" y="304"/>
      <point x="363" y="274"/>
    </contour>
    <contour>
      <point x="204" y="0" type="line"/>
      <point x="204" y="722" type="line"/>
      <point x="340" y="722" type="line"/>
      <point x="340" y="0" type="line"/>
    </contour>
  </outline>
</glyph>
<glyph name="uni026D" format="2">
  <advance width="282.0"/>
  <unicode hex="026D"/>
  <outline>
    <contour>
      <point x="317" y="-105" type="line"/>
      <point x="317" y="-200" type="line"/>
      <point x="230" y="-200" type="line" smooth="yes"/>
      <point x="143" y="-200"/>
      <point x="60" y="-116"/>
      <point x="60" y="-30" type="qcurve" smooth="yes"/>
      <point x="60" y="50" type="line"/>
      <point x="196" y="50" type="line"/>
      <point x="196" y="-19" type="line" smooth="yes"/>
      <point x="196" y="-67"/>
      <point x="229" y="-105"/>
      <point x="275" y="-105" type="qcurve" smooth="yes"/>
    </contour>
    <contour>
      <point x="60" y="0" type="line"/>
      <point x="60" y="722" type="line"/>
      <point x="196" y="722" type="line"/>
      <point x="196" y="0" type="line"/>
    </contour>
  </outline>
</glyph>
<glyph name="uni0270" format="2">
  <advance width="875.0"/>
  <unicode hex="0270"/>
  <outline>
    <contour>
      <point x="679" y="-200" type="line"/>
      <point x="679" y="0" type="line"/>
      <point x="815" y="0" type="line"/>
      <point x="815" y="-200" type="line"/>
    </contour>
    <contour>
      <point x="505" y="180" type="line" smooth="yes"/>
      <point x="505" y="150"/>
      <point x="522" y="106"/>
      <point x="554" y="82"/>
      <point x="578" y="82" type="qcurve" smooth="yes"/>
      <point x="603" y="82"/>
      <point x="641" y="104"/>
      <point x="666" y="143"/>
      <point x="679" y="193"/>
      <point x="679" y="221" type="qcurve"/>
      <point x="689" y="221" type="line"/>
      <point x="689" y="97" type="line"/>
      <point x="677" y="63"/>
      <point x="632" y="13"/>
      <point x="571" y="-14"/>
      <point x="536" y="-14" type="qcurve" smooth="yes"/>
      <point x="481" y="-14"/>
      <point x="402" y="39"/>
      <point x="386" y="75" type="qcurve"/>
      <point x="370" y="46"/>
      <point x="325" y="7"/>
      <point x="269" y="-14"/>
      <point x="238" y="-14" type="qcurve" smooth="yes"/>
      <point x="152" y="-14"/>
      <point x="59" y="82"/>
      <point x="59" y="170" type="qcurve" smooth="yes"/>
      <point x="59" y="500" type="line"/>
      <point x="195" y="500" type="line"/>
      <point x="195" y="180" type="line" smooth="yes"/>
      <point x="195" y="146"/>
      <point x="212" y="102"/>
      <point x="243" y="82"/>
      <point x="265" y="82" type="qcurve" smooth="yes"/>
      <point x="293" y="82"/>
      <point x="340" y="107"/>
      <point x="369" y="167"/>
      <point x="369" y="221" type="qcurve" smooth="yes"/>
      <point x="369" y="500" type="line"/>
      <point x="505" y="500" type="line"/>
    </contour>
    <contour>
      <point x="679" y="140" type="line"/>
      <point x="815" y="140" type="line"/>
      <point x="815" y="0" type="line"/>
      <point x="679" y="0" type="line"/>
    </contour>
    <contour>
      <point x="815" y="140" type="line"/>
      <point x="679" y="140" type="line"/>
      <point x="679" y="500" type="line"/>
      <point x="815" y="500" type="line"/>
    </contour>
  </outline>
</glyph>
<glyph name="uni0271" format="2">
  <advance width="896.0"/>
  <unicode hex="0271"/>
  <outline>
    <contour>
      <point x="845" y="134" type="line"/>
      <point x="845" y="-60" type="line" smooth="yes"/>
      <point x="845" y="-100"/>
      <point x="795" y="-163"/>
      <point x="708" y="-199"/>
      <point x="654" y="-199" type="qcurve" smooth="yes"/>
      <point x="569" y="-199"/>
      <point x="516" y="-142" type="qcurve"/>
      <point x="592" y="-66" type="line"/>
      <point x="600" y="-75"/>
      <point x="626" y="-89"/>
      <point x="648" y="-89" type="qcurve" smooth="yes"/>
      <point x="674" y="-89"/>
      <point x="709" y="-52"/>
      <point x="709" y="-21" type="qcurve" smooth="yes"/>
      <point x="709" y="134" type="line"/>
    </contour>
    <contour>
      <point x="521" y="280" type="line"/>
      <point x="497" y="280" type="line"/>
      <point x="497" y="416" type="line"/>
      <point x="527" y="463"/>
      <point x="619" y="514"/>
      <point x="676" y="514" type="qcurve" smooth="yes"/>
      <point x="754" y="514"/>
      <point x="845" y="416"/>
      <point x="845" y="329" type="qcurve" smooth="yes"/>
      <point x="845" y="0" type="line"/>
      <point x="709" y="0" type="line"/>
      <point x="709" y="320" type="line" smooth="yes"/>
      <point x="709" y="367"/>
      <point x="659" y="429"/>
      <point x="623" y="429" type="qcurve" smooth="yes"/>
      <point x="595" y="429"/>
      <point x="549" y="391"/>
      <point x="521" y="328"/>
      <point x="521" y="290" type="qcurve" smooth="yes"/>
    </contour>
    <contour>
      <point x="195" y="427" type="line" smooth="yes"/>
      <point x="223" y="466"/>
      <point x="310" y="514"/>
      <point x="356" y="514" type="qcurve" smooth="yes"/>
      <point x="394" y="514"/>
      <point x="461" y="482"/>
      <point x="511" y="427"/>
      <point x="521" y="391" type="qcurve"/>
      <point x="521" y="0" type="line"/>
      <point x="385" y="0" type="line"/>
      <point x="385" y="320" type="line" smooth="yes"/>
      <point x="385" y="367"/>
      <point x="337" y="429"/>
      <point x="300" y="429" type="qcurve" smooth="yes"/>
      <point x="272" y="429"/>
      <point x="224" y="390"/>
      <point x="195" y="327"/>
      <point x="195" y="289" type="qcurve"/>
      <point x="175" y="289" type="line"/>
      <point x="175" y="399" type="line"/>
    </contour>
    <contour>
      <point x="59" y="0" type="line"/>
      <point x="59" y="500" type="line"/>
      <point x="195" y="500" type="line"/>
      <point x="195" y="0" type="line"/>
    </contour>
  </outline>
</glyph>
<glyph name="uni0272" format="2">
  <advance width="619.0"/>
  <unicode hex="0272"/>
  <outline>
    <contour>
      <point x="-61" y="-105" type="line"/>
      <point x="-19" y="-105" type="line" smooth="yes"/>
      <point x="27" y="-105"/>
      <point x="60" y="-67"/>
      <point x="60" y="-19" type="qcurve" smooth="yes"/>
      <point x="60" y="50" type="line"/>
      <point x="196" y="50" type="line"/>
      <point x="196" y="-30" type="line" smooth="yes"/>
      <point x="196" y="-116"/>
      <point x="113" y="-200"/>
      <point x="26" y="-200" type="qcurve" smooth="yes"/>
      <point x="-61" y="-200" type="line"/>
    </contour>
    <contour>
      <point x="176" y="279" type="line"/>
      <point x="176" y="433" type="line"/>
      <point x="198" y="433" type="line"/>
      <point x="227" y="474"/>
      <point x="304" y="514"/>
      <point x="356" y="514" type="qcurve" smooth="yes"/>
      <point x="411" y="514"/>
      <point x="487" y="472"/>
      <point x="527" y="392"/>
      <point x="527" y="334" type="qcurve" smooth="yes"/>
      <point x="527" y="0" type="line"/>
      <point x="391" y="0" type="line"/>
      <point x="391" y="307" type="line" smooth="yes"/>
      <point x="391" y="349"/>
      <point x="371" y="404"/>
      <point x="332" y="432"/>
      <point x="302" y="432" type="qcurve" smooth="yes"/>
      <point x="268" y="432"/>
      <point x="221" y="396"/>
      <point x="196" y="328"/>
      <point x="196" y="279" type="qcurve"/>
    </contour>
    <contour>
      <point x="60" y="0" type="line"/>
      <point x="60" y="500" type="line"/>
      <point x="196" y="500" type="line"/>
      <point x="196" y="0" type="line"/>
    </contour>
  </outline>
</glyph>
